<?xml version="1.0" encoding="UTF-8" standalone="no"?>
<svg
   width="64"
   height="64"
   viewBox="0 0 64 64"
   version="1.1"
   id="svg2"
   sodipodi:docname="drink.svg"
   inkscape:version="1.4.2 (f4327f4, 2025-05-13)"
   xmlns:inkscape="http://www.inkscape.org/namespaces/inkscape"
   xmlns:sodipodi="http://sodipodi.sourceforge.net/DTD/sodipodi-0.dtd"
   xmlns="http://www.w3.org/2000/svg"
   xmlns:svg="http://www.w3.org/2000/svg">
  <defs
     id="defs2" />
  <sodipodi:namedview
     id="namedview2"
     pagecolor="#ffffff"
     bordercolor="#000000"
     borderopacity="0.25"
     inkscape:showpageshadow="2"
     inkscape:pageopacity="0.0"
     inkscape:pagecheckerboard="0"
     inkscape:deskcolor="#d1d1d1"
     inkscape:zoom="12.734375"
     inkscape:cx="32"
     inkscape:cy="32"
     inkscape:window-width="1920"
     inkscape:window-height="1017"
     inkscape:window-x="1912"
     inkscape:window-y="-8"
     inkscape:window-maximized="1"
     inkscape:current-layer="svg2" />
  <path
     transform="scale(0.125 0.125)"
     d="M154.245 105.918C143.496 98.3693 147.147 90.0078 146.47 78.7422C145.853 68.4653 147.135 58.5782 159.726 57.2931L185.65 57.2853C195.575 57.2839 208.734 55.2811 210.579 69.2699C211.047 72.818 211.091 94.0138 210.348 96.7779C209.368 100.424 206.655 103.041 203.481 104.867L203.47 133.84C203.485 174.902 205.816 189.049 228.604 223.071C238.4 237.697 244.919 262.018 245.069 279.641L245.085 411.868C245.105 437.971 240.53 453.983 210.771 453.927L198.479 453.892L144.586 454.031C129.984 454.107 116.62 444.948 113.701 429.835C112.531 423.781 113.055 415.153 113.057 408.834L113.061 310.738C113.06 275.579 111.445 250.82 130.78 219.829C132.904 216.424 135.887 213.15 137.885 209.688C152.771 183.89 154.248 162.424 154.252 134.21L154.245 105.918ZM158.686 68.7333C156.641 70.5428 157.608 93.3704 158.434 94.9168C161.357 95.9181 191.752 96.2828 198.479 95.5138C199.722 94.0265 200.537 71.0905 198.737 69.2786C195.682 68.3838 185.065 68.7303 181.326 68.7301L158.686 68.7333ZM165.452 106.783L165.454 137.218C165.466 164.496 162.371 192.992 146.426 216.156C133.135 235.465 125.425 252.739 123.997 276.63L144.031 276.615C148.978 276.615 159.659 274.997 159.669 281.96L159.734 362.376C159.74 369.106 162.571 383.455 153.879 383.78C143.939 384.151 133.939 383.728 123.997 383.883L123.994 409.555C123.995 438.898 127.022 442.878 156.625 442.764L198.826 442.755C205.213 442.757 212.921 443.239 219.077 442.379C235.721 440.055 234.036 421.813 234.034 409.958L234.031 279.641C233.657 252.863 224.922 238.603 211.437 217.812C194.519 191.729 192.245 163.346 192.244 133.293L192.252 106.783C183.439 106.78 174.229 106.634 165.452 106.783ZM126.003 287.635C122.494 287.816 123.995 295.12 123.993 298.754L123.997 372.755L146.484 372.755C150.868 372.681 148.709 352.603 148.707 347.663L148.702 287.635C141.25 287.634 133.421 287.503 126.003 287.635Z"
     id="path1"
     style="fill:#323232;fill-opacity:1;stroke:#323232;stroke-opacity:0.99000001" />
  <path
     transform="scale(0.125 0.125)"
     d="M324.796 381.191C311.024 376.017 300.437 370.696 289.697 360.317C254.4 326.205 262.337 288.733 265.694 245.268L267.021 228.031C267.508 221.661 266.092 213.817 273.965 213.688C280.127 213.587 286.26 213.642 292.404 213.643L328.314 213.655L366.862 213.645C389.821 213.642 392.303 208.173 393.556 229.407L396.91 276.422C397.337 282.092 398.149 290.161 398.161 295.755C398.237 333.763 373.073 370.894 336.053 381.191L336.053 442.764C347.259 442.632 359.014 442.735 370.263 442.772C376.132 442.792 377.196 452.873 370.96 453.673C367.131 454.164 362.333 453.908 358.356 453.908L332.34 453.892L304.275 453.904C299.618 453.904 294.837 454.035 290.218 453.68C284.353 453.229 283.89 443.503 289.376 442.894C293.055 442.486 297.017 442.745 300.742 442.75L324.796 442.764L324.796 381.191ZM374.342 224.528L277.804 224.528C278.374 236.977 275.487 249.308 275.54 261.696C278.261 262.011 298.822 262.065 301.309 261.696C307.999 263.738 316.389 264.862 322.746 267.533C343.603 276.298 363.015 282.667 385.432 273.747L383.378 242.457C383.021 237.007 382.279 229.825 382.563 224.528C379.566 224.365 377.363 224.324 374.342 224.528ZM283.112 272.735L274.488 273.747C274.349 282.368 273.496 290.793 273.741 299.458C274.78 336.213 298.036 359.624 330.491 371.779C341.559 368.446 354.292 361.043 362.693 353.232C385.979 330.71 386.186 314.209 386.763 285.376C345.016 299.635 323.521 270.834 283.112 272.735Z"
     id="path2"
     style="fill:#323232;fill-opacity:1;stroke:#323232;stroke-opacity:1" />
</svg>
