<?xml version="1.0" encoding="UTF-8" standalone="no"?>
<svg
   id="svg"
   width="400"
   height="335.45454545454544"
   viewBox="0, 0, 400,335.45454545454544"
   version="1.1"
   sodipodi:docname="food.svg"
   inkscape:version="1.4.2 (f4327f4, 2025-05-13)"
   xmlns:inkscape="http://www.inkscape.org/namespaces/inkscape"
   xmlns:sodipodi="http://sodipodi.sourceforge.net/DTD/sodipodi-0.dtd"
   xmlns="http://www.w3.org/2000/svg"
   xmlns:svg="http://www.w3.org/2000/svg">
  <defs
     id="defs1" />
  <sodipodi:namedview
     id="namedview1"
     pagecolor="#ffffff"
     bordercolor="#000000"
     borderopacity="0.25"
     inkscape:showpageshadow="2"
     inkscape:pageopacity="0.0"
     inkscape:pagecheckerboard="0"
     inkscape:deskcolor="#d1d1d1"
     inkscape:zoom="2.4295392"
     inkscape:cx="199.83213"
     inkscape:cy="167.72728"
     inkscape:window-width="1920"
     inkscape:window-height="1017"
     inkscape:window-x="1912"
     inkscape:window-y="-8"
     inkscape:window-maximized="1"
     inkscape:current-layer="svg" />
  <g
     id="svgg"
     style="fill:#323232;fill-opacity:1;stroke:#323232;stroke-opacity:1;stroke-width:4.7;stroke-dasharray:none">
    <path
       id="path0"
       d="M48.023 43.526 C 47.141 44.953,44.841 74.846,44.151 93.864 C 43.339 116.196,43.855 118.124,53.401 128.465 L 57.342 132.733 56.623 156.935 C 52.544 294.197,52.678 285.347,54.642 288.688 C 59.963 297.739,71.738 296.014,74.389 285.795 C 74.955 283.614,71.798 158.907,70.651 138.099 L 70.358 132.789 74.294 128.636 C 79.342 123.310,81.989 119.694,83.032 116.704 C 84.728 111.839,84.069 88.204,81.330 55.682 C 80.271 43.106,80.285 43.182,78.889 43.182 C 76.766 43.182,76.740 43.586,77.932 57.779 C 79.879 80.969,80.159 86.244,80.193 100.455 C 80.236 117.737,80.473 117.025,71.512 126.415 C 69.448 128.578,67.628 130.916,67.445 131.642 C 67.090 133.049,67.267 140.197,69.815 227.182 C 71.389 280.917,71.432 283.781,70.696 285.709 C 68.198 292.250,60.945 293.004,57.839 287.045 C 56.557 284.585,56.461 282.898,56.864 269.900 C 57.083 262.830,57.777 239.148,58.407 217.273 C 59.037 195.398,59.866 167.331,60.251 154.903 C 61.060 128.733,61.491 131.588,55.850 125.702 C 45.812 115.227,45.574 112.171,50.281 54.275 C 50.710 49.001,50.930 44.348,50.772 43.934 C 50.482 43.180,48.425 42.875,48.023 43.526 M58.030 43.485 C 57.342 44.173,57.690 95.312,58.387 95.891 C 59.294 96.644,60.754 96.091,61.081 94.871 C 61.576 93.027,61.398 45.004,60.893 44.061 C 60.441 43.216,58.658 42.857,58.030 43.485 M67.597 43.464 C 67.418 43.642,67.273 55.388,67.273 69.566 C 67.273 97.237,67.242 96.868,69.516 96.146 C 70.417 95.860,71.263 49.457,70.452 44.744 C 70.226 43.426,68.436 42.624,67.597 43.464 M341.512 43.845 C 332.224 47.885,326.198 71.910,323.150 117.045 C 322.389 128.328,322.053 169.528,322.690 173.611 C 323.578 179.308,325.917 183.149,329.662 185.060 L 331.456 185.975 331.167 192.874 C 330.607 206.229,328.617 271.237,328.514 279.545 C 328.416 287.411,328.473 288.072,329.392 289.773 C 333.866 298.048,345.074 298.059,348.924 289.791 C 350.311 286.812,350.326 289.175,348.558 232.413 L 347.083 185.053 348.323 184.077 C 351.270 181.759,351.086 187.083,350.746 113.881 C 350.459 52.265,350.381 47.420,349.650 45.930 C 348.354 43.286,344.857 42.390,341.512 43.845 M346.250 46.932 C 346.761 47.572,347.219 87.803,347.359 144.225 L 347.449 180.041 345.542 181.891 L 343.636 183.741 343.652 187.666 C 343.660 189.825,344.349 212.632,345.183 238.348 C 346.037 264.697,346.539 285.812,346.334 286.722 C 344.743 293.778,335.858 294.876,332.724 288.403 L 331.715 286.319 333.321 236.047 C 335.051 181.882,335.094 184.166,332.319 182.751 C 325.947 179.500,325.024 173.234,325.926 139.363 C 327.176 92.452,332.082 60.375,339.592 50.008 C 341.770 47.002,345.086 45.470,346.250 46.932 M189.545 58.036 C 101.340 67.077,59.436 171.264,116.974 238.474 C 173.445 304.438,281.400 281.020,305.410 197.597 C 326.713 123.580,265.808 50.219,189.545 58.036 M217.500 63.107 C 298.895 77.551,333.503 173.799,279.768 236.279 C 239.560 283.031,167.103 284.888,124.205 240.265 C 74.600 188.665,89.580 103.916,153.864 72.472 C 173.124 63.051,197.210 59.507,217.500 63.107 M191.818 92.782 C 144.415 98.229,113.790 146.691,129.404 191.548 C 142.595 229.444,182.802 250.091,221.544 238.864 C 252.577 229.871,274.964 199.943,274.996 167.404 C 275.041 122.924,235.809 87.728,191.818 92.782 M207.045 96.828 C 274.883 104.398,294.606 193.098,236.202 227.951 C 180.282 261.321,112.454 206.342,133.189 144.453 C 143.510 113.645,175.116 93.265,207.045 96.828 "
       stroke="none"
       fill="#000000"
       fill-rule="evenodd"
       style="fill:#323232;fill-opacity:1;stroke:#323232;stroke-opacity:1;stroke-width:4.7;stroke-dasharray:none" />
  </g>
</svg>
