<?xml version="1.0" encoding="UTF-8" standalone="no"?>
<svg
   id="svg"
   width="400"
   height="400"
   viewBox="0, 0, 400,400"
   version="1.1"
   sodipodi:docname="ingredients.svg"
   inkscape:version="1.4.2 (f4327f4, 2025-05-13)"
   xmlns:inkscape="http://www.inkscape.org/namespaces/inkscape"
   xmlns:sodipodi="http://sodipodi.sourceforge.net/DTD/sodipodi-0.dtd"
   xmlns="http://www.w3.org/2000/svg"
   xmlns:svg="http://www.w3.org/2000/svg">
  <defs
     id="defs1" />
  <sodipodi:namedview
     id="namedview1"
     pagecolor="#ffffff"
     bordercolor="#000000"
     borderopacity="0.25"
     inkscape:showpageshadow="2"
     inkscape:pageopacity="0.0"
     inkscape:pagecheckerboard="0"
     inkscape:deskcolor="#d1d1d1"
     inkscape:zoom="2.0375"
     inkscape:cx="200"
     inkscape:cy="200"
     inkscape:window-width="1920"
     inkscape:window-height="1017"
     inkscape:window-x="1912"
     inkscape:window-y="-8"
     inkscape:window-maximized="1"
     inkscape:current-layer="svg" />
  <g
     id="svgg"
     style="fill:#323232;fill-opacity:1">
    <path
       id="path0"
       d="M61.958 8.134 L 59.766 10.019 59.532 30.580 L 59.299 51.141 39.610 77.328 L 19.922 103.516 19.715 176.789 L 19.508 250.062 14.957 254.523 C -1.696 270.847,5.709 294.574,31.281 306.830 C 38.421 310.253,38.342 310.128,34.646 312.119 C 16.661 321.805,11.497 343.577,23.985 357.066 C 41.783 376.290,66.100 370.361,97.689 339.097 L 106.012 330.859 106.861 334.514 C 114.303 366.561,177.442 386.901,288.281 392.959 C 382.134 398.089,407.132 375.286,351.427 335.359 L 345.431 331.062 351.427 326.560 C 389.978 297.617,403.916 243.003,385.422 193.359 C 369.954 151.839,334.152 135.086,298.928 152.887 C 294.391 155.180,294.286 155.088,293.110 147.840 C 292.603 144.718,289.493 134.171,286.199 124.402 C 277.993 100.069,277.527 89.916,283.950 75.394 C 285.043 72.922,285.938 70.493,285.938 69.996 C 285.938 69.179,274.315 62.882,273.833 63.438 C 270.117 67.719,266.219 82.122,265.812 93.072 C 265.357 105.336,266.452 111.204,272.326 127.988 C 278.321 145.116,282.510 164.062,280.301 164.063 C 280.083 164.063,277.306 162.352,274.132 160.262 C 262.416 152.547,249.266 147.326,239.196 146.390 L 233.594 145.869 233.594 124.906 L 233.594 103.942 213.672 77.359 L 193.750 50.776 193.750 30.797 L 193.750 10.817 191.466 8.534 L 189.183 6.250 126.666 6.250 L 64.150 6.250 61.958 8.134 M179.688 33.203 L 179.688 46.094 126.563 46.094 L 73.438 46.094 73.438 33.203 L 73.438 20.313 126.563 20.313 L 179.688 20.313 179.688 33.203 M157.721 80.078 L 142.775 100.000 91.695 100.000 L 40.614 100.000 55.560 80.078 L 70.506 60.156 121.587 60.156 L 172.667 60.156 157.721 80.078 M199.753 82.649 L 212.397 99.609 199.558 99.824 C 192.496 99.941,180.947 99.941,173.893 99.824 L 161.068 99.609 173.698 82.625 C 180.645 73.284,186.504 65.652,186.719 65.665 C 186.934 65.679,192.799 73.321,199.753 82.649 M311.719 86.762 C 295.239 88.970,282.478 102.719,288.246 112.052 C 300.644 132.113,335.320 131.189,345.320 110.532 C 350.852 99.105,329.951 84.319,311.719 86.762 M324.543 102.394 C 331.572 105.699,331.102 108.626,323.043 111.732 C 315.206 114.754,299.208 109.330,303.773 105.199 C 308.789 100.659,318.159 99.394,324.543 102.394 M139.844 133.594 L 139.844 153.125 86.719 153.125 L 33.594 153.125 33.594 133.594 L 33.594 114.063 86.719 114.063 L 139.844 114.063 139.844 133.594 M219.520 130.664 L 219.510 147.266 215.028 148.676 C 187.105 157.467,167.048 194.534,166.861 237.694 L 166.797 252.340 160.352 252.342 L 153.906 252.344 153.906 183.203 L 153.906 114.063 186.719 114.063 L 219.531 114.063 219.520 130.664 M248.047 163.007 C 255.485 165.697,262.465 169.505,270.424 175.215 C 273.637 177.520,276.848 179.630,277.559 179.903 C 278.741 180.356,278.752 180.722,277.686 184.145 C 277.045 186.205,276.310 188.857,276.053 190.039 C 275.796 191.221,275.264 192.188,274.871 192.188 C 273.002 192.188,267.861 188.795,265.435 185.960 L 262.733 182.804 256.774 186.128 C 249.637 190.110,249.641 190.086,255.130 196.014 C 269.351 211.375,294.260 210.320,306.842 193.824 C 309.835 189.900,309.932 190.087,302.744 185.887 L 297.438 182.786 294.720 185.962 C 291.322 189.932,291.110 189.700,292.489 183.513 C 293.101 180.765,293.830 176.864,294.109 174.845 L 294.615 171.175 303.362 166.884 C 333.097 152.300,356.417 162.131,370.796 195.311 C 389.868 239.321,376.206 292.781,339.637 317.241 C 331.291 322.824,332.825 322.797,324.115 317.515 C 284.859 293.711,225.157 266.619,192.675 257.868 L 181.641 254.895 180.988 250.690 C 179.976 244.169,180.992 224.838,182.799 216.245 C 191.837 173.259,217.806 152.070,248.047 163.007 M139.844 211.165 L 139.844 255.143 135.742 257.167 C 133.486 258.280,130.046 260.602,128.097 262.327 L 124.554 265.463 122.800 256.883 C 115.999 223.607,103.554 203.441,87.482 199.653 C 59.756 193.118,42.521 214.559,53.841 241.503 L 56.118 246.921 53.254 246.367 C 51.679 246.062,46.612 245.788,41.993 245.758 L 33.595 245.703 33.594 206.445 L 33.594 167.188 86.719 167.188 L 139.844 167.188 139.844 211.165 M83.685 213.374 C 95.458 215.899,105.915 238.673,111.723 274.442 L 113.345 284.431 110.025 296.193 C 106.189 309.787,104.699 311.967,87.897 328.569 C 61.896 354.260,45.312 359.897,34.136 346.841 C 25.791 337.091,36.302 324.097,58.398 316.846 C 69.717 313.131,67.319 305.075,53.516 300.440 C 30.252 292.629,19.040 283.349,20.639 273.230 C 22.711 260.119,37.310 256.544,62.727 262.924 C 80.195 267.309,84.826 262.133,75.046 249.155 C 58.054 226.604,62.352 208.799,83.685 213.374 M171.933 267.670 C 178.880 268.862,198.313 273.834,199.101 274.621 C 199.300 274.821,195.841 287.557,191.413 302.922 C 186.984 318.288,183.326 331.159,183.282 331.526 C 183.219 332.055,194.324 335.844,196.158 335.919 C 196.408 335.929,200.246 323.369,204.687 308.008 C 209.128 292.646,212.869 279.940,213.002 279.772 C 213.747 278.824,253.583 296.310,274.219 306.643 C 297.463 318.282,321.094 331.780,321.094 333.417 C 321.094 334.013,319.649 339.414,317.883 345.419 C 316.117 351.425,314.798 356.436,314.953 356.555 C 315.616 357.067,328.181 360.354,328.404 360.074 C 328.538 359.905,329.863 355.443,331.347 350.161 L 334.046 340.556 340.265 344.995 C 354.277 354.994,364.970 365.426,365.751 369.858 C 367.159 377.839,319.566 381.851,271.484 377.804 C 252.190 376.181,254.064 377.117,256.135 370.130 C 257.060 367.008,258.493 362.084,259.320 359.187 L 260.823 353.922 254.395 351.961 C 250.859 350.882,247.771 350.000,247.531 350.000 C 247.292 350.000,245.581 355.307,243.728 361.794 C 239.686 375.950,241.557 374.990,223.111 372.368 C 176.859 365.795,146.509 357.017,131.524 345.877 C 117.954 335.791,116.327 322.179,125.430 294.922 C 133.746 270.023,145.500 263.135,171.933 267.670 "
       stroke="none"
       fill="#000000"
       fill-rule="evenodd"
       style="fill:#323232;fill-opacity:1" />
  </g>
</svg>
