<?xml version="1.0" encoding="UTF-8" standalone="no"?>
<svg
   id="svg"
   version="1.1"
   width="400"
   height="474.1463414634146"
   viewBox="0, 0, 400,474.1463414634146"
   sodipodi:docname="orders.svg"
   inkscape:version="1.4.2 (f4327f4, 2025-05-13)"
   xmlns:inkscape="http://www.inkscape.org/namespaces/inkscape"
   xmlns:sodipodi="http://sodipodi.sourceforge.net/DTD/sodipodi-0.dtd"
   xmlns="http://www.w3.org/2000/svg"
   xmlns:svg="http://www.w3.org/2000/svg">
  <defs
     id="defs1" />
  <sodipodi:namedview
     id="namedview1"
     pagecolor="#ffffff"
     bordercolor="#000000"
     borderopacity="0.25"
     inkscape:showpageshadow="2"
     inkscape:pageopacity="0.0"
     inkscape:pagecheckerboard="0"
     inkscape:deskcolor="#d1d1d1"
     inkscape:zoom="1.7188786"
     inkscape:cx="199.83959"
     inkscape:cy="237.07317"
     inkscape:window-width="1920"
     inkscape:window-height="1017"
     inkscape:window-x="1912"
     inkscape:window-y="-8"
     inkscape:window-maximized="1"
     inkscape:current-layer="svg" />
  <g
     id="svgg"
     style="stroke:#323232;stroke-opacity:1;fill:#000000;fill-opacity:0">
    <path
       id="path0"
       d="M 39.2,20.036 C 21.493,22.316 7.381,37.181 5.607,55.422 5.049,61.161 5.068,426.549 5.627,430 c 0.41,2.535 1.085,4.362 3.804,10.298 4.779,10.433 13.911,17.867 26.072,21.226 L 39.4,462.6 h 160.4 160.4 l 3.8,-0.964 c 16.628,-4.218 27.687,-16.436 30.164,-33.324 0.895,-6.105 0.519,-370.777 -0.389,-376.372 C 391.168,35.866 378.245,23.094 361.648,20.187 357.854,19.523 44.328,19.376 39.2,20.036 m 319.754,28.85 c 2.326,0.688 5.535,3.971 6.387,6.535 0.613,1.848 0.655,15.62 0.561,186.387 L 365.8,426.2 l -1.08,2.048 c -1.226,2.324 -2.961,3.941 -5.382,5.017 -1.609,0.715 -6.78,0.736 -159.8,0.637 L 41.4,433.8 39.529,432.7 c -2.32,-1.364 -4.118,-3.502 -4.918,-5.849 C 34.066,425.252 34,405.04 34.004,240.829 L 34.008,56.6 34.946,54.585 c 1.057,-2.27 3.961,-5.048 5.94,-5.682 2.031,-0.651 315.865,-0.667 318.068,-0.017 M 69.737,86.168 c -12.856,3.119 -13.835,21.293 -1.418,26.31 L 70.6,113.4 h 98.6 98.6 l 2.281,-0.922 c 12.401,-5.01 11.401,-22.956 -1.465,-26.265 C 265.378,85.38 73.164,85.337 69.737,86.168 M 73.2,136.15 c -15.099,4.156 -14.151,25.009 1.267,27.859 1.43,0.265 27.143,0.367 74.558,0.297 l 72.375,-0.106 2.38,-0.959 c 12.721,-5.124 11.65,-23.629 -1.564,-27.028 -3.217,-0.827 -146.02,-0.888 -149.016,-0.063 m -3,56.412 c -12.751,3.151 -14.441,20.504 -2.6,26.697 l 1.8,0.941 h 55.6 55.6 l 2.014,-1.063 c 11.964,-6.316 9.766,-23.911 -3.334,-26.688 -3.175,-0.673 -106.332,-0.566 -109.08,0.113 m 244.953,9.19 c -2.611,0.933 -4.091,2.124 -9.624,7.746 -8.847,8.989 -9.237,7.729 7.603,24.57 16.812,16.811 16.355,16.635 23.67,9.15 6.858,-7.018 8.586,-12.77 6.041,-20.111 -1.197,-3.451 -2.49,-5.04 -10.705,-13.146 -9.038,-8.918 -11.572,-10.143 -16.985,-8.209 m -32.593,31.007 c -0.858,0.638 -25.262,24.893 -54.231,53.9 l -52.67,52.741 -1.865,6 c -1.025,3.3 -2.741,8.79 -3.813,12.2 -5.691,18.109 -6.049,19.389 -5.846,20.948 0.371,2.852 3.93,5.42 6.641,4.792 2.703,-0.627 36.725,-11.472 37.424,-11.93 3.217,-2.106 107.385,-106.936 107.626,-108.31 0.634,-3.615 0.751,-3.46 -13.155,-17.429 -15.446,-15.515 -16.07,-15.915 -20.111,-12.912 M 68.907,248.378 c -11.718,4.242 -12.709,20.047 -1.632,26.053 L 69.8,275.8 h 35.4 35.4 l 2.271,-1.115 c 10.849,-5.328 10.859,-20.731 0.017,-25.813 L 140.6,247.8 105.8,247.71 c -33.275,-0.086 -34.892,-0.057 -36.893,0.668"
       stroke="none"
       fill="#050505"
       fill-rule="evenodd"
       style="display:inline;opacity:1;fill:#323232;fill-opacity:1;stroke:#323232;stroke-opacity:1" />
    <path
       id="path1"
       d="M 0,237 V 474 H 200 400 V 237 0 H 200 0 V 237 M 363.5,19.994 c 14.42,3.044 25.699,13.533 30.113,28.006 l 0.915,3 0.333,112.2 c 0.491,165.69 0.287,264.587 -0.555,268.2 -3.731,16.005 -16.556,28.653 -31.385,30.954 -3.782,0.587 -321.383,0.624 -325.434,0.038 C 23.805,460.413 12.88,450.81 6.537,435.187 L 5,431.4 4.883,245.4 C 4.801,116.196 4.895,58.024 5.191,54.895 6.817,37.676 19.412,23.619 36.408,20.052 42.324,18.811 357.63,18.754 363.5,19.994 M 40.198,49.937 c -2.425,1.147 -4.041,2.898 -4.976,5.389 -0.57,1.522 -0.592,369.446 -0.021,371.5 0.555,1.999 3,4.704 5.167,5.718 l 1.832,0.856 156.989,0.103 c 177.057,0.115 159.845,0.443 163.284,-3.11 1.078,-1.113 2.057,-2.584 2.305,-3.464 0.693,-2.458 0.58,-369.659 -0.115,-371.676 -0.834,-2.422 -2.619,-4.324 -5.101,-5.438 L 357.3,48.8 H 199.95 L 42.6,48.801 40.198,49.937 M 271.2,86.539 c 12.374,6.409 10.568,23.686 -2.805,26.838 -3.94,0.928 -194.45,0.928 -198.39,0 C 55.641,109.991 55.129,89.757 69.303,85.645 70.1,85.414 108.849,85.294 169.8,85.334 l 99.2,0.066 2.2,1.139 m -48.373,49.299 c 13.202,3.874 14.13,22.668 1.373,27.797 l -2.4,0.965 H 147.6 73.4 l -2.299,-0.928 c -12.718,-5.136 -12.187,-23.543 0.8,-27.694 3.322,-1.062 147.329,-1.196 150.926,-0.14 m -39.872,57.339 c 11.346,5.759 10.728,21.701 -1.038,26.744 L 179.4,221 l -53.578,0.106 c -58.017,0.114 -55.286,0.204 -59.526,-1.959 -9.378,-4.784 -9.818,-19.257 -0.762,-25.05 4.071,-2.604 0.327,-2.456 60.087,-2.373 l 54.621,0.076 2.713,1.377 m 141.473,8.909 c 2.957,1.746 16.795,16.103 18.132,18.813 3.683,7.464 2.03,14.975 -4.867,22.12 -4.699,4.868 -5.486,5.381 -8.254,5.381 -2.764,0 -1.9,0.73 -17.283,-14.598 -16.322,-16.264 -16.106,-15.44 -6.597,-25.133 7.037,-7.174 8.343,-7.914 13.669,-7.741 2.856,0.093 3.724,0.286 5.2,1.158 M 289,231.838 c 0.66,0.278 6.907,6.237 13.881,13.241 14.68,14.74 15.092,15.343 13.076,19.107 -0.676,1.26 -65.149,66.012 -101.357,101.794 l -6.4,6.324 -4.8,1.464 c -2.64,0.805 -8.13,2.527 -12.2,3.828 -4.07,1.301 -9.56,3.009 -12.2,3.795 -2.64,0.786 -5.479,1.695 -6.308,2.019 -3.222,1.26 -6.707,0.187 -8.331,-2.566 -1.44,-2.441 -1.24,-3.715 2.237,-14.244 0.727,-2.2 1.803,-5.62 2.392,-7.6 0.588,-1.98 2.245,-7.29 3.681,-11.8 l 2.612,-8.2 53.258,-53.303 C 288.981,225.207 283.938,229.7 289,231.838 m -147.38,15.905 c 13.346,4.773 13.075,24.143 -0.393,28.03 -3.19,0.921 -68.764,0.941 -71.793,0.022 -13.618,-4.131 -14.076,-23.076 -0.678,-28.007 2.07,-0.762 70.74,-0.805 72.864,-0.045"
       stroke="none"
       fill="#f3f3f3"
       fill-rule="evenodd"
       style="display:inline;fill:#000000;fill-opacity:0;stroke:#323232;stroke-opacity:1" />
  </g>
</svg>
