<?xml version="1.0" encoding="UTF-8" standalone="no"?>
<!-- Svg Vector Icons : http://www.onlinewebfonts.com/icon -->

<svg
   version="1.1"
   x="0px"
   y="0px"
   viewBox="0 0 256 256"
   enable-background="new 0 0 256 256"
   xml:space="preserve"
   id="svg2"
   sodipodi:docname="supplier.svg"
   inkscape:version="1.4.2 (f4327f4, 2025-05-13)"
   xmlns:inkscape="http://www.inkscape.org/namespaces/inkscape"
   xmlns:sodipodi="http://sodipodi.sourceforge.net/DTD/sodipodi-0.dtd"
   xmlns="http://www.w3.org/2000/svg"
   xmlns:svg="http://www.w3.org/2000/svg"><defs
   id="defs2" /><sodipodi:namedview
   id="namedview2"
   pagecolor="#ffffff"
   bordercolor="#000000"
   borderopacity="0.25"
   inkscape:showpageshadow="2"
   inkscape:pageopacity="0.0"
   inkscape:pagecheckerboard="0"
   inkscape:deskcolor="#d1d1d1"
   inkscape:zoom="3.1835938"
   inkscape:cx="127.84294"
   inkscape:cy="128"
   inkscape:window-width="1920"
   inkscape:window-height="1017"
   inkscape:window-x="1912"
   inkscape:window-y="-8"
   inkscape:window-maximized="1"
   inkscape:current-layer="g2" />
<metadata
   id="metadata1"> Svg Vector Icons : http://www.onlinewebfonts.com/icon </metadata>
<g
   id="g2"><path
     fill="#000000"
     d="m 196.8,78.2 h 8.5 c 0.6,0 2.3,0.8 2.7,1.3 l 37.3,46.5 c 0.2,0.3 0.7,1.7 0.7,2.1 V 185 c 0,2.9 -1.2,5.5 -3.1,7.5 -2,1.9 -4.6,3.1 -7.5,3.1 h -12.9 c -1.6,13.1 -12.5,23.2 -25.6,24.1 v -6.8 c 10.6,-1 19,-9.9 19,-20.7 0,-10.8 -8.4,-19.7 -19,-20.6 v -6.8 c 13.1,0.9 23.9,11 25.6,24 h 12.9 c 1.1,0 2,-0.4 2.7,-1.1 0.7,-0.7 1.1,-1.6 1.1,-2.7 V 143.8 H 196.8 V 137 h 42.4 v -7.7 l -19,-23.6 h -23.4 v -6.8 h 18 L 203.7,85 h -6.8 V 78.2 Z M 20.288957,55.971779 140.8,56.6 c 3.79995,0.01981 7.2,1.5 9.7,4 v 0 c 2.5,2.5 4,5.9 4,9.6 v 8 h 42.4 V 85 h -42.4 v 103.8 h 13 c 1.7,-13.7 13.5,-24.1 27.5,-24.1 h 1.9 v 6.8 c -0.6,-0.1 -1.3,-0.1 -1.9,-0.1 -11.4,0 -20.9,9.4 -20.9,20.7 0,11.4 9.4,20.7 20.9,20.7 0.6,0 1.2,0 1.9,-0.1 v 6.8 H 195 c -13.9,0 -25.8,-10.5 -27.5,-24.2 h -69 c -1,8 -5.4,14.9 -11.7,19.2 v -9 c 3.2,-3.6 5.1,-8.4 5.1,-13.5 0,-5.2 -1.9,-9.9 -5.1,-13.5 v -9 c 6.3,4.3 10.7,11.2 11.7,19.1 h 49.2 V 70.2 c 0,-1.9 -0.8,-3.6 -2,-4.8 v 0 c -1.2,-1.3 -2.90003,-1.989729 -4.8,-2 L 24.688957,62.771779 c -4.837602,0.04217 -4.229447,-4.302454 -4.4,-6.8 z M 196.8,98.9 h -8 c -6,0 -11,4.9 -11,10.9 V 133 c 0,5.9 4.9,10.8 10.9,10.8 h 8.1 V 137 h -8.1 c -2.2,0 -4,-1.8 -4,-4 v -23.2 c 0,-2.3 1.9,-4.1 4.2,-4.1 h 8 z m -110,115.9 c -4.5,3.1 -9.9,5 -15.8,5 -6.6,0 -12.7,-2.3 -17.5,-6.2 v -10 c 3.7,5.7 10.2,9.4 17.5,9.4 6.3,0 11.9,-2.8 15.8,-7.2 z m 0,-45.1 v 9 c -3.8,-4.4 -9.5,-7.2 -15.8,-7.2 -7.3,0 -13.7,3.8 -17.5,9.5 v -10 c 4.8,-3.9 10.9,-6.2 17.5,-6.2 5.8,-0.1 11.2,1.8 15.8,4.9 z m -33.3,43.8 c -5.4,-4.4 -9.1,-10.7 -10,-18 H 32.7 C 25.2,195.5 19,189.4 19,181.9 v -65.4 c -0.04601,-8.61411 0.32331,-44.585276 0.32331,-55.285276 0,-8.760123 6.800003,-0.942331 6.800003,-0.942331 C 26.123313,72.572393 25.8,181.9 25.8,181.9 c 0,3.8 3.1,6.8 6.9,6.8 h 10.8 c 0.9,-7.2 4.6,-13.5 10,-17.9 V 181 c -2.1,3.2 -3.4,7.1 -3.4,11.3 0,4.2 1.2,8.1 3.4,11.3 z"
     id="path1"
     sodipodi:nodetypes="csccsscscccscccsssccccccccccccccssssccccccsccsssccsccccsccccsssscccssssccsssscccsccsccccsccccccsscsssscccscc"
     style="fill:#323232;fill-opacity:1" /></g>
</svg>
