<?xml version="1.0" encoding="UTF-8" standalone="no"?>
<!-- Created with Inkscape (http://www.inkscape.org/) -->

<svg
   width="210mm"
   height="100mm"
   viewBox="0 0 210 100"
   version="1.1"
   id="svg1"
   xml:space="preserve"
   inkscape:version="1.4.2 (f4327f4, 2025-05-13)"
   sodipodi:docname="caupolight.svg"
   xmlns:inkscape="http://www.inkscape.org/namespaces/inkscape"
   xmlns:sodipodi="http://sodipodi.sourceforge.net/DTD/sodipodi-0.dtd"
   xmlns="http://www.w3.org/2000/svg"
   xmlns:svg="http://www.w3.org/2000/svg"><sodipodi:namedview
     id="namedview1"
     pagecolor="#ffffff"
     bordercolor="#000000"
     borderopacity="0.25"
     inkscape:showpageshadow="2"
     inkscape:pageopacity="0.0"
     inkscape:pagecheckerboard="0"
     inkscape:deskcolor="#d1d1d1"
     inkscape:document-units="mm"
     inkscape:zoom="0.72604517"
     inkscape:cx="396.66953"
     inkscape:cy="561.25984"
     inkscape:window-width="1920"
     inkscape:window-height="1017"
     inkscape:window-x="1912"
     inkscape:window-y="-8"
     inkscape:window-maximized="1"
     inkscape:current-layer="layer1" /><defs
     id="defs1" /><g
     inkscape:label="Layer 1"
     inkscape:groupmode="layer"
     id="layer1"><path
       style="fill:#d2d2d2;fill-opacity:1;stroke:#d2d2d2;stroke-width:0.139941;stroke-dasharray:none;stroke-opacity:1"
       d="m 8.0252764,65.50115 c -0.7076,-0.311862 -1.4477303,-1.085325 -1.8245203,-1.906694 -0.49098,-1.0703 -0.48825,-29.859701 0.003,-30.920601 0.9494403,-2.050682 1.3482203,-2.147265 8.8659499,-2.147265 8.86395,0 8.88821,0.01648 8.98723,6.098228 l 0.0559,3.435628 1.1846,0.44969 1.1846,0.44969 0.23779,-0.363802 c 0.13078,-0.20009 0.51829,-0.802715 0.86114,-1.339166 l 0.62336,-0.975355 -0.59488,-0.367658 c -0.57725,-0.356767 -0.58677,-0.380035 -0.32117,-0.785391 0.37046,-0.565392 0.42173,-0.553188 2.24515,0.53495 1.72512,1.029464 1.74681,1.056727 1.28987,1.621018 l -0.30658,0.378616 -0.64554,-0.380882 c -0.35505,-0.209482 -0.67037,-0.351973 -0.70069,-0.31664 -0.26177,0.304982 -1.47623,2.374866 -1.47623,2.516062 0,0.09984 0.40584,0.475949 0.90186,0.835798 0.49601,0.359857 1.34025,1.068123 1.87609,1.573928 1.13056,1.067235 1.11803,1.069004 2.5154,-0.356237 l 0.91292,-0.931127 -0.43318,-0.514805 -0.43318,-0.514805 0.48419,-0.357973 0.48419,-0.357974 1.22628,1.514961 c 1.35894,1.678877 1.39108,1.760827 0.8415,2.145753 -0.36625,0.256538 -0.40967,0.240779 -0.90184,-0.327279 l -0.51709,-0.596796 -1.17252,1.103938 -1.17253,1.103938 0.52064,0.650285 c 0.48728,0.60865 2.16265,3.29692 2.28681,3.669413 0.0314,0.09425 0.60944,-0.03571 1.31131,-0.294832 1.34139,-0.495239 1.28069,-0.397872 0.9618,-1.542973 -0.158,-0.56734 0.90694,-0.910419 1.11368,-0.35878 0.62798,1.675665 1.09401,3.405887 0.95289,3.53778 -0.49781,0.465262 -0.90485,0.38032 -1.10659,-0.230923 -0.23376,-0.708324 -0.35699,-0.727401 -1.62767,-0.251981 -1.09398,0.409311 -1.07063,0.323374 -0.58773,2.163656 0.40174,1.531005 0.47056,1.592924 1.78376,1.604615 2.45078,0.02185 3.52202,1.66121 3.52055,5.387716 -0.001,3.377491 -0.46599,4.53831 -2.13335,5.329522 -0.79619,0.377808 -30.4240396,0.410729 -31.2771296,0.03473 z M 39.032016,64.254109 c 1.77847,-1.050562 1.7783,-6.730011 -2.1e-4,-7.970661 -0.39819,-0.277759 -1.57671,-0.306897 -16.19038,-0.400203 l -15.7609096,-0.100636 0.001,3.56236 c 0.001,3.919502 0.0561,4.153865 1.13971,4.868271 0.71587,0.471964 30.0151196,0.510827 30.8106996,0.04093 z m -3.77943,-9.645804 c 0,-4.235644 -5.64799,-11.14516 -10.6499,-13.028635 -1.77982,-0.670194 -1.67918,-0.393886 -1.70122,-4.671215 -0.0282,-5.465988 0.40612,-5.179611 -7.85344,-5.178755 -8.9134199,8.15e-4 -7.9660596,-1.47483 -7.9668996,12.410544 l -6.3e-4,10.607479 H 21.166546 c 7.74733,0 14.08606,-0.06269 14.08606,-0.139418 z m -9.87733,-3.566974 c -0.59597,-0.310746 -0.82474,-0.640291 -0.94488,-1.361145 -0.0947,-0.568344 0.17945,-0.411854 -5.37081,-3.065336 l -2.81861,-1.34753 -0.78816,0.555544 c -2.9194,2.057786 -6.5083896,-1.309148 -4.54999,-4.268484 1.76374,-2.665205 5.79741,-1.343266 5.79741,1.89996 v 0.742321 l 4.07425,1.936336 c 3.51745,1.671711 4.12894,1.911423 4.4744,1.754028 1.50609,-0.68623 3.03088,0.558854 2.59917,2.12238 -0.30164,1.092467 -1.4431,1.568808 -2.47278,1.031926 z"
       id="path1" /><text
       xml:space="preserve"
       style="font-style:normal;font-variant:normal;font-weight:300;font-stretch:normal;font-size:48.8039px;font-family:'Segoe UI';-inkscape-font-specification:'Segoe UI Light';text-align:start;writing-mode:lr-tb;direction:ltr;text-anchor:start;fill:#d2d2d2;fill-opacity:1;fill-rule:evenodd;stroke:#d2d2d2;stroke-width:0.591563;stroke-linejoin:round;stroke-opacity:1"
       x="52.449986"
       y="65.03804"
       id="text1"><tspan
         sodipodi:role="line"
         id="tspan1"
         x="52.449986"
         y="65.03804"
         style="font-style:normal;font-variant:normal;font-weight:300;font-stretch:normal;font-size:48.8039px;font-family:'Segoe UI';-inkscape-font-specification:'Segoe UI Light';fill:#d2d2d2;fill-opacity:1;stroke:#d2d2d2;stroke-width:0.591563;stroke-opacity:1">CAUPO</tspan></text></g></svg>
