<?xml version="1.0" encoding="UTF-8" standalone="no"?>
<!-- Generator: visioncortex VTracer 0.6.4 -->

<svg
   version="1.1"
   width="260"
   height="280"
   id="svg28"
   sodipodi:docname="tablegreen.svg"
   inkscape:version="1.4.2 (f4327f4, 2025-05-13)"
   xmlns:inkscape="http://www.inkscape.org/namespaces/inkscape"
   xmlns:sodipodi="http://sodipodi.sourceforge.net/DTD/sodipodi-0.dtd"
   xmlns="http://www.w3.org/2000/svg"
   xmlns:svg="http://www.w3.org/2000/svg">
  <defs
     id="defs28" />
  <sodipodi:namedview
     id="namedview28"
     pagecolor="#ffffff"
     bordercolor="#000000"
     borderopacity="0.25"
     inkscape:showpageshadow="2"
     inkscape:pageopacity="0.0"
     inkscape:pagecheckerboard="0"
     inkscape:deskcolor="#d1d1d1"
     inkscape:zoom="2.9107143"
     inkscape:cx="130.03681"
     inkscape:cy="140"
     inkscape:window-width="1920"
     inkscape:window-height="1017"
     inkscape:window-x="1912"
     inkscape:window-y="-8"
     inkscape:window-maximized="1"
     inkscape:current-layer="svg28" />
  <path
     d="M0 0 C0.87 0.14 1.73 0.29 2.62 0.44 C3.85 4.76 3.31 7.66 2.11 11.96 C1.77 13.23 1.42 14.5 1.06 15.81 C0.69 17.14 0.31 18.48 -0.06 19.81 C-0.42 21.11 -0.78 22.4 -1.13 23.7 C-1.84 26.29 -2.56 28.88 -3.28 31.48 C-4.76 36.81 -6.16 42.16 -7.55 47.51 C-8.38 50.44 -8.38 50.44 -9.38 52.44 C-11.35 52.44 -13.34 52.44 -15.38 52.44 C-15.28 53.58 -15.28 53.58 -15.19 54.75 C-12.99 82.84 -12.99 82.84 -13.38 96.44 C-15.03 96.44 -16.68 96.44 -18.38 96.44 C-19.68 84.74 -20.65 73.1 -21.03 61.34 C-21.06 60.45 -21.1 59.56 -21.13 58.64 C-21.15 57.86 -21.18 57.07 -21.2 56.25 C-21.18 54.42 -21.18 54.42 -22.38 53.44 C-24.22 53.34 -26.06 53.31 -27.91 53.3 C-29.59 53.3 -29.59 53.3 -31.3 53.3 C-33.07 53.31 -33.07 53.31 -34.88 53.31 C-36.05 53.31 -37.23 53.3 -38.45 53.3 C-39.57 53.3 -40.69 53.3 -41.84 53.3 C-43.4 53.31 -43.4 53.31 -44.98 53.31 C-47.33 53.17 -47.33 53.17 -48.38 54.44 C-48.68 57.54 -48.92 60.62 -49.13 63.72 C-49.19 64.65 -49.26 65.58 -49.33 66.54 C-49.53 69.53 -49.74 72.51 -49.94 75.5 C-50.08 77.52 -50.22 79.54 -50.36 81.56 C-50.7 86.52 -51.04 91.48 -51.38 96.44 C-53.35 96.44 -55.34 96.44 -57.38 96.44 C-57.77 82.04 -56.56 67.78 -55.38 53.44 C-56.18 53.29 -56.98 53.15 -57.81 53 C-60.38 52.44 -60.38 52.44 -61.38 51.44 C-61.51 49.62 -61.51 49.62 -61.5 47.44 C-61.5 46.72 -61.51 45.99 -61.51 45.25 C-61.38 43.44 -61.38 43.44 -60.38 42.44 C-57.44 42.32 -54.53 42.27 -51.6 42.27 C-50.72 42.27 -49.83 42.26 -48.93 42.26 C-47.06 42.25 -45.19 42.25 -43.32 42.25 C-40.45 42.25 -37.59 42.23 -34.72 42.21 C-32.91 42.21 -31.1 42.21 -29.29 42.21 C-28.42 42.2 -27.56 42.19 -26.67 42.19 C-20.6 42.21 -20.6 42.21 -18.38 44.44 C-16.31 45.08 -16.31 45.08 -14.38 45.44 C-13.69 38.87 -13.37 32.48 -13.56 25.88 C-13.61 16.56 -11.44 8.54 -4.97 1.61 C-3.38 0.44 -3.38 0.44 0 0 Z "
     fill="#1F1F1F"
     transform="translate(216.375,81.5625)"
     id="path2"
     style="fill:#42be42;fill-opacity:1" />
  <path
     d="M0 0 C4.84 1.55 6.88 4.71 9.31 9.06 C12.28 15.12 12.67 20.39 12.44 27.06 C12.28 33.2 12.4 38.99 13.31 45.06 C16.56 43.97 16.56 43.97 19.31 42.06 C22.26 41.96 25.18 41.92 28.12 41.93 C29.01 41.93 29.89 41.93 30.8 41.93 C32.68 41.93 34.55 41.93 36.42 41.93 C39.3 41.94 42.18 41.93 45.05 41.93 C46.87 41.93 48.68 41.93 50.5 41.93 C51.37 41.93 52.23 41.93 53.13 41.92 C59.2 41.95 59.2 41.95 60.31 43.06 C60.59 48.8 60.59 48.8 60.31 51.06 C59.65 51.72 58.99 52.38 58.31 53.06 C56.99 53.06 55.67 53.06 54.31 53.06 C54.37 54.01 54.43 54.96 54.5 55.93 C54.72 59.49 54.95 63.05 55.17 66.61 C55.26 68.14 55.36 69.68 55.46 71.21 C55.99 79.5 56.44 87.75 56.31 96.06 C54.66 96.06 53.01 96.06 51.31 96.06 C51 92.75 50.68 89.44 50.38 86.12 C50.28 85.13 50.19 84.14 50.09 83.12 C49.46 76.2 48.97 69.29 48.74 62.34 C48.58 58.71 48.05 56.24 46.31 53.06 C42.17 53.03 38.02 53.02 33.88 53 C32.69 52.99 31.51 52.98 30.29 52.97 C29.16 52.97 28.04 52.97 26.88 52.96 C25.84 52.96 24.79 52.95 23.72 52.95 C21.36 52.79 21.36 52.79 20.31 54.06 C20.09 56.82 19.93 59.57 19.81 62.33 C19.77 63.16 19.73 64 19.69 64.85 C19.56 67.53 19.44 70.2 19.31 72.88 C19.19 75.54 19.07 78.2 18.94 80.86 C18.85 82.52 18.78 84.18 18.71 85.84 C18.53 89.38 18.25 92.65 17.31 96.06 C15.66 96.06 14.01 96.06 12.31 96.06 C12.22 86.09 12.2 76.15 12.75 66.19 C12.79 65.46 12.83 64.73 12.87 63.98 C13.11 59.95 13.57 56.03 14.31 52.06 C13.53 52.1 12.75 52.15 11.94 52.19 C9.31 52.06 9.31 52.06 7.31 50.06 C6.5 47.59 5.79 45.14 5.12 42.62 C4.81 41.47 4.81 41.47 4.5 40.29 C4.03 38.55 3.57 36.8 3.11 35.06 C2.22 31.7 1.31 28.35 0.39 25 C-0.26 22.57 -0.91 20.13 -1.56 17.69 C-1.89 16.5 -2.21 15.32 -2.54 14.1 C-2.83 12.99 -3.13 11.87 -3.43 10.73 C-3.7 9.73 -3.96 8.74 -4.24 7.71 C-4.69 5.05 -4.63 3.56 -3.69 1.06 C-2.69 0.06 -2.69 0.06 0 0 Z "
     fill="#1E1E1E"
     transform="translate(44.6875,81.9375)"
     id="path3"
     style="fill:#42be42;fill-opacity:1" />
  <path
     d="M0 0 C0.72 -0 1.44 -0.01 2.18 -0.01 C4.56 -0.02 6.94 -0.01 9.32 -0.01 C10.98 -0.01 12.63 -0.01 14.28 -0.01 C17.74 -0.02 21.21 -0.01 24.67 -0 C29.11 0.01 33.56 0 38.01 -0.01 C41.42 -0.02 44.83 -0.01 48.24 -0.01 C49.88 -0.01 51.52 -0.01 53.16 -0.01 C55.45 -0.02 57.73 -0.01 60.02 0 C61.98 0 61.98 0 63.98 0 C67.01 0.26 67.01 0.26 69.01 2.26 C69.01 4.24 69.01 6.22 69.01 8.26 C57.13 8.26 45.25 8.26 33.01 8.26 C33.01 28.39 33.01 48.52 33.01 69.26 C36.64 69.26 40.27 69.26 44.01 69.26 C47.01 73.26 47.01 73.26 47.01 75.26 C36.12 75.26 25.23 75.26 14.01 75.26 C15.01 70.26 15.01 70.26 16.01 69.26 C19.64 69.26 23.27 69.26 27.01 69.26 C27.01 49.13 27.01 29 27.01 8.26 C15.13 8.26 3.25 8.26 -8.99 8.26 C-8.99 -0.14 -7.62 0.01 0 0 Z "
     fill="#1A1A1A"
     transform="translate(99.98828125,102.7412109375)"
     id="path4"
     style="fill:#42be42;fill-opacity:1" />
</svg>
