<?xml version="1.0" encoding="UTF-8" standalone="no"?>
<svg
   id="svg"
   version="1.1"
   width="400"
   height="400"
   viewBox="0, 0, 400,400"
   sodipodi:docname="another.svg"
   inkscape:version="1.4.2 (f4327f4, 2025-05-13)"
   xmlns:inkscape="http://www.inkscape.org/namespaces/inkscape"
   xmlns:sodipodi="http://sodipodi.sourceforge.net/DTD/sodipodi-0.dtd"
   xmlns="http://www.w3.org/2000/svg"
   xmlns:svg="http://www.w3.org/2000/svg">
  <defs
     id="defs1" />
  <sodipodi:namedview
     id="namedview1"
     pagecolor="#ffffff"
     bordercolor="#000000"
     borderopacity="0.25"
     inkscape:showpageshadow="2"
     inkscape:pageopacity="0.0"
     inkscape:pagecheckerboard="0"
     inkscape:deskcolor="#d1d1d1"
     inkscape:zoom="2.0375"
     inkscape:cx="200"
     inkscape:cy="200"
     inkscape:window-width="1920"
     inkscape:window-height="1017"
     inkscape:window-x="1912"
     inkscape:window-y="-8"
     inkscape:window-maximized="1"
     inkscape:current-layer="svg" />
  <g
     id="svgg"
     style="fill:#dedede;fill-opacity:1">
    <path
       id="path0"
       d="M179.003 0.275 C 177.025 0.362,175.234 0.606,175.023 0.817 C 174.812 1.028,173.416 1.200,171.920 1.200 C 170.373 1.200,169.200 1.373,169.200 1.600 C 169.200 1.822,168.133 2.000,166.800 2.000 C 165.467 2.000,164.400 2.178,164.400 2.400 C 164.400 2.620,163.511 2.800,162.424 2.800 C 161.337 2.800,160.336 2.980,160.200 3.200 C 160.064 3.420,159.243 3.600,158.376 3.600 C 157.509 3.600,156.800 3.780,156.800 4.000 C 156.800 4.220,156.001 4.400,155.024 4.400 C 154.047 4.400,153.136 4.580,153.000 4.800 C 152.864 5.020,152.043 5.200,151.176 5.200 C 150.309 5.200,149.600 5.380,149.600 5.600 C 149.600 5.820,149.071 6.000,148.424 6.000 C 147.777 6.000,147.136 6.180,147.000 6.400 C 146.864 6.620,146.133 6.800,145.376 6.800 C 144.619 6.800,144.000 6.980,144.000 7.200 C 144.000 7.420,143.460 7.600,142.800 7.600 C 142.140 7.600,141.600 7.780,141.600 8.000 C 141.600 8.220,141.064 8.400,140.408 8.400 C 139.224 8.400,133.632 10.062,132.305 10.809 C 131.923 11.024,131.248 11.200,130.805 11.200 C 130.362 11.200,130.000 11.380,130.000 11.600 C 130.000 11.820,129.645 12.000,129.212 12.000 C 128.779 12.000,127.783 12.360,127.000 12.800 C 126.217 13.240,125.221 13.600,124.788 13.600 C 124.355 13.600,124.000 13.780,124.000 14.000 C 124.000 14.220,123.651 14.400,123.224 14.400 C 122.797 14.400,122.336 14.580,122.200 14.800 C 122.064 15.020,121.513 15.200,120.976 15.200 C 120.439 15.200,120.000 15.380,120.000 15.600 C 120.000 15.820,119.640 16.000,119.200 16.000 C 118.760 16.000,118.400 16.180,118.400 16.400 C 118.400 16.620,118.040 16.800,117.600 16.800 C 117.160 16.800,116.800 16.980,116.800 17.200 C 116.800 17.420,116.440 17.600,116.000 17.600 C 115.560 17.600,115.200 17.780,115.200 18.000 C 115.200 18.220,114.750 18.400,114.200 18.400 C 113.650 18.400,113.200 18.580,113.200 18.800 C 113.200 19.020,112.840 19.200,112.400 19.200 C 111.960 19.200,111.600 19.380,111.600 19.600 C 111.600 19.820,111.240 20.000,110.800 20.000 C 110.360 20.000,110.000 20.159,110.000 20.353 C 110.000 20.548,109.685 20.807,109.300 20.929 C 108.364 21.225,106.234 22.524,106.067 22.900 C 105.993 23.065,105.588 23.200,105.167 23.200 C 104.745 23.200,104.400 23.380,104.400 23.600 C 104.400 23.820,104.040 24.000,103.600 24.000 C 103.160 24.000,102.800 24.180,102.800 24.400 C 102.800 24.620,102.558 24.800,102.261 24.800 C 101.701 24.800,99.149 25.960,98.800 26.374 C 98.690 26.504,97.745 27.042,96.700 27.568 C 95.655 28.095,94.800 28.677,94.800 28.863 C 94.800 29.048,94.564 29.200,94.275 29.200 C 93.987 29.200,93.364 29.560,92.892 30.000 C 92.420 30.440,91.846 30.800,91.617 30.800 C 91.388 30.800,91.200 30.980,91.200 31.200 C 91.200 31.420,90.964 31.600,90.675 31.600 C 90.387 31.600,89.764 31.960,89.292 32.400 C 88.820 32.840,88.244 33.200,88.013 33.200 C 87.782 33.200,87.028 33.740,86.337 34.400 C 85.646 35.060,84.878 35.600,84.629 35.600 C 84.380 35.600,83.917 35.960,83.600 36.400 C 83.283 36.840,82.791 37.200,82.508 37.200 C 82.225 37.200,81.428 37.740,80.737 38.400 C 80.046 39.060,79.310 39.600,79.101 39.600 C 78.892 39.600,78.217 40.140,77.600 40.800 C 76.983 41.460,76.319 42.000,76.123 42.000 C 75.927 42.000,75.099 42.630,74.282 43.400 C 73.466 44.170,72.634 44.800,72.434 44.800 C 72.234 44.800,70.973 45.880,69.632 47.200 C 68.292 48.520,67.026 49.600,66.820 49.600 C 66.614 49.600,64.680 51.390,62.522 53.579 C 57.759 58.410,58.410 57.759,53.579 62.522 C 51.390 64.680,49.600 66.614,49.600 66.820 C 49.600 67.026,48.520 68.292,47.200 69.632 C 45.880 70.973,44.800 72.234,44.800 72.434 C 44.800 72.634,44.170 73.466,43.400 74.282 C 42.630 75.099,42.000 75.927,42.000 76.123 C 42.000 76.319,41.460 76.983,40.800 77.600 C 40.140 78.217,39.600 78.892,39.600 79.101 C 39.600 79.310,39.060 80.046,38.400 80.737 C 37.740 81.428,37.200 82.225,37.200 82.508 C 37.200 82.791,36.840 83.283,36.400 83.600 C 35.960 83.917,35.600 84.380,35.600 84.629 C 35.600 84.878,35.060 85.646,34.400 86.337 C 33.740 87.028,33.200 87.782,33.200 88.013 C 33.200 88.244,32.840 88.820,32.400 89.292 C 31.960 89.764,31.600 90.387,31.600 90.675 C 31.600 90.964,31.420 91.200,31.200 91.200 C 30.980 91.200,30.800 91.388,30.800 91.617 C 30.800 91.846,30.440 92.420,30.000 92.892 C 29.560 93.364,29.200 93.987,29.200 94.275 C 29.200 94.564,29.048 94.800,28.863 94.800 C 28.677 94.800,28.095 95.655,27.568 96.700 C 27.042 97.745,26.504 98.690,26.374 98.800 C 25.960 99.149,24.800 101.701,24.800 102.261 C 24.800 102.558,24.620 102.800,24.400 102.800 C 24.180 102.800,24.000 103.160,24.000 103.600 C 24.000 104.040,23.820 104.400,23.600 104.400 C 23.380 104.400,23.200 104.745,23.200 105.167 C 23.200 105.588,23.065 105.993,22.900 106.067 C 22.524 106.234,21.225 108.364,20.929 109.300 C 20.807 109.685,20.548 110.000,20.353 110.000 C 20.159 110.000,20.000 110.360,20.000 110.800 C 20.000 111.240,19.820 111.600,19.600 111.600 C 19.380 111.600,19.200 111.960,19.200 112.400 C 19.200 112.840,19.020 113.200,18.800 113.200 C 18.580 113.200,18.400 113.650,18.400 114.200 C 18.400 114.750,18.220 115.200,18.000 115.200 C 17.780 115.200,17.600 115.560,17.600 116.000 C 17.600 116.440,17.420 116.800,17.200 116.800 C 16.980 116.800,16.800 117.160,16.800 117.600 C 16.800 118.040,16.620 118.400,16.400 118.400 C 16.180 118.400,16.000 118.760,16.000 119.200 C 16.000 119.640,15.820 120.000,15.600 120.000 C 15.380 120.000,15.200 120.439,15.200 120.976 C 15.200 121.513,15.020 122.064,14.800 122.200 C 14.580 122.336,14.400 122.797,14.400 123.224 C 14.400 123.651,14.220 124.000,14.000 124.000 C 13.780 124.000,13.600 124.355,13.600 124.788 C 13.600 125.221,13.240 126.217,12.800 127.000 C 12.360 127.783,12.000 128.779,12.000 129.212 C 12.000 129.645,11.820 130.000,11.600 130.000 C 11.380 130.000,11.200 130.362,11.200 130.805 C 11.200 131.248,11.024 131.923,10.809 132.305 C 10.062 133.632,8.400 139.224,8.400 140.408 C 8.400 141.064,8.220 141.600,8.000 141.600 C 7.780 141.600,7.600 142.140,7.600 142.800 C 7.600 143.460,7.420 144.000,7.200 144.000 C 6.980 144.000,6.800 144.619,6.800 145.376 C 6.800 146.133,6.620 146.864,6.400 147.000 C 6.180 147.136,6.000 147.777,6.000 148.424 C 6.000 149.071,5.820 149.600,5.600 149.600 C 5.380 149.600,5.200 150.309,5.200 151.176 C 5.200 152.043,5.020 152.864,4.800 153.000 C 4.580 153.136,4.400 154.047,4.400 155.024 C 4.400 156.001,4.220 156.800,4.000 156.800 C 3.780 156.800,3.600 157.509,3.600 158.376 C 3.600 159.243,3.420 160.064,3.200 160.200 C 2.980 160.336,2.800 161.337,2.800 162.424 C 2.800 163.511,2.620 164.400,2.400 164.400 C 2.178 164.400,2.000 165.467,2.000 166.800 C 2.000 168.133,1.822 169.200,1.600 169.200 C 1.373 169.200,1.200 170.373,1.200 171.920 C 1.200 173.563,1.002 174.838,0.700 175.140 C -0.029 175.869,-0.029 224.131,0.700 224.860 C 1.002 225.162,1.200 226.437,1.200 228.080 C 1.200 229.627,1.373 230.800,1.600 230.800 C 1.822 230.800,2.000 231.867,2.000 233.200 C 2.000 234.533,2.178 235.600,2.400 235.600 C 2.620 235.600,2.800 236.489,2.800 237.576 C 2.800 238.663,2.980 239.664,3.200 239.800 C 3.420 239.936,3.600 240.757,3.600 241.624 C 3.600 242.491,3.780 243.200,4.000 243.200 C 4.220 243.200,4.400 243.999,4.400 244.976 C 4.400 245.953,4.580 246.864,4.800 247.000 C 5.020 247.136,5.200 247.957,5.200 248.824 C 5.200 249.691,5.380 250.400,5.600 250.400 C 5.820 250.400,6.000 250.929,6.000 251.576 C 6.000 252.223,6.180 252.864,6.400 253.000 C 6.620 253.136,6.800 253.867,6.800 254.624 C 6.800 255.381,6.980 256.000,7.200 256.000 C 7.420 256.000,7.600 256.540,7.600 257.200 C 7.600 257.860,7.780 258.400,8.000 258.400 C 8.220 258.400,8.400 258.936,8.400 259.592 C 8.400 260.776,10.062 266.368,10.809 267.695 C 11.024 268.077,11.200 268.752,11.200 269.195 C 11.200 269.638,11.380 270.000,11.600 270.000 C 11.820 270.000,12.000 270.355,12.000 270.788 C 12.000 271.221,12.360 272.217,12.800 273.000 C 13.240 273.783,13.600 274.779,13.600 275.212 C 13.600 275.645,13.780 276.000,14.000 276.000 C 14.220 276.000,14.400 276.349,14.400 276.776 C 14.400 277.203,14.580 277.664,14.800 277.800 C 15.020 277.936,15.200 278.487,15.200 279.024 C 15.200 279.561,15.380 280.000,15.600 280.000 C 15.820 280.000,16.000 280.360,16.000 280.800 C 16.000 281.240,16.180 281.600,16.400 281.600 C 16.620 281.600,16.800 281.960,16.800 282.400 C 16.800 282.840,16.980 283.200,17.200 283.200 C 17.420 283.200,17.600 283.560,17.600 284.000 C 17.600 284.440,17.780 284.800,18.000 284.800 C 18.220 284.800,18.400 285.250,18.400 285.800 C 18.400 286.350,18.580 286.800,18.800 286.800 C 19.020 286.800,19.200 287.160,19.200 287.600 C 19.200 288.040,19.380 288.400,19.600 288.400 C 19.820 288.400,20.000 288.745,20.000 289.167 C 20.000 289.588,20.135 289.993,20.300 290.067 C 20.676 290.234,21.975 292.364,22.271 293.300 C 22.393 293.685,22.652 294.000,22.847 294.000 C 23.041 294.000,23.200 294.360,23.200 294.800 C 23.200 295.240,23.380 295.600,23.600 295.600 C 23.820 295.600,24.000 295.960,24.000 296.400 C 24.000 296.840,24.180 297.200,24.400 297.200 C 24.620 297.200,24.800 297.442,24.800 297.739 C 24.800 298.299,25.960 300.851,26.374 301.200 C 26.504 301.310,27.042 302.255,27.568 303.300 C 28.095 304.345,28.677 305.200,28.863 305.200 C 29.048 305.200,29.200 305.436,29.200 305.725 C 29.200 306.013,29.560 306.636,30.000 307.108 C 30.440 307.580,30.800 308.154,30.800 308.383 C 30.800 308.612,30.980 308.800,31.200 308.800 C 31.420 308.800,31.600 309.036,31.600 309.325 C 31.600 309.613,31.960 310.236,32.400 310.708 C 32.840 311.180,33.200 311.756,33.200 311.987 C 33.200 312.218,33.740 312.972,34.400 313.663 C 35.060 314.354,35.600 315.122,35.600 315.371 C 35.600 315.620,35.960 316.083,36.400 316.400 C 36.840 316.717,37.200 317.209,37.200 317.492 C 37.200 317.775,37.740 318.572,38.400 319.263 C 39.060 319.954,39.600 320.690,39.600 320.899 C 39.600 321.108,40.140 321.783,40.800 322.400 C 41.460 323.017,42.000 323.681,42.000 323.877 C 42.000 324.073,42.630 324.901,43.400 325.718 C 44.170 326.534,44.800 327.366,44.800 327.566 C 44.800 327.766,45.880 329.027,47.200 330.368 C 48.520 331.708,49.600 332.974,49.600 333.180 C 49.600 333.386,51.390 335.320,53.579 337.478 C 58.410 342.241,57.759 341.590,62.522 346.421 C 64.680 348.610,66.614 350.400,66.820 350.400 C 67.026 350.400,68.292 351.480,69.632 352.800 C 70.973 354.120,72.234 355.200,72.434 355.200 C 72.634 355.200,73.466 355.830,74.282 356.600 C 75.099 357.370,75.927 358.000,76.123 358.000 C 76.319 358.000,76.983 358.540,77.600 359.200 C 78.217 359.860,78.892 360.400,79.101 360.400 C 79.310 360.400,80.046 360.940,80.737 361.600 C 81.428 362.260,82.225 362.800,82.508 362.800 C 82.791 362.800,83.283 363.160,83.600 363.600 C 83.917 364.040,84.380 364.400,84.629 364.400 C 84.878 364.400,85.646 364.940,86.337 365.600 C 87.028 366.260,87.782 366.800,88.013 366.800 C 88.244 366.800,88.820 367.160,89.292 367.600 C 89.764 368.040,90.387 368.400,90.675 368.400 C 90.964 368.400,91.200 368.580,91.200 368.800 C 91.200 369.020,91.388 369.200,91.617 369.200 C 91.846 369.200,92.420 369.560,92.892 370.000 C 93.364 370.440,93.987 370.800,94.275 370.800 C 94.564 370.800,94.800 370.952,94.800 371.137 C 94.800 371.323,95.655 371.905,96.700 372.432 C 97.745 372.958,98.690 373.496,98.800 373.626 C 99.149 374.040,101.701 375.200,102.261 375.200 C 102.558 375.200,102.800 375.380,102.800 375.600 C 102.800 375.820,103.160 376.000,103.600 376.000 C 104.040 376.000,104.400 376.180,104.400 376.400 C 104.400 376.620,104.745 376.800,105.167 376.800 C 105.588 376.800,105.993 376.935,106.067 377.100 C 106.234 377.476,108.364 378.775,109.300 379.071 C 109.685 379.193,110.000 379.452,110.000 379.647 C 110.000 379.841,110.360 380.000,110.800 380.000 C 111.240 380.000,111.600 380.180,111.600 380.400 C 111.600 380.620,111.960 380.800,112.400 380.800 C 112.840 380.800,113.200 380.980,113.200 381.200 C 113.200 381.420,113.650 381.600,114.200 381.600 C 114.750 381.600,115.200 381.780,115.200 382.000 C 115.200 382.220,115.560 382.400,116.000 382.400 C 116.440 382.400,116.800 382.580,116.800 382.800 C 116.800 383.020,117.160 383.200,117.600 383.200 C 118.040 383.200,118.400 383.380,118.400 383.600 C 118.400 383.820,118.760 384.000,119.200 384.000 C 119.640 384.000,120.000 384.180,120.000 384.400 C 120.000 384.620,120.439 384.800,120.976 384.800 C 121.513 384.800,122.064 384.980,122.200 385.200 C 122.336 385.420,122.797 385.600,123.224 385.600 C 123.651 385.600,124.000 385.780,124.000 386.000 C 124.000 386.220,124.355 386.400,124.788 386.400 C 125.221 386.400,126.217 386.760,127.000 387.200 C 127.783 387.640,128.779 388.000,129.212 388.000 C 129.645 388.000,130.000 388.180,130.000 388.400 C 130.000 388.620,130.362 388.800,130.805 388.800 C 131.248 388.800,131.923 388.976,132.305 389.191 C 133.632 389.938,139.224 391.600,140.408 391.600 C 141.064 391.600,141.600 391.780,141.600 392.000 C 141.600 392.220,142.140 392.400,142.800 392.400 C 143.460 392.400,144.000 392.580,144.000 392.800 C 144.000 393.020,144.619 393.200,145.376 393.200 C 146.133 393.200,146.864 393.380,147.000 393.600 C 147.136 393.820,147.777 394.000,148.424 394.000 C 149.071 394.000,149.600 394.180,149.600 394.400 C 149.600 394.620,150.309 394.800,151.176 394.800 C 152.043 394.800,152.864 394.980,153.000 395.200 C 153.136 395.420,154.047 395.600,155.024 395.600 C 156.001 395.600,156.800 395.780,156.800 396.000 C 156.800 396.220,157.509 396.400,158.376 396.400 C 159.243 396.400,160.064 396.580,160.200 396.800 C 160.336 397.020,161.337 397.200,162.424 397.200 C 163.511 397.200,164.400 397.380,164.400 397.600 C 164.400 397.822,165.467 398.000,166.800 398.000 C 168.133 398.000,169.200 398.178,169.200 398.400 C 169.200 398.627,170.373 398.800,171.920 398.800 C 173.563 398.800,174.838 398.998,175.140 399.300 C 175.529 399.689,181.045 399.800,200.000 399.800 C 218.955 399.800,224.471 399.689,224.860 399.300 C 225.162 398.998,226.437 398.800,228.080 398.800 C 229.627 398.800,230.800 398.627,230.800 398.400 C 230.800 398.178,231.867 398.000,233.200 398.000 C 234.533 398.000,235.600 397.822,235.600 397.600 C 235.600 397.380,236.489 397.200,237.576 397.200 C 238.663 397.200,239.664 397.020,239.800 396.800 C 239.936 396.580,240.757 396.400,241.624 396.400 C 242.491 396.400,243.200 396.220,243.200 396.000 C 243.200 395.780,243.999 395.600,244.976 395.600 C 245.953 395.600,246.864 395.420,247.000 395.200 C 247.136 394.980,247.957 394.800,248.824 394.800 C 249.691 394.800,250.400 394.620,250.400 394.400 C 250.400 394.180,250.929 394.000,251.576 394.000 C 252.223 394.000,252.864 393.820,253.000 393.600 C 253.136 393.380,253.867 393.200,254.624 393.200 C 255.381 393.200,256.000 393.020,256.000 392.800 C 256.000 392.580,256.540 392.400,257.200 392.400 C 257.860 392.400,258.400 392.220,258.400 392.000 C 258.400 391.780,258.936 391.600,259.592 391.600 C 260.776 391.600,266.368 389.938,267.695 389.191 C 268.077 388.976,268.752 388.800,269.195 388.800 C 269.638 388.800,270.000 388.620,270.000 388.400 C 270.000 388.180,270.355 388.000,270.788 388.000 C 271.221 388.000,272.217 387.640,273.000 387.200 C 273.783 386.760,274.779 386.400,275.212 386.400 C 275.645 386.400,276.000 386.220,276.000 386.000 C 276.000 385.780,276.349 385.600,276.776 385.600 C 277.203 385.600,277.664 385.420,277.800 385.200 C 277.936 384.980,278.487 384.800,279.024 384.800 C 279.561 384.800,280.000 384.620,280.000 384.400 C 280.000 384.180,280.360 384.000,280.800 384.000 C 281.240 384.000,281.600 383.820,281.600 383.600 C 281.600 383.380,281.960 383.200,282.400 383.200 C 282.840 383.200,283.200 383.020,283.200 382.800 C 283.200 382.580,283.560 382.400,284.000 382.400 C 284.440 382.400,284.800 382.220,284.800 382.000 C 284.800 381.780,285.250 381.600,285.800 381.600 C 286.350 381.600,286.800 381.420,286.800 381.200 C 286.800 380.980,287.160 380.800,287.600 380.800 C 288.040 380.800,288.400 380.620,288.400 380.400 C 288.400 380.180,288.745 380.000,289.167 380.000 C 289.588 380.000,289.993 379.865,290.067 379.700 C 290.234 379.324,292.364 378.025,293.300 377.729 C 293.685 377.607,294.000 377.348,294.000 377.153 C 294.000 376.959,294.360 376.800,294.800 376.800 C 295.240 376.800,295.600 376.620,295.600 376.400 C 295.600 376.180,295.960 376.000,296.400 376.000 C 296.840 376.000,297.200 375.820,297.200 375.600 C 297.200 375.380,297.442 375.200,297.739 375.200 C 298.299 375.200,300.851 374.040,301.200 373.626 C 301.310 373.496,302.255 372.958,303.300 372.432 C 304.345 371.905,305.200 371.323,305.200 371.137 C 305.200 370.952,305.436 370.800,305.725 370.800 C 306.013 370.800,306.636 370.440,307.108 370.000 C 307.580 369.560,308.154 369.200,308.383 369.200 C 308.612 369.200,308.800 369.020,308.800 368.800 C 308.800 368.580,309.036 368.400,309.325 368.400 C 309.613 368.400,310.236 368.040,310.708 367.600 C 311.180 367.160,311.756 366.800,311.987 366.800 C 312.218 366.800,312.972 366.260,313.663 365.600 C 314.354 364.940,315.122 364.400,315.371 364.400 C 315.620 364.400,316.083 364.040,316.400 363.600 C 316.717 363.160,317.209 362.800,317.492 362.800 C 317.775 362.800,318.572 362.260,319.263 361.600 C 319.954 360.940,320.690 360.400,320.899 360.400 C 321.108 360.400,321.783 359.860,322.400 359.200 C 323.017 358.540,323.681 358.000,323.877 358.000 C 324.073 358.000,324.901 357.370,325.718 356.600 C 326.534 355.830,327.366 355.200,327.566 355.200 C 327.766 355.200,329.027 354.120,330.368 352.800 C 331.708 351.480,332.974 350.400,333.180 350.400 C 333.386 350.400,335.320 348.610,337.478 346.421 C 342.241 341.590,341.590 342.241,346.421 337.478 C 348.610 335.320,350.400 333.386,350.400 333.180 C 350.400 332.974,351.480 331.708,352.800 330.368 C 354.120 329.027,355.200 327.766,355.200 327.566 C 355.200 327.366,355.830 326.534,356.600 325.718 C 357.370 324.901,358.000 324.073,358.000 323.877 C 358.000 323.681,358.540 323.017,359.200 322.400 C 359.860 321.783,360.400 321.108,360.400 320.899 C 360.400 320.690,360.940 319.954,361.600 319.263 C 362.260 318.572,362.800 317.775,362.800 317.492 C 362.800 317.209,363.160 316.717,363.600 316.400 C 364.040 316.083,364.400 315.620,364.400 315.371 C 364.400 315.122,364.940 314.354,365.600 313.663 C 366.260 312.972,366.800 312.218,366.800 311.987 C 366.800 311.756,367.160 311.180,367.600 310.708 C 368.040 310.236,368.400 309.613,368.400 309.325 C 368.400 309.036,368.580 308.800,368.800 308.800 C 369.020 308.800,369.200 308.612,369.200 308.383 C 369.200 308.154,369.560 307.580,370.000 307.108 C 370.440 306.636,370.800 306.013,370.800 305.725 C 370.800 305.436,370.952 305.200,371.137 305.200 C 371.323 305.200,371.905 304.345,372.432 303.300 C 372.958 302.255,373.496 301.310,373.626 301.200 C 374.040 300.851,375.200 298.299,375.200 297.739 C 375.200 297.442,375.380 297.200,375.600 297.200 C 375.820 297.200,376.000 296.840,376.000 296.400 C 376.000 295.960,376.180 295.600,376.400 295.600 C 376.620 295.600,376.800 295.255,376.800 294.833 C 376.800 294.412,376.935 294.007,377.100 293.933 C 377.476 293.766,378.775 291.636,379.071 290.700 C 379.193 290.315,379.452 290.000,379.647 290.000 C 379.841 290.000,380.000 289.640,380.000 289.200 C 380.000 288.760,380.180 288.400,380.400 288.400 C 380.620 288.400,380.800 288.040,380.800 287.600 C 380.800 287.160,380.980 286.800,381.200 286.800 C 381.420 286.800,381.600 286.350,381.600 285.800 C 381.600 285.250,381.780 284.800,382.000 284.800 C 382.220 284.800,382.400 284.440,382.400 284.000 C 382.400 283.560,382.580 283.200,382.800 283.200 C 383.020 283.200,383.200 282.840,383.200 282.400 C 383.200 281.960,383.380 281.600,383.600 281.600 C 383.820 281.600,384.000 281.240,384.000 280.800 C 384.000 280.360,384.180 280.000,384.400 280.000 C 384.620 280.000,384.800 279.561,384.800 279.024 C 384.800 278.487,384.980 277.936,385.200 277.800 C 385.420 277.664,385.600 277.203,385.600 276.776 C 385.600 276.349,385.780 276.000,386.000 276.000 C 386.220 276.000,386.400 275.645,386.400 275.212 C 386.400 274.779,386.760 273.783,387.200 273.000 C 387.640 272.217,388.000 271.221,388.000 270.788 C 388.000 270.355,388.180 270.000,388.400 270.000 C 388.620 270.000,388.800 269.638,388.800 269.195 C 388.800 268.752,388.976 268.077,389.191 267.695 C 389.938 266.368,391.600 260.776,391.600 259.592 C 391.600 258.936,391.780 258.400,392.000 258.400 C 392.220 258.400,392.400 257.860,392.400 257.200 C 392.400 256.540,392.580 256.000,392.800 256.000 C 393.020 256.000,393.200 255.381,393.200 254.624 C 393.200 253.867,393.380 253.136,393.600 253.000 C 393.820 252.864,394.000 252.223,394.000 251.576 C 394.000 250.929,394.180 250.400,394.400 250.400 C 394.620 250.400,394.800 249.691,394.800 248.824 C 394.800 247.957,394.980 247.136,395.200 247.000 C 395.420 246.864,395.600 245.953,395.600 244.976 C 395.600 243.999,395.780 243.200,396.000 243.200 C 396.220 243.200,396.400 242.491,396.400 241.624 C 396.400 240.757,396.580 239.936,396.800 239.800 C 397.020 239.664,397.200 238.663,397.200 237.576 C 397.200 236.489,397.380 235.600,397.600 235.600 C 397.822 235.600,398.000 234.533,398.000 233.200 C 398.000 231.867,398.178 230.800,398.400 230.800 C 398.627 230.800,398.800 229.627,398.800 228.080 C 398.800 226.437,398.998 225.162,399.300 224.860 C 400.029 224.131,400.029 175.869,399.300 175.140 C 398.998 174.838,398.800 173.563,398.800 171.920 C 398.800 170.373,398.627 169.200,398.400 169.200 C 398.178 169.200,398.000 168.133,398.000 166.800 C 398.000 165.467,397.822 164.400,397.600 164.400 C 397.380 164.400,397.200 163.511,397.200 162.424 C 397.200 161.337,397.020 160.336,396.800 160.200 C 396.580 160.064,396.400 159.243,396.400 158.376 C 396.400 157.509,396.220 156.800,396.000 156.800 C 395.780 156.800,395.600 156.001,395.600 155.024 C 395.600 154.047,395.420 153.136,395.200 153.000 C 394.980 152.864,394.800 152.043,394.800 151.176 C 394.800 150.309,394.620 149.600,394.400 149.600 C 394.180 149.600,394.000 149.071,394.000 148.424 C 394.000 147.777,393.820 147.136,393.600 147.000 C 393.380 146.864,393.200 146.133,393.200 145.376 C 393.200 144.619,393.020 144.000,392.800 144.000 C 392.580 144.000,392.400 143.460,392.400 142.800 C 392.400 142.140,392.220 141.600,392.000 141.600 C 391.780 141.600,391.600 141.064,391.600 140.408 C 391.600 139.224,389.938 133.632,389.191 132.305 C 388.976 131.923,388.800 131.248,388.800 130.805 C 388.800 130.362,388.620 130.000,388.400 130.000 C 388.180 130.000,388.000 129.645,388.000 129.212 C 388.000 128.779,387.640 127.783,387.200 127.000 C 386.760 126.217,386.400 125.221,386.400 124.788 C 386.400 124.355,386.220 124.000,386.000 124.000 C 385.780 124.000,385.600 123.651,385.600 123.224 C 385.600 122.797,385.420 122.336,385.200 122.200 C 384.980 122.064,384.800 121.513,384.800 120.976 C 384.800 120.439,384.620 120.000,384.400 120.000 C 384.180 120.000,384.000 119.640,384.000 119.200 C 384.000 118.760,383.820 118.400,383.600 118.400 C 383.380 118.400,383.200 118.040,383.200 117.600 C 383.200 117.160,383.020 116.800,382.800 116.800 C 382.580 116.800,382.400 116.440,382.400 116.000 C 382.400 115.560,382.220 115.200,382.000 115.200 C 381.780 115.200,381.600 114.750,381.600 114.200 C 381.600 113.650,381.420 113.200,381.200 113.200 C 380.980 113.200,380.800 112.840,380.800 112.400 C 380.800 111.960,380.620 111.600,380.400 111.600 C 380.180 111.600,380.000 111.255,380.000 110.833 C 380.000 110.412,379.865 110.007,379.700 109.933 C 379.324 109.766,378.025 107.636,377.729 106.700 C 377.607 106.315,377.348 106.000,377.153 106.000 C 376.959 106.000,376.800 105.640,376.800 105.200 C 376.800 104.760,376.620 104.400,376.400 104.400 C 376.180 104.400,376.000 104.040,376.000 103.600 C 376.000 103.160,375.820 102.800,375.600 102.800 C 375.380 102.800,375.200 102.558,375.200 102.261 C 375.200 101.701,374.040 99.149,373.626 98.800 C 373.496 98.690,372.958 97.745,372.432 96.700 C 371.905 95.655,371.323 94.800,371.137 94.800 C 370.952 94.800,370.800 94.564,370.800 94.275 C 370.800 93.987,370.440 93.364,370.000 92.892 C 369.560 92.420,369.200 91.846,369.200 91.617 C 369.200 91.388,369.020 91.200,368.800 91.200 C 368.580 91.200,368.400 90.964,368.400 90.675 C 368.400 90.387,368.040 89.764,367.600 89.292 C 367.160 88.820,366.800 88.244,366.800 88.013 C 366.800 87.782,366.260 87.028,365.600 86.337 C 364.940 85.646,364.400 84.878,364.400 84.629 C 364.400 84.380,364.040 83.917,363.600 83.600 C 363.160 83.283,362.800 82.791,362.800 82.508 C 362.800 82.225,362.260 81.428,361.600 80.737 C 360.940 80.046,360.400 79.310,360.400 79.101 C 360.400 78.892,359.860 78.217,359.200 77.600 C 358.540 76.983,358.000 76.319,358.000 76.123 C 358.000 75.927,357.370 75.099,356.600 74.282 C 355.830 73.466,355.200 72.634,355.200 72.434 C 355.200 72.234,354.120 70.973,352.800 69.632 C 351.480 68.292,350.400 67.026,350.400 66.820 C 350.400 66.614,348.610 64.680,346.421 62.522 C 341.590 57.759,342.241 58.410,337.478 53.579 C 335.320 51.390,333.386 49.600,333.180 49.600 C 332.974 49.600,331.708 48.520,330.368 47.200 C 329.027 45.880,327.766 44.800,327.566 44.800 C 327.366 44.800,326.534 44.170,325.718 43.400 C 324.901 42.630,324.073 42.000,323.877 42.000 C 323.681 42.000,323.017 41.460,322.400 40.800 C 321.783 40.140,321.108 39.600,320.899 39.600 C 320.690 39.600,319.954 39.060,319.263 38.400 C 318.572 37.740,317.775 37.200,317.492 37.200 C 317.209 37.200,316.717 36.840,316.400 36.400 C 316.083 35.960,315.620 35.600,315.371 35.600 C 315.122 35.600,314.354 35.060,313.663 34.400 C 312.972 33.740,312.218 33.200,311.987 33.200 C 311.756 33.200,311.180 32.840,310.708 32.400 C 310.236 31.960,309.613 31.600,309.325 31.600 C 309.036 31.600,308.800 31.420,308.800 31.200 C 308.800 30.980,308.612 30.800,308.383 30.800 C 308.154 30.800,307.580 30.440,307.108 30.000 C 306.636 29.560,306.013 29.200,305.725 29.200 C 305.436 29.200,305.200 29.048,305.200 28.863 C 305.200 28.677,304.345 28.095,303.300 27.568 C 302.255 27.042,301.310 26.504,301.200 26.374 C 300.851 25.960,298.299 24.800,297.739 24.800 C 297.442 24.800,297.200 24.620,297.200 24.400 C 297.200 24.180,296.840 24.000,296.400 24.000 C 295.960 24.000,295.600 23.820,295.600 23.600 C 295.600 23.380,295.255 23.200,294.833 23.200 C 294.412 23.200,294.007 23.065,293.933 22.900 C 293.766 22.524,291.636 21.225,290.700 20.929 C 290.315 20.807,290.000 20.548,290.000 20.353 C 290.000 20.159,289.640 20.000,289.200 20.000 C 288.760 20.000,288.400 19.820,288.400 19.600 C 288.400 19.380,288.040 19.200,287.600 19.200 C 287.160 19.200,286.800 19.020,286.800 18.800 C 286.800 18.580,286.350 18.400,285.800 18.400 C 285.250 18.400,284.800 18.220,284.800 18.000 C 284.800 17.780,284.440 17.600,284.000 17.600 C 283.560 17.600,283.200 17.420,283.200 17.200 C 283.200 16.980,282.840 16.800,282.400 16.800 C 281.960 16.800,281.600 16.620,281.600 16.400 C 281.600 16.180,281.240 16.000,280.800 16.000 C 280.360 16.000,280.000 15.820,280.000 15.600 C 280.000 15.380,279.561 15.200,279.024 15.200 C 278.487 15.200,277.936 15.020,277.800 14.800 C 277.664 14.580,277.203 14.400,276.776 14.400 C 276.349 14.400,276.000 14.220,276.000 14.000 C 276.000 13.780,275.645 13.600,275.212 13.600 C 274.779 13.600,273.783 13.240,273.000 12.800 C 272.217 12.360,271.221 12.000,270.788 12.000 C 270.355 12.000,270.000 11.820,270.000 11.600 C 270.000 11.380,269.638 11.200,269.195 11.200 C 268.752 11.200,268.077 11.024,267.695 10.809 C 266.368 10.062,260.776 8.400,259.592 8.400 C 258.936 8.400,258.400 8.220,258.400 8.000 C 258.400 7.780,257.860 7.600,257.200 7.600 C 256.540 7.600,256.000 7.420,256.000 7.200 C 256.000 6.980,255.381 6.800,254.624 6.800 C 253.867 6.800,253.136 6.620,253.000 6.400 C 252.864 6.180,252.223 6.000,251.576 6.000 C 250.929 6.000,250.400 5.820,250.400 5.600 C 250.400 5.380,249.691 5.200,248.824 5.200 C 247.957 5.200,247.136 5.020,247.000 4.800 C 246.864 4.580,245.953 4.400,244.976 4.400 C 243.999 4.400,243.200 4.220,243.200 4.000 C 243.200 3.780,242.491 3.600,241.624 3.600 C 240.757 3.600,239.936 3.420,239.800 3.200 C 239.664 2.980,238.663 2.800,237.576 2.800 C 236.489 2.800,235.600 2.620,235.600 2.400 C 235.600 2.178,234.533 2.000,233.200 2.000 C 231.867 2.000,230.800 1.822,230.800 1.600 C 230.800 1.373,229.627 1.200,228.080 1.200 C 226.483 1.200,225.160 1.000,224.875 0.715 C 224.394 0.234,187.860 -0.116,179.003 0.275 M210.200 37.600 C 210.338 37.823,212.196 38.000,214.400 38.000 C 216.604 38.000,218.462 38.177,218.600 38.400 C 218.736 38.620,220.187 38.800,221.824 38.800 C 223.461 38.800,224.800 38.963,224.800 39.163 C 224.800 39.363,225.745 39.622,226.900 39.739 C 228.055 39.856,229.990 40.141,231.200 40.372 C 232.410 40.604,234.795 41.010,236.500 41.276 C 238.205 41.541,239.600 41.903,239.600 42.079 C 239.600 42.256,240.219 42.400,240.976 42.400 C 241.733 42.400,242.464 42.580,242.600 42.800 C 242.736 43.020,243.366 43.200,244.000 43.200 C 244.634 43.200,245.264 43.380,245.400 43.600 C 245.536 43.820,246.177 44.000,246.824 44.000 C 247.471 44.000,248.000 44.180,248.000 44.400 C 248.000 44.620,248.540 44.800,249.200 44.800 C 249.860 44.800,250.400 44.980,250.400 45.200 C 250.400 45.420,250.940 45.600,251.600 45.600 C 252.260 45.600,252.800 45.780,252.800 46.000 C 252.800 46.220,253.340 46.400,254.000 46.400 C 254.660 46.400,255.200 46.580,255.200 46.800 C 255.200 47.020,255.549 47.200,255.976 47.200 C 256.403 47.200,256.864 47.380,257.000 47.600 C 257.136 47.820,257.687 48.000,258.224 48.000 C 258.761 48.000,259.200 48.180,259.200 48.400 C 259.200 48.620,259.650 48.800,260.200 48.800 C 260.750 48.800,261.200 48.980,261.200 49.200 C 261.200 49.420,261.560 49.600,262.000 49.600 C 262.440 49.600,262.800 49.780,262.800 50.000 C 262.800 50.220,263.160 50.400,263.600 50.400 C 264.040 50.400,264.400 50.580,264.400 50.800 C 264.400 51.020,264.760 51.200,265.200 51.200 C 265.640 51.200,266.000 51.380,266.000 51.600 C 266.000 51.820,266.228 52.000,266.506 52.000 C 266.784 52.000,268.089 52.521,269.406 53.158 C 270.723 53.794,273.187 54.969,274.883 55.767 C 276.578 56.566,278.074 57.395,278.206 57.610 C 278.339 57.824,278.797 58.000,279.224 58.000 C 279.651 58.000,280.000 58.180,280.000 58.400 C 280.000 58.620,280.320 58.800,280.712 58.800 C 281.103 58.800,281.683 59.160,282.000 59.600 C 282.317 60.040,282.814 60.400,283.105 60.400 C 283.396 60.400,284.020 60.760,284.492 61.200 C 284.964 61.640,285.587 62.000,285.875 62.000 C 286.164 62.000,286.400 62.180,286.400 62.400 C 286.400 62.620,286.720 62.800,287.112 62.800 C 287.503 62.800,288.083 63.160,288.400 63.600 C 288.717 64.040,289.297 64.400,289.688 64.400 C 290.080 64.400,290.400 64.580,290.400 64.800 C 290.400 65.020,290.636 65.200,290.925 65.200 C 291.214 65.200,291.968 65.740,292.600 66.400 C 293.232 67.060,293.898 67.600,294.078 67.600 C 294.259 67.600,294.972 68.140,295.663 68.800 C 296.354 69.460,297.074 70.000,297.263 70.000 C 297.452 70.000,298.172 70.540,298.863 71.200 C 299.554 71.860,300.280 72.400,300.478 72.400 C 300.675 72.400,301.270 72.805,301.799 73.300 C 303.376 74.775,303.946 75.200,304.343 75.200 C 305.111 75.200,324.800 94.889,324.800 95.657 C 324.800 96.054,325.225 96.624,326.700 98.201 C 327.195 98.730,327.600 99.325,327.600 99.522 C 327.600 99.720,328.140 100.446,328.800 101.137 C 329.460 101.828,330.000 102.548,330.000 102.737 C 330.000 102.926,330.540 103.646,331.200 104.337 C 331.860 105.028,332.400 105.741,332.400 105.922 C 332.400 106.102,332.940 106.768,333.600 107.400 C 334.260 108.032,334.800 108.786,334.800 109.075 C 334.800 109.364,334.980 109.600,335.200 109.600 C 335.420 109.600,335.600 109.920,335.600 110.312 C 335.600 110.703,335.960 111.283,336.400 111.600 C 336.840 111.917,337.200 112.497,337.200 112.888 C 337.200 113.280,337.380 113.600,337.600 113.600 C 337.820 113.600,338.000 113.836,338.000 114.125 C 338.000 114.413,338.360 115.036,338.800 115.508 C 339.240 115.980,339.600 116.604,339.600 116.895 C 339.600 117.186,339.960 117.683,340.400 118.000 C 340.840 118.317,341.200 118.897,341.200 119.288 C 341.200 119.680,341.380 120.000,341.600 120.000 C 341.820 120.000,342.000 120.349,342.000 120.776 C 342.000 121.203,342.176 121.661,342.390 121.794 C 342.605 121.926,343.434 123.422,344.233 125.117 C 345.031 126.813,346.206 129.277,346.842 130.594 C 347.479 131.911,348.000 133.216,348.000 133.494 C 348.000 133.772,348.180 134.000,348.400 134.000 C 348.620 134.000,348.800 134.360,348.800 134.800 C 348.800 135.240,348.980 135.600,349.200 135.600 C 349.420 135.600,349.600 135.960,349.600 136.400 C 349.600 136.840,349.780 137.200,350.000 137.200 C 350.220 137.200,350.400 137.560,350.400 138.000 C 350.400 138.440,350.580 138.800,350.800 138.800 C 351.020 138.800,351.200 139.250,351.200 139.800 C 351.200 140.350,351.380 140.800,351.600 140.800 C 351.820 140.800,352.000 141.239,352.000 141.776 C 352.000 142.313,352.180 142.864,352.400 143.000 C 352.620 143.136,352.800 143.597,352.800 144.024 C 352.800 144.451,352.980 144.800,353.200 144.800 C 353.420 144.800,353.600 145.340,353.600 146.000 C 353.600 146.660,353.780 147.200,354.000 147.200 C 354.220 147.200,354.400 147.740,354.400 148.400 C 354.400 149.060,354.580 149.600,354.800 149.600 C 355.020 149.600,355.200 150.140,355.200 150.800 C 355.200 151.460,355.380 152.000,355.600 152.000 C 355.820 152.000,356.000 152.529,356.000 153.176 C 356.000 153.823,356.180 154.464,356.400 154.600 C 356.620 154.736,356.800 155.366,356.800 156.000 C 356.800 156.634,356.980 157.264,357.200 157.400 C 357.420 157.536,357.600 158.267,357.600 159.024 C 357.600 159.781,357.744 160.400,357.921 160.400 C 358.097 160.400,358.459 161.795,358.724 163.500 C 358.990 165.205,359.396 167.590,359.628 168.800 C 359.859 170.010,360.144 171.945,360.261 173.100 C 360.378 174.255,360.637 175.200,360.837 175.200 C 361.037 175.200,361.200 176.539,361.200 178.176 C 361.200 179.813,361.380 181.264,361.600 181.400 C 361.823 181.538,362.000 183.396,362.000 185.600 C 362.000 187.804,362.177 189.662,362.400 189.800 C 362.649 189.954,362.800 193.796,362.800 200.000 C 362.800 206.204,362.649 210.046,362.400 210.200 C 362.177 210.338,362.000 212.196,362.000 214.400 C 362.000 216.604,361.823 218.462,361.600 218.600 C 361.380 218.736,361.200 220.187,361.200 221.824 C 361.200 223.461,361.037 224.800,360.837 224.800 C 360.637 224.800,360.378 225.745,360.261 226.900 C 360.144 228.055,359.859 229.990,359.628 231.200 C 359.396 232.410,358.990 234.795,358.724 236.500 C 358.459 238.205,358.097 239.600,357.921 239.600 C 357.744 239.600,357.600 240.219,357.600 240.976 C 357.600 241.733,357.420 242.464,357.200 242.600 C 356.980 242.736,356.800 243.366,356.800 244.000 C 356.800 244.634,356.620 245.264,356.400 245.400 C 356.180 245.536,356.000 246.177,356.000 246.824 C 356.000 247.471,355.820 248.000,355.600 248.000 C 355.380 248.000,355.200 248.540,355.200 249.200 C 355.200 249.860,355.020 250.400,354.800 250.400 C 354.580 250.400,354.400 250.940,354.400 251.600 C 354.400 252.260,354.220 252.800,354.000 252.800 C 353.780 252.800,353.600 253.340,353.600 254.000 C 353.600 254.660,353.420 255.200,353.200 255.200 C 352.980 255.200,352.800 255.549,352.800 255.976 C 352.800 256.403,352.620 256.864,352.400 257.000 C 352.180 257.136,352.000 257.687,352.000 258.224 C 352.000 258.761,351.820 259.200,351.600 259.200 C 351.380 259.200,351.200 259.650,351.200 260.200 C 351.200 260.750,351.020 261.200,350.800 261.200 C 350.580 261.200,350.400 261.560,350.400 262.000 C 350.400 262.440,350.220 262.800,350.000 262.800 C 349.780 262.800,349.600 263.160,349.600 263.600 C 349.600 264.040,349.420 264.400,349.200 264.400 C 348.980 264.400,348.800 264.760,348.800 265.200 C 348.800 265.640,348.620 266.000,348.400 266.000 C 348.180 266.000,348.000 266.228,348.000 266.506 C 348.000 266.784,347.479 268.089,346.842 269.406 C 346.206 270.723,345.031 273.187,344.233 274.883 C 343.434 276.578,342.605 278.074,342.390 278.206 C 342.176 278.339,342.000 278.797,342.000 279.224 C 342.000 279.651,341.820 280.000,341.600 280.000 C 341.380 280.000,341.200 280.320,341.200 280.712 C 341.200 281.103,340.840 281.683,340.400 282.000 C 339.960 282.317,339.600 282.814,339.600 283.105 C 339.600 283.396,339.240 284.020,338.800 284.492 C 338.360 284.964,338.000 285.587,338.000 285.875 C 338.000 286.164,337.820 286.400,337.600 286.400 C 337.380 286.400,337.200 286.720,337.200 287.112 C 337.200 287.503,336.840 288.083,336.400 288.400 C 335.960 288.717,335.600 289.297,335.600 289.688 C 335.600 290.080,335.420 290.400,335.200 290.400 C 334.980 290.400,334.800 290.636,334.800 290.925 C 334.800 291.214,334.260 291.968,333.600 292.600 C 332.940 293.232,332.400 293.898,332.400 294.078 C 332.400 294.259,331.860 294.972,331.200 295.663 C 330.540 296.354,330.000 297.074,330.000 297.263 C 330.000 297.452,329.460 298.172,328.800 298.863 C 328.140 299.554,327.600 300.280,327.600 300.478 C 327.600 300.675,327.195 301.270,326.700 301.799 C 325.225 303.376,324.800 303.946,324.800 304.343 C 324.800 305.111,305.111 324.800,304.343 324.800 C 303.946 324.800,303.376 325.225,301.799 326.700 C 301.270 327.195,300.675 327.600,300.478 327.600 C 300.280 327.600,299.554 328.140,298.863 328.800 C 298.172 329.460,297.452 330.000,297.263 330.000 C 297.074 330.000,296.354 330.540,295.663 331.200 C 294.972 331.860,294.259 332.400,294.078 332.400 C 293.898 332.400,293.232 332.940,292.600 333.600 C 291.968 334.260,291.214 334.800,290.925 334.800 C 290.636 334.800,290.400 334.980,290.400 335.200 C 290.400 335.420,290.080 335.600,289.688 335.600 C 289.297 335.600,288.717 335.960,288.400 336.400 C 288.083 336.840,287.503 337.200,287.112 337.200 C 286.720 337.200,286.400 337.380,286.400 337.600 C 286.400 337.820,286.164 338.000,285.875 338.000 C 285.587 338.000,284.964 338.360,284.492 338.800 C 284.020 339.240,283.396 339.600,283.105 339.600 C 282.814 339.600,282.317 339.960,282.000 340.400 C 281.683 340.840,281.103 341.200,280.712 341.200 C 280.320 341.200,280.000 341.380,280.000 341.600 C 280.000 341.820,279.651 342.000,279.224 342.000 C 278.797 342.000,278.339 342.176,278.206 342.390 C 278.074 342.605,276.578 343.434,274.883 344.233 C 273.187 345.031,270.723 346.206,269.406 346.842 C 268.089 347.479,266.784 348.000,266.506 348.000 C 266.228 348.000,266.000 348.180,266.000 348.400 C 266.000 348.620,265.640 348.800,265.200 348.800 C 264.760 348.800,264.400 348.980,264.400 349.200 C 264.400 349.420,264.040 349.600,263.600 349.600 C 263.160 349.600,262.800 349.780,262.800 350.000 C 262.800 350.220,262.440 350.400,262.000 350.400 C 261.560 350.400,261.200 350.580,261.200 350.800 C 261.200 351.020,260.750 351.200,260.200 351.200 C 259.650 351.200,259.200 351.380,259.200 351.600 C 259.200 351.820,258.761 352.000,258.224 352.000 C 257.687 352.000,257.136 352.180,257.000 352.400 C 256.864 352.620,256.403 352.800,255.976 352.800 C 255.549 352.800,255.200 352.980,255.200 353.200 C 255.200 353.420,254.660 353.600,254.000 353.600 C 253.340 353.600,252.800 353.780,252.800 354.000 C 252.800 354.220,252.260 354.400,251.600 354.400 C 250.940 354.400,250.400 354.580,250.400 354.800 C 250.400 355.020,249.860 355.200,249.200 355.200 C 248.540 355.200,248.000 355.380,248.000 355.600 C 248.000 355.820,247.471 356.000,246.824 356.000 C 246.177 356.000,245.536 356.180,245.400 356.400 C 245.264 356.620,244.634 356.800,244.000 356.800 C 243.366 356.800,242.736 356.980,242.600 357.200 C 242.464 357.420,241.733 357.600,240.976 357.600 C 240.219 357.600,239.600 357.744,239.600 357.921 C 239.600 358.097,238.205 358.459,236.500 358.724 C 234.795 358.990,232.410 359.396,231.200 359.628 C 229.990 359.859,228.055 360.144,226.900 360.261 C 225.745 360.378,224.800 360.637,224.800 360.837 C 224.800 361.037,223.461 361.200,221.824 361.200 C 220.187 361.200,218.736 361.380,218.600 361.600 C 218.462 361.823,216.604 362.000,214.400 362.000 C 212.196 362.000,210.338 362.177,210.200 362.400 C 209.864 362.943,190.136 362.943,189.800 362.400 C 189.662 362.177,187.804 362.000,185.600 362.000 C 183.396 362.000,181.538 361.823,181.400 361.600 C 181.264 361.380,179.813 361.200,178.176 361.200 C 176.539 361.200,175.200 361.037,175.200 360.837 C 175.200 360.637,174.255 360.378,173.100 360.261 C 171.945 360.144,170.010 359.859,168.800 359.628 C 167.590 359.396,165.205 358.990,163.500 358.724 C 161.795 358.459,160.400 358.097,160.400 357.921 C 160.400 357.744,159.781 357.600,159.024 357.600 C 158.267 357.600,157.536 357.420,157.400 357.200 C 157.264 356.980,156.634 356.800,156.000 356.800 C 155.366 356.800,154.736 356.620,154.600 356.400 C 154.464 356.180,153.823 356.000,153.176 356.000 C 152.529 356.000,152.000 355.820,152.000 355.600 C 152.000 355.380,151.460 355.200,150.800 355.200 C 150.140 355.200,149.600 355.020,149.600 354.800 C 149.600 354.580,149.060 354.400,148.400 354.400 C 147.740 354.400,147.200 354.220,147.200 354.000 C 147.200 353.780,146.660 353.600,146.000 353.600 C 145.340 353.600,144.800 353.420,144.800 353.200 C 144.800 352.980,144.451 352.800,144.024 352.800 C 143.597 352.800,143.136 352.620,143.000 352.400 C 142.864 352.180,142.313 352.000,141.776 352.000 C 141.239 352.000,140.800 351.820,140.800 351.600 C 140.800 351.380,140.350 351.200,139.800 351.200 C 139.250 351.200,138.800 351.020,138.800 350.800 C 138.800 350.580,138.440 350.400,138.000 350.400 C 137.560 350.400,137.200 350.220,137.200 350.000 C 137.200 349.780,136.840 349.600,136.400 349.600 C 135.960 349.600,135.600 349.420,135.600 349.200 C 135.600 348.980,135.240 348.800,134.800 348.800 C 134.360 348.800,134.000 348.620,134.000 348.400 C 134.000 348.180,133.772 348.000,133.494 348.000 C 133.216 348.000,131.911 347.479,130.594 346.842 C 129.277 346.206,126.813 345.031,125.117 344.233 C 123.422 343.434,121.926 342.605,121.794 342.390 C 121.661 342.176,121.203 342.000,120.776 342.000 C 120.349 342.000,120.000 341.820,120.000 341.600 C 120.000 341.380,119.680 341.200,119.288 341.200 C 118.897 341.200,118.317 340.840,118.000 340.400 C 117.683 339.960,117.186 339.600,116.895 339.600 C 116.604 339.600,115.980 339.240,115.508 338.800 C 115.036 338.360,114.413 338.000,114.125 338.000 C 113.836 338.000,113.600 337.820,113.600 337.600 C 113.600 337.380,113.280 337.200,112.888 337.200 C 112.497 337.200,111.917 336.840,111.600 336.400 C 111.283 335.960,110.703 335.600,110.312 335.600 C 109.920 335.600,109.600 335.420,109.600 335.200 C 109.600 334.980,109.364 334.800,109.075 334.800 C 108.786 334.800,108.032 334.260,107.400 333.600 C 106.768 332.940,106.102 332.400,105.922 332.400 C 105.741 332.400,105.028 331.860,104.337 331.200 C 103.646 330.540,102.926 330.000,102.737 330.000 C 102.548 330.000,101.828 329.460,101.137 328.800 C 100.446 328.140,99.720 327.600,99.522 327.600 C 99.325 327.600,98.730 327.195,98.201 326.700 C 96.624 325.225,96.054 324.800,95.657 324.800 C 94.889 324.800,75.200 305.111,75.200 304.343 C 75.200 303.946,74.775 303.376,73.300 301.799 C 72.805 301.270,72.400 300.675,72.400 300.478 C 72.400 300.280,71.860 299.554,71.200 298.863 C 70.540 298.172,70.000 297.452,70.000 297.263 C 70.000 297.074,69.460 296.354,68.800 295.663 C 68.140 294.972,67.600 294.259,67.600 294.078 C 67.600 293.898,67.060 293.232,66.400 292.600 C 65.740 291.968,65.200 291.214,65.200 290.925 C 65.200 290.636,65.020 290.400,64.800 290.400 C 64.580 290.400,64.400 290.080,64.400 289.688 C 64.400 289.297,64.040 288.717,63.600 288.400 C 63.160 288.083,62.800 287.503,62.800 287.112 C 62.800 286.720,62.620 286.400,62.400 286.400 C 62.180 286.400,62.000 286.164,62.000 285.875 C 62.000 285.587,61.640 284.964,61.200 284.492 C 60.760 284.020,60.400 283.396,60.400 283.105 C 60.400 282.814,60.040 282.317,59.600 282.000 C 59.160 281.683,58.800 281.103,58.800 280.712 C 58.800 280.320,58.620 280.000,58.400 280.000 C 58.180 280.000,58.000 279.651,58.000 279.224 C 58.000 278.797,57.824 278.339,57.610 278.206 C 57.395 278.074,56.566 276.578,55.767 274.883 C 54.969 273.187,53.794 270.723,53.158 269.406 C 52.521 268.089,52.000 266.784,52.000 266.506 C 52.000 266.228,51.820 266.000,51.600 266.000 C 51.380 266.000,51.200 265.640,51.200 265.200 C 51.200 264.760,51.020 264.400,50.800 264.400 C 50.580 264.400,50.400 264.040,50.400 263.600 C 50.400 263.160,50.220 262.800,50.000 262.800 C 49.780 262.800,49.600 262.440,49.600 262.000 C 49.600 261.560,49.420 261.200,49.200 261.200 C 48.980 261.200,48.800 260.750,48.800 260.200 C 48.800 259.650,48.620 259.200,48.400 259.200 C 48.180 259.200,48.000 258.761,48.000 258.224 C 48.000 257.687,47.820 257.136,47.600 257.000 C 47.380 256.864,47.200 256.403,47.200 255.976 C 47.200 255.549,47.020 255.200,46.800 255.200 C 46.580 255.200,46.400 254.660,46.400 254.000 C 46.400 253.340,46.220 252.800,46.000 252.800 C 45.780 252.800,45.600 252.260,45.600 251.600 C 45.600 250.940,45.420 250.400,45.200 250.400 C 44.980 250.400,44.800 249.860,44.800 249.200 C 44.800 248.540,44.620 248.000,44.400 248.000 C 44.180 248.000,44.000 247.471,44.000 246.824 C 44.000 246.177,43.820 245.536,43.600 245.400 C 43.380 245.264,43.200 244.634,43.200 244.000 C 43.200 243.366,43.020 242.736,42.800 242.600 C 42.580 242.464,42.400 241.733,42.400 240.976 C 42.400 240.219,42.256 239.600,42.079 239.600 C 41.903 239.600,41.541 238.205,41.276 236.500 C 41.010 234.795,40.604 232.410,40.372 231.200 C 40.141 229.990,39.856 228.055,39.739 226.900 C 39.622 225.745,39.363 224.800,39.163 224.800 C 38.963 224.800,38.800 223.461,38.800 221.824 C 38.800 220.187,38.620 218.736,38.400 218.600 C 38.177 218.462,38.000 216.604,38.000 214.400 C 38.000 212.196,37.823 210.338,37.600 210.200 C 37.057 209.864,37.057 190.136,37.600 189.800 C 37.823 189.662,38.000 187.804,38.000 185.600 C 38.000 183.396,38.177 181.538,38.400 181.400 C 38.620 181.264,38.800 179.813,38.800 178.176 C 38.800 176.539,38.963 175.200,39.163 175.200 C 39.363 175.200,39.622 174.255,39.739 173.100 C 39.856 171.945,40.141 170.010,40.372 168.800 C 40.604 167.590,41.010 165.205,41.276 163.500 C 41.541 161.795,41.903 160.400,42.079 160.400 C 42.256 160.400,42.400 159.781,42.400 159.024 C 42.400 158.267,42.580 157.536,42.800 157.400 C 43.020 157.264,43.200 156.634,43.200 156.000 C 43.200 155.366,43.380 154.736,43.600 154.600 C 43.820 154.464,44.000 153.823,44.000 153.176 C 44.000 152.529,44.180 152.000,44.400 152.000 C 44.620 152.000,44.800 151.460,44.800 150.800 C 44.800 150.140,44.980 149.600,45.200 149.600 C 45.420 149.600,45.600 149.060,45.600 148.400 C 45.600 147.740,45.780 147.200,46.000 147.200 C 46.220 147.200,46.400 146.660,46.400 146.000 C 46.400 145.340,46.580 144.800,46.800 144.800 C 47.020 144.800,47.200 144.451,47.200 144.024 C 47.200 143.597,47.380 143.136,47.600 143.000 C 47.820 142.864,48.000 142.313,48.000 141.776 C 48.000 141.239,48.180 140.800,48.400 140.800 C 48.620 140.800,48.800 140.350,48.800 139.800 C 48.800 139.250,48.980 138.800,49.200 138.800 C 49.420 138.800,49.600 138.440,49.600 138.000 C 49.600 137.560,49.780 137.200,50.000 137.200 C 50.220 137.200,50.400 136.840,50.400 136.400 C 50.400 135.960,50.580 135.600,50.800 135.600 C 51.020 135.600,51.200 135.240,51.200 134.800 C 51.200 134.360,51.380 134.000,51.600 134.000 C 51.820 134.000,52.000 133.772,52.000 133.494 C 52.000 133.216,52.521 131.911,53.158 130.594 C 53.794 129.277,54.969 126.813,55.767 125.117 C 56.566 123.422,57.395 121.926,57.610 121.794 C 57.824 121.661,58.000 121.203,58.000 120.776 C 58.000 120.349,58.180 120.000,58.400 120.000 C 58.620 120.000,58.800 119.680,58.800 119.288 C 58.800 118.897,59.160 118.317,59.600 118.000 C 60.040 117.683,60.400 117.186,60.400 116.895 C 60.400 116.604,60.760 115.980,61.200 115.508 C 61.640 115.036,62.000 114.413,62.000 114.125 C 62.000 113.836,62.180 113.600,62.400 113.600 C 62.620 113.600,62.800 113.280,62.800 112.888 C 62.800 112.497,63.160 111.917,63.600 111.600 C 64.040 111.283,64.400 110.703,64.400 110.312 C 64.400 109.920,64.580 109.600,64.800 109.600 C 65.020 109.600,65.200 109.364,65.200 109.075 C 65.200 108.786,65.740 108.032,66.400 107.400 C 67.060 106.768,67.600 106.102,67.600 105.922 C 67.600 105.741,68.140 105.028,68.800 104.337 C 69.460 103.646,70.000 102.926,70.000 102.737 C 70.000 102.548,70.540 101.828,71.200 101.137 C 71.860 100.446,72.400 99.720,72.400 99.522 C 72.400 99.325,72.805 98.730,73.300 98.201 C 74.775 96.624,75.200 96.054,75.200 95.657 C 75.200 94.889,94.889 75.200,95.657 75.200 C 96.054 75.200,96.624 74.775,98.201 73.300 C 98.730 72.805,99.325 72.400,99.522 72.400 C 99.720 72.400,100.446 71.860,101.137 71.200 C 101.828 70.540,102.548 70.000,102.737 70.000 C 102.926 70.000,103.646 69.460,104.337 68.800 C 105.028 68.140,105.741 67.600,105.922 67.600 C 106.102 67.600,106.768 67.060,107.400 66.400 C 108.032 65.740,108.786 65.200,109.075 65.200 C 109.364 65.200,109.600 65.020,109.600 64.800 C 109.600 64.580,109.920 64.400,110.312 64.400 C 110.703 64.400,111.283 64.040,111.600 63.600 C 111.917 63.160,112.497 62.800,112.888 62.800 C 113.280 62.800,113.600 62.620,113.600 62.400 C 113.600 62.180,113.836 62.000,114.125 62.000 C 114.413 62.000,115.036 61.640,115.508 61.200 C 115.980 60.760,116.604 60.400,116.895 60.400 C 117.186 60.400,117.683 60.040,118.000 59.600 C 118.317 59.160,118.897 58.800,119.288 58.800 C 119.680 58.800,120.000 58.620,120.000 58.400 C 120.000 58.180,120.349 58.000,120.776 58.000 C 121.203 58.000,121.661 57.824,121.794 57.610 C 121.926 57.395,123.422 56.566,125.117 55.767 C 126.813 54.969,129.277 53.794,130.594 53.158 C 131.911 52.521,133.216 52.000,133.494 52.000 C 133.772 52.000,134.000 51.820,134.000 51.600 C 134.000 51.380,134.360 51.200,134.800 51.200 C 135.240 51.200,135.600 51.020,135.600 50.800 C 135.600 50.580,135.960 50.400,136.400 50.400 C 136.840 50.400,137.200 50.220,137.200 50.000 C 137.200 49.780,137.560 49.600,138.000 49.600 C 138.440 49.600,138.800 49.420,138.800 49.200 C 138.800 48.980,139.250 48.800,139.800 48.800 C 140.350 48.800,140.800 48.620,140.800 48.400 C 140.800 48.180,141.239 48.000,141.776 48.000 C 142.313 48.000,142.864 47.820,143.000 47.600 C 143.136 47.380,143.597 47.200,144.024 47.200 C 144.451 47.200,144.800 47.020,144.800 46.800 C 144.800 46.580,145.340 46.400,146.000 46.400 C 146.660 46.400,147.200 46.220,147.200 46.000 C 147.200 45.780,147.740 45.600,148.400 45.600 C 149.060 45.600,149.600 45.420,149.600 45.200 C 149.600 44.980,150.140 44.800,150.800 44.800 C 151.460 44.800,152.000 44.620,152.000 44.400 C 152.000 44.180,152.529 44.000,153.176 44.000 C 153.823 44.000,154.464 43.820,154.600 43.600 C 154.736 43.380,155.366 43.200,156.000 43.200 C 156.634 43.200,157.264 43.020,157.400 42.800 C 157.536 42.580,158.267 42.400,159.024 42.400 C 159.781 42.400,160.400 42.256,160.400 42.079 C 160.400 41.903,161.795 41.541,163.500 41.276 C 165.205 41.010,167.590 40.604,168.800 40.372 C 170.010 40.141,171.945 39.856,173.100 39.739 C 174.255 39.622,175.200 39.363,175.200 39.163 C 175.200 38.963,176.539 38.800,178.176 38.800 C 179.813 38.800,181.264 38.620,181.400 38.400 C 181.538 38.177,183.396 38.000,185.600 38.000 C 187.804 38.000,189.662 37.823,189.800 37.600 C 189.954 37.351,193.796 37.200,200.000 37.200 C 206.204 37.200,210.046 37.351,210.200 37.600 M96.400 169.600 C 96.400 169.820,95.860 170.000,95.200 170.000 C 94.540 170.000,94.000 170.180,94.000 170.400 C 94.000 170.620,93.370 170.800,92.600 170.800 C 91.830 170.800,91.200 170.980,91.200 171.200 C 91.200 171.420,90.840 171.600,90.400 171.600 C 89.960 171.600,89.600 171.780,89.600 172.000 C 89.600 172.220,89.240 172.400,88.800 172.400 C 88.360 172.400,88.000 172.580,88.000 172.800 C 88.000 173.020,87.706 173.200,87.347 173.200 C 86.988 173.200,86.403 173.516,86.047 173.903 C 85.691 174.289,84.918 174.852,84.330 175.154 C 82.935 175.870,79.627 179.020,78.402 180.800 C 77.872 181.570,77.318 182.290,77.172 182.400 C 76.702 182.752,74.800 186.751,74.800 187.387 C 74.800 187.724,74.620 188.000,74.400 188.000 C 74.180 188.000,74.000 188.540,74.000 189.200 C 74.000 189.860,73.820 190.400,73.600 190.400 C 73.380 190.400,73.200 190.929,73.200 191.576 C 73.200 192.223,73.020 192.864,72.800 193.000 C 72.559 193.149,72.400 195.930,72.400 200.000 C 72.400 204.070,72.559 206.851,72.800 207.000 C 73.020 207.136,73.200 207.777,73.200 208.424 C 73.200 209.071,73.380 209.600,73.600 209.600 C 73.820 209.600,74.000 210.140,74.000 210.800 C 74.000 211.460,74.180 212.000,74.400 212.000 C 74.620 212.000,74.800 212.276,74.800 212.613 C 74.800 213.249,76.702 217.248,77.172 217.600 C 77.318 217.710,77.872 218.430,78.402 219.200 C 79.627 220.980,82.935 224.130,84.330 224.846 C 84.918 225.148,85.691 225.711,86.047 226.097 C 86.403 226.484,86.988 226.800,87.347 226.800 C 87.706 226.800,88.000 226.980,88.000 227.200 C 88.000 227.420,88.360 227.600,88.800 227.600 C 89.240 227.600,89.600 227.780,89.600 228.000 C 89.600 228.220,89.960 228.400,90.400 228.400 C 90.840 228.400,91.200 228.580,91.200 228.800 C 91.200 229.020,91.830 229.200,92.600 229.200 C 93.370 229.200,94.000 229.380,94.000 229.600 C 94.000 229.820,94.540 230.000,95.200 230.000 C 95.860 230.000,96.400 230.180,96.400 230.400 C 96.400 230.651,98.867 230.800,103.000 230.800 C 107.133 230.800,109.600 230.651,109.600 230.400 C 109.600 230.180,110.140 230.000,110.800 230.000 C 111.460 230.000,112.000 229.820,112.000 229.600 C 112.000 229.380,112.529 229.200,113.176 229.200 C 113.823 229.200,114.464 229.020,114.600 228.800 C 114.736 228.580,115.287 228.400,115.824 228.400 C 116.361 228.400,116.800 228.220,116.800 228.000 C 116.800 227.780,117.070 227.600,117.400 227.600 C 117.730 227.600,118.000 227.420,118.000 227.200 C 118.000 226.980,118.270 226.800,118.600 226.800 C 118.930 226.800,119.200 226.620,119.200 226.400 C 119.200 226.180,119.560 226.000,120.000 226.000 C 120.440 226.000,120.800 225.859,120.800 225.686 C 120.800 225.514,121.295 225.080,121.900 224.722 C 123.313 223.886,126.800 220.596,126.800 220.099 C 126.800 219.890,127.340 219.154,128.000 218.463 C 128.660 217.772,129.200 216.936,129.200 216.604 C 129.200 216.272,129.380 216.000,129.600 216.000 C 129.820 216.000,130.000 215.722,130.000 215.383 C 130.000 215.044,130.360 214.380,130.800 213.908 C 131.240 213.436,131.600 212.633,131.600 212.125 C 131.600 211.616,131.780 211.200,132.000 211.200 C 132.220 211.200,132.400 210.660,132.400 210.000 C 132.400 209.340,132.580 208.800,132.800 208.800 C 133.020 208.800,133.200 208.080,133.200 207.200 C 133.200 206.320,133.380 205.600,133.600 205.600 C 133.848 205.600,134.000 203.467,134.000 200.000 C 134.000 196.533,133.848 194.400,133.600 194.400 C 133.380 194.400,133.200 193.680,133.200 192.800 C 133.200 191.920,133.020 191.200,132.800 191.200 C 132.580 191.200,132.400 190.660,132.400 190.000 C 132.400 189.340,132.220 188.800,132.000 188.800 C 131.780 188.800,131.600 188.384,131.600 187.875 C 131.600 187.367,131.240 186.564,130.800 186.092 C 130.360 185.620,130.000 184.956,130.000 184.617 C 130.000 184.278,129.820 184.000,129.600 184.000 C 129.380 184.000,129.200 183.728,129.200 183.396 C 129.200 183.064,128.660 182.228,128.000 181.537 C 127.340 180.846,126.800 180.110,126.800 179.901 C 126.800 179.404,123.313 176.114,121.900 175.278 C 121.295 174.920,120.800 174.486,120.800 174.314 C 120.800 174.141,120.440 174.000,120.000 174.000 C 119.560 174.000,119.200 173.820,119.200 173.600 C 119.200 173.380,118.930 173.200,118.600 173.200 C 118.270 173.200,118.000 173.020,118.000 172.800 C 118.000 172.580,117.730 172.400,117.400 172.400 C 117.070 172.400,116.800 172.220,116.800 172.000 C 116.800 171.780,116.361 171.600,115.824 171.600 C 115.287 171.600,114.736 171.420,114.600 171.200 C 114.464 170.980,113.823 170.800,113.176 170.800 C 112.529 170.800,112.000 170.620,112.000 170.400 C 112.000 170.180,111.460 170.000,110.800 170.000 C 110.140 170.000,109.600 169.820,109.600 169.600 C 109.600 169.349,107.133 169.200,103.000 169.200 C 98.867 169.200,96.400 169.349,96.400 169.600 M193.600 169.600 C 193.600 169.820,193.060 170.000,192.400 170.000 C 191.740 170.000,191.200 170.180,191.200 170.400 C 191.200 170.620,190.581 170.800,189.824 170.800 C 189.067 170.800,188.336 170.980,188.200 171.200 C 188.064 171.420,187.603 171.600,187.176 171.600 C 186.749 171.600,186.400 171.780,186.400 172.000 C 186.400 172.220,186.080 172.400,185.688 172.400 C 185.297 172.400,184.717 172.760,184.400 173.200 C 184.083 173.640,183.503 174.000,183.112 174.000 C 182.720 174.000,182.400 174.159,182.400 174.354 C 182.400 174.549,181.815 174.987,181.100 175.327 C 179.426 176.122,176.122 179.426,175.327 181.100 C 174.987 181.815,174.549 182.400,174.354 182.400 C 174.159 182.400,174.000 182.720,174.000 183.112 C 174.000 183.503,173.640 184.083,173.200 184.400 C 172.760 184.717,172.400 185.297,172.400 185.688 C 172.400 186.080,172.220 186.400,172.000 186.400 C 171.780 186.400,171.600 186.749,171.600 187.176 C 171.600 187.603,171.420 188.064,171.200 188.200 C 170.980 188.336,170.800 189.067,170.800 189.824 C 170.800 190.581,170.620 191.200,170.400 191.200 C 170.180 191.200,170.000 191.740,170.000 192.400 C 170.000 193.060,169.820 193.600,169.600 193.600 C 169.350 193.600,169.200 196.000,169.200 200.000 C 169.200 204.000,169.350 206.400,169.600 206.400 C 169.820 206.400,170.000 206.940,170.000 207.600 C 170.000 208.260,170.180 208.800,170.400 208.800 C 170.620 208.800,170.800 209.419,170.800 210.176 C 170.800 210.933,170.980 211.664,171.200 211.800 C 171.420 211.936,171.600 212.397,171.600 212.824 C 171.600 213.251,171.780 213.600,172.000 213.600 C 172.220 213.600,172.400 213.920,172.400 214.312 C 172.400 214.703,172.760 215.283,173.200 215.600 C 173.640 215.917,174.000 216.497,174.000 216.888 C 174.000 217.280,174.159 217.600,174.354 217.600 C 174.549 217.600,174.987 218.185,175.327 218.900 C 176.122 220.574,179.426 223.878,181.100 224.673 C 181.815 225.013,182.400 225.451,182.400 225.646 C 182.400 225.841,182.720 226.000,183.112 226.000 C 183.503 226.000,184.083 226.360,184.400 226.800 C 184.717 227.240,185.297 227.600,185.688 227.600 C 186.080 227.600,186.400 227.780,186.400 228.000 C 186.400 228.220,186.749 228.400,187.176 228.400 C 187.603 228.400,188.064 228.580,188.200 228.800 C 188.336 229.020,189.067 229.200,189.824 229.200 C 190.581 229.200,191.200 229.380,191.200 229.600 C 191.200 229.820,191.740 230.000,192.400 230.000 C 193.060 230.000,193.600 230.180,193.600 230.400 C 193.600 230.650,196.000 230.800,200.000 230.800 C 204.000 230.800,206.400 230.650,206.400 230.400 C 206.400 230.180,206.940 230.000,207.600 230.000 C 208.260 230.000,208.800 229.820,208.800 229.600 C 208.800 229.380,209.419 229.200,210.176 229.200 C 210.933 229.200,211.664 229.020,211.800 228.800 C 211.936 228.580,212.397 228.400,212.824 228.400 C 213.251 228.400,213.600 228.220,213.600 228.000 C 213.600 227.780,213.920 227.600,214.312 227.600 C 214.703 227.600,215.283 227.240,215.600 226.800 C 215.917 226.360,216.497 226.000,216.888 226.000 C 217.280 226.000,217.600 225.841,217.600 225.646 C 217.600 225.451,218.185 225.013,218.900 224.673 C 220.574 223.878,223.878 220.574,224.673 218.900 C 225.013 218.185,225.451 217.600,225.646 217.600 C 225.841 217.600,226.000 217.280,226.000 216.888 C 226.000 216.497,226.360 215.917,226.800 215.600 C 227.240 215.283,227.600 214.703,227.600 214.312 C 227.600 213.920,227.780 213.600,228.000 213.600 C 228.220 213.600,228.400 213.251,228.400 212.824 C 228.400 212.397,228.580 211.936,228.800 211.800 C 229.020 211.664,229.200 210.933,229.200 210.176 C 229.200 209.419,229.380 208.800,229.600 208.800 C 229.820 208.800,230.000 208.260,230.000 207.600 C 230.000 206.940,230.180 206.400,230.400 206.400 C 230.650 206.400,230.800 204.000,230.800 200.000 C 230.800 196.000,230.650 193.600,230.400 193.600 C 230.180 193.600,230.000 193.060,230.000 192.400 C 230.000 191.740,229.820 191.200,229.600 191.200 C 229.380 191.200,229.200 190.581,229.200 189.824 C 229.200 189.067,229.020 188.336,228.800 188.200 C 228.580 188.064,228.400 187.603,228.400 187.176 C 228.400 186.749,228.220 186.400,228.000 186.400 C 227.780 186.400,227.600 186.080,227.600 185.688 C 227.600 185.297,227.240 184.717,226.800 184.400 C 226.360 184.083,226.000 183.503,226.000 183.112 C 226.000 182.720,225.841 182.400,225.646 182.400 C 225.451 182.400,225.013 181.815,224.673 181.100 C 223.878 179.426,220.574 176.122,218.900 175.327 C 218.185 174.987,217.600 174.549,217.600 174.354 C 217.600 174.159,217.280 174.000,216.888 174.000 C 216.497 174.000,215.917 173.640,215.600 173.200 C 215.283 172.760,214.703 172.400,214.312 172.400 C 213.920 172.400,213.600 172.220,213.600 172.000 C 213.600 171.780,213.251 171.600,212.824 171.600 C 212.397 171.600,211.936 171.420,211.800 171.200 C 211.664 170.980,210.933 170.800,210.176 170.800 C 209.419 170.800,208.800 170.620,208.800 170.400 C 208.800 170.180,208.260 170.000,207.600 170.000 C 206.940 170.000,206.400 169.820,206.400 169.600 C 206.400 169.350,204.000 169.200,200.000 169.200 C 196.000 169.200,193.600 169.350,193.600 169.600 M290.400 169.600 C 290.400 169.820,289.860 170.000,289.200 170.000 C 288.540 170.000,288.000 170.180,288.000 170.400 C 288.000 170.620,287.471 170.800,286.824 170.800 C 286.177 170.800,285.536 170.980,285.400 171.200 C 285.264 171.420,284.713 171.600,284.176 171.600 C 283.639 171.600,283.200 171.780,283.200 172.000 C 283.200 172.220,282.930 172.400,282.600 172.400 C 282.270 172.400,282.000 172.580,282.000 172.800 C 282.000 173.020,281.730 173.200,281.400 173.200 C 281.070 173.200,280.800 173.380,280.800 173.600 C 280.800 173.820,280.440 174.000,280.000 174.000 C 279.560 174.000,279.200 174.141,279.200 174.314 C 279.200 174.486,278.705 174.920,278.100 175.278 C 276.687 176.114,273.200 179.404,273.200 179.901 C 273.200 180.110,272.660 180.846,272.000 181.537 C 271.340 182.228,270.800 183.064,270.800 183.396 C 270.800 183.728,270.620 184.000,270.400 184.000 C 270.180 184.000,270.000 184.278,270.000 184.617 C 270.000 184.956,269.640 185.620,269.200 186.092 C 268.760 186.564,268.400 187.367,268.400 187.875 C 268.400 188.384,268.220 188.800,268.000 188.800 C 267.780 188.800,267.600 189.340,267.600 190.000 C 267.600 190.660,267.420 191.200,267.200 191.200 C 266.980 191.200,266.800 191.920,266.800 192.800 C 266.800 193.680,266.620 194.400,266.400 194.400 C 266.152 194.400,266.000 196.533,266.000 200.000 C 266.000 203.467,266.152 205.600,266.400 205.600 C 266.620 205.600,266.800 206.320,266.800 207.200 C 266.800 208.080,266.980 208.800,267.200 208.800 C 267.420 208.800,267.600 209.340,267.600 210.000 C 267.600 210.660,267.780 211.200,268.000 211.200 C 268.220 211.200,268.400 211.616,268.400 212.125 C 268.400 212.633,268.760 213.436,269.200 213.908 C 269.640 214.380,270.000 215.044,270.000 215.383 C 270.000 215.722,270.180 216.000,270.400 216.000 C 270.620 216.000,270.800 216.272,270.800 216.604 C 270.800 216.936,271.340 217.772,272.000 218.463 C 272.660 219.154,273.200 219.890,273.200 220.099 C 273.200 220.596,276.687 223.886,278.100 224.722 C 278.705 225.080,279.200 225.514,279.200 225.686 C 279.200 225.859,279.560 226.000,280.000 226.000 C 280.440 226.000,280.800 226.180,280.800 226.400 C 280.800 226.620,281.070 226.800,281.400 226.800 C 281.730 226.800,282.000 226.980,282.000 227.200 C 282.000 227.420,282.270 227.600,282.600 227.600 C 282.930 227.600,283.200 227.780,283.200 228.000 C 283.200 228.220,283.639 228.400,284.176 228.400 C 284.713 228.400,285.264 228.580,285.400 228.800 C 285.536 229.020,286.177 229.200,286.824 229.200 C 287.471 229.200,288.000 229.380,288.000 229.600 C 288.000 229.820,288.540 230.000,289.200 230.000 C 289.860 230.000,290.400 230.180,290.400 230.400 C 290.400 230.651,292.867 230.800,297.000 230.800 C 301.133 230.800,303.600 230.651,303.600 230.400 C 303.600 230.180,304.140 230.000,304.800 230.000 C 305.460 230.000,306.000 229.820,306.000 229.600 C 306.000 229.380,306.630 229.200,307.400 229.200 C 308.170 229.200,308.800 229.020,308.800 228.800 C 308.800 228.580,309.160 228.400,309.600 228.400 C 310.040 228.400,310.400 228.220,310.400 228.000 C 310.400 227.780,310.760 227.600,311.200 227.600 C 311.640 227.600,312.000 227.420,312.000 227.200 C 312.000 226.980,312.294 226.800,312.653 226.800 C 313.012 226.800,313.597 226.484,313.953 226.097 C 314.309 225.711,315.082 225.148,315.670 224.846 C 317.065 224.130,320.373 220.980,321.598 219.200 C 322.128 218.430,322.682 217.710,322.828 217.600 C 323.298 217.248,325.200 213.249,325.200 212.613 C 325.200 212.276,325.380 212.000,325.600 212.000 C 325.820 212.000,326.000 211.460,326.000 210.800 C 326.000 210.140,326.180 209.600,326.400 209.600 C 326.620 209.600,326.800 209.071,326.800 208.424 C 326.800 207.777,326.980 207.136,327.200 207.000 C 327.441 206.851,327.600 204.070,327.600 200.000 C 327.600 195.930,327.441 193.149,327.200 193.000 C 326.980 192.864,326.800 192.223,326.800 191.576 C 326.800 190.929,326.620 190.400,326.400 190.400 C 326.180 190.400,326.000 189.860,326.000 189.200 C 326.000 188.540,325.820 188.000,325.600 188.000 C 325.380 188.000,325.200 187.724,325.200 187.387 C 325.200 186.751,323.298 182.752,322.828 182.400 C 322.682 182.290,322.128 181.570,321.598 180.800 C 320.373 179.020,317.065 175.870,315.670 175.154 C 315.082 174.852,314.309 174.289,313.953 173.903 C 313.597 173.516,313.012 173.200,312.653 173.200 C 312.294 173.200,312.000 173.020,312.000 172.800 C 312.000 172.580,311.640 172.400,311.200 172.400 C 310.760 172.400,310.400 172.220,310.400 172.000 C 310.400 171.780,310.040 171.600,309.600 171.600 C 309.160 171.600,308.800 171.420,308.800 171.200 C 308.800 170.980,308.170 170.800,307.400 170.800 C 306.630 170.800,306.000 170.620,306.000 170.400 C 306.000 170.180,305.460 170.000,304.800 170.000 C 304.140 170.000,303.600 169.820,303.600 169.600 C 303.600 169.349,301.133 169.200,297.000 169.200 C 292.867 169.200,290.400 169.349,290.400 169.600 "
       stroke="none"
       fill="#040404"
       fill-rule="evenodd"
       style="fill:#dedede;fill-opacity:1" />
    <path
       id="path1"
       d=""
       stroke="none"
       fill="#080404"
       fill-rule="evenodd"
       style="fill:#dedede;fill-opacity:1" />
    <path
       id="path2"
       d=""
       stroke="none"
       fill="#080404"
       fill-rule="evenodd"
       style="fill:#dedede;fill-opacity:1" />
    <path
       id="path3"
       d=""
       stroke="none"
       fill="#080404"
       fill-rule="evenodd"
       style="fill:#dedede;fill-opacity:1" />
    <path
       id="path4"
       d=""
       stroke="none"
       fill="#080404"
       fill-rule="evenodd"
       style="fill:#dedede;fill-opacity:1" />
  </g>
</svg>
