<?xml version="1.0" encoding="UTF-8" standalone="no"?>
<svg
   id="svg"
   width="400"
   height="400"
   viewBox="0, 0, 400,400"
   version="1.1"
   sodipodi:docname="cashregister.svg"
   inkscape:version="1.4.2 (f4327f4, 2025-05-13)"
   xmlns:inkscape="http://www.inkscape.org/namespaces/inkscape"
   xmlns:sodipodi="http://sodipodi.sourceforge.net/DTD/sodipodi-0.dtd"
   xmlns="http://www.w3.org/2000/svg"
   xmlns:svg="http://www.w3.org/2000/svg">
  <defs
     id="defs1" />
  <sodipodi:namedview
     id="namedview1"
     pagecolor="#ffffff"
     bordercolor="#000000"
     borderopacity="0.25"
     inkscape:showpageshadow="2"
     inkscape:pageopacity="0.0"
     inkscape:pagecheckerboard="0"
     inkscape:deskcolor="#d1d1d1"
     inkscape:zoom="2.0375"
     inkscape:cx="200"
     inkscape:cy="200"
     inkscape:window-width="1920"
     inkscape:window-height="1017"
     inkscape:window-x="1912"
     inkscape:window-y="-8"
     inkscape:window-maximized="1"
     inkscape:current-layer="svg" />
  <g
     id="svgg"
     style="stroke:#000000;stroke-opacity:0;fill:#dedede;fill-opacity:1">
    <path
       id="path0"
       d="M38.222 20.727 C 14.774 33.066,16.084 22.474,16.039 200.095 L 16.000 353.080 20.663 362.437 C 23.701 368.534,27.837 373.456,32.532 376.564 L 39.739 381.333 195.425 381.849 C 369.146 382.424,360.108 382.876,370.733 373.083 C 392.366 353.142,389.595 289.921,366.402 274.292 C 360.631 270.403,357.979 269.697,341.141 267.563 L 332.949 266.525 328.943 250.497 C 326.740 241.683,325.226 234.182,325.580 233.829 C 326.940 232.469,345.146 225.778,347.483 225.778 C 348.838 225.778,350.871 228.578,352.000 232.000 C 353.129 235.422,354.272 238.222,354.539 238.222 C 354.806 238.222,357.473 237.369,360.466 236.326 L 365.907 234.429 359.836 216.326 C 356.497 206.369,353.404 197.251,352.963 196.064 C 352.356 194.430,350.814 194.376,346.610 195.842 C 340.859 197.847,340.921 197.528,344.068 208.889 C 344.918 211.957,320.933 224.408,319.158 221.820 C 318.975 221.552,315.946 216.133,312.429 209.778 C 308.911 203.422,302.470 193.126,298.114 186.898 L 290.195 175.574 301.986 164.270 L 313.778 152.966 319.256 159.322 L 324.734 165.679 329.448 161.506 L 334.161 157.333 320.566 140.976 L 306.971 124.618 301.895 128.233 L 296.819 131.848 301.399 137.291 L 305.979 142.734 300.101 148.857 C 296.868 152.225,291.191 157.402,287.486 160.361 L 280.750 165.742 270.597 156.068 C 265.013 150.748,256.244 143.381,251.111 139.697 C 245.978 136.014,241.778 132.255,241.778 131.345 C 241.778 130.108,253.559 109.972,257.115 105.131 C 257.377 104.775,260.553 106.314,264.173 108.551 L 270.755 112.619 274.044 108.557 C 275.853 106.323,277.333 103.839,277.333 103.037 C 277.333 101.609,241.658 79.332,241.024 80.364 C 240.847 80.653,239.361 83.034,237.723 85.657 C 234.772 90.379,234.801 90.460,240.834 94.189 L 246.925 97.953 238.096 111.859 L 229.267 125.766 216.990 121.105 L 204.713 116.444 204.134 80.889 C 203.429 37.541,200.704 30.170,181.866 20.652 C 173.431 16.391,46.337 16.456,38.222 20.727 M181.261 34.878 C 191.368 43.383,191.988 46.233,192.125 84.801 C 192.277 127.621,191.504 125.438,208.740 131.722 C 260.795 150.700,308.023 206.720,319.135 262.667 L 320.283 268.444 174.363 268.444 L 28.444 268.444 28.451 158.667 C 28.460 14.920,18.564 30.238,111.419 30.229 L 175.727 30.222 181.261 34.878 M79.458 121.060 C 56.269 133.297,57.119 168.049,80.888 179.555 C 92.283 185.071,104.028 183.878,115.093 176.078 L 123.253 170.326 159.615 187.830 C 179.614 197.457,198.482 206.539,201.544 208.012 C 205.466 209.899,207.374 212.263,208.000 216.012 C 211.193 235.125,235.469 238.833,242.784 221.326 C 249.608 204.994,233.002 189.910,216.484 197.437 C 212.924 199.058,206.545 196.547,170.188 179.214 L 128.020 159.111 128.010 150.596 C 127.980 125.402,101.619 109.366,79.458 121.060 M109.511 135.822 C 113.738 140.049,115.556 143.494,115.556 147.279 L 115.556 152.692 105.498 148.087 C 88.186 140.162,82.411 149.830,99.111 158.780 C 109.685 164.446,110.297 165.696,103.916 168.604 C 86.195 176.678,68.357 157.803,77.323 140.464 C 83.805 127.931,99.374 125.685,109.511 135.822 M360.446 285.556 C 377.672 298.686,376.725 356.424,359.114 366.827 C 354.562 369.516,340.337 369.778,199.047 369.778 L 43.977 369.778 36.211 362.012 L 28.444 354.246 28.444 317.123 L 28.444 280.000 191.555 280.575 L 354.667 281.150 360.446 285.556 "
       stroke="none"
       fill="#000000"
       fill-rule="evenodd"
       style="stroke:#000000;stroke-opacity:0;fill:#dedede;fill-opacity:1" />
  </g>
</svg>
