<?xml version="1.0" encoding="UTF-8" standalone="no"?>
<svg
   id="svg"
   width="400"
   height="400"
   viewBox="0, 0, 400,400"
   version="1.1"
   sodipodi:docname="receipt.svg"
   inkscape:version="1.4.2 (f4327f4, 2025-05-13)"
   xmlns:inkscape="http://www.inkscape.org/namespaces/inkscape"
   xmlns:sodipodi="http://sodipodi.sourceforge.net/DTD/sodipodi-0.dtd"
   xmlns="http://www.w3.org/2000/svg"
   xmlns:svg="http://www.w3.org/2000/svg">
  <defs
     id="defs1" />
  <sodipodi:namedview
     id="namedview1"
     pagecolor="#ffffff"
     bordercolor="#000000"
     borderopacity="0.25"
     inkscape:showpageshadow="2"
     inkscape:pageopacity="0.0"
     inkscape:pagecheckerboard="0"
     inkscape:deskcolor="#d1d1d1"
     inkscape:zoom="2.0375"
     inkscape:cx="200"
     inkscape:cy="200"
     inkscape:window-width="1920"
     inkscape:window-height="1017"
     inkscape:window-x="1912"
     inkscape:window-y="-8"
     inkscape:window-maximized="1"
     inkscape:current-layer="svg" />
  <g
     id="svgg"
     style="fill:#dedede;fill-opacity:1">
    <path
       id="path0"
       d="M32.752 2.284 L 30.469 4.567 30.469 200.000 L 30.469 395.433 32.752 397.716 C 37.109 402.073,39.187 401.426,58.925 389.566 L 76.291 379.132 90.284 389.566 C 108.493 403.144,105.471 403.144,128.167 389.567 L 145.608 379.133 159.555 389.567 C 177.862 403.261,174.380 403.383,199.816 388.158 C 224.055 373.649,227.094 370.261,221.456 364.031 C 217.087 359.204,215.422 359.716,194.375 372.359 C 185.321 377.799,177.550 381.978,176.931 381.740 C 176.317 381.505,170.157 377.052,163.243 371.846 C 145.123 358.203,148.695 358.150,124.991 372.415 L 108.185 382.530 95.304 372.813 C 76.220 358.418,78.646 358.637,60.337 369.657 C 53.314 373.885,47.412 377.344,47.221 377.344 C 47.031 377.344,46.875 295.957,46.875 196.484 L 46.875 15.625 176.943 15.625 L 307.012 15.625 307.217 136.392 L 307.422 257.160 309.973 259.439 C 314.528 263.509,321.683 261.692,323.036 256.121 C 323.280 255.118,323.382 197.929,323.263 129.034 L 323.047 3.771 320.855 1.885 L 318.663 0.000 176.849 0.000 L 35.036 0.000 32.752 2.284 M73.828 69.471 C 68.751 71.607,67.391 78.684,71.306 82.599 L 73.472 84.766 96.093 84.766 L 118.714 84.766 120.880 82.599 C 123.953 79.528,123.953 74.380,120.882 71.307 L 118.717 69.141 97.054 68.977 C 85.139 68.887,74.688 69.109,73.828 69.471 M73.683 108.164 C 68.555 110.416,67.433 117.287,71.559 121.164 L 73.563 123.047 129.945 123.239 C 173.895 123.389,186.759 123.215,188.281 122.452 C 193.209 119.980,193.794 111.757,189.254 108.782 C 186.391 106.905,77.869 106.325,73.683 108.164 M219.697 108.184 C 214.710 110.398,213.628 117.381,217.680 121.191 C 220.009 123.381,260.241 124.563,265.022 122.582 C 269.791 120.607,270.942 114.104,267.253 109.973 L 264.974 107.422 243.620 107.233 C 226.290 107.080,221.782 107.259,219.697 108.184 M72.091 147.478 C 69.496 149.495,68.419 153.270,69.502 156.553 C 71.300 162.001,67.946 161.719,130.820 161.719 L 187.475 161.719 189.805 159.570 C 193.241 156.402,193.382 151.408,190.128 148.153 L 188.068 146.094 130.948 146.111 C 78.035 146.127,73.700 146.228,72.091 147.478 M217.780 147.928 C 214.146 151.296,214.270 156.543,218.068 160.081 C 220.429 162.281,262.684 162.658,265.964 160.509 C 270.120 157.785,270.506 150.713,266.662 147.690 C 264.726 146.167,263.609 146.094,242.196 146.094 L 219.759 146.094 217.780 147.928 M72.893 185.310 C 70.015 186.701,68.403 191.075,69.464 194.615 C 71.179 200.338,67.317 200.000,130.927 200.000 L 188.068 200.000 190.128 197.940 C 193.382 194.686,193.241 189.692,189.805 186.523 L 187.475 184.375 131.042 184.428 C 92.939 184.464,74.052 184.750,72.893 185.310 M218.986 185.310 C 216.109 186.701,214.497 191.075,215.558 194.615 C 217.169 199.994,217.200 200.000,242.421 200.000 L 264.964 200.000 267.248 197.716 C 270.879 194.085,269.987 187.802,265.512 185.488 C 262.830 184.102,221.813 183.945,218.986 185.310 M74.219 223.208 C 67.682 225.597,67.199 234.576,73.438 237.694 C 77.642 239.795,184.076 239.795,188.281 237.694 C 193.760 234.957,193.760 226.375,188.281 223.650 C 186.285 222.658,76.885 222.234,74.219 223.208 M219.922 223.395 C 213.679 225.950,213.715 235.348,219.979 237.965 C 222.344 238.953,226.398 239.114,243.900 238.913 L 264.974 238.672 267.253 236.120 C 270.966 231.962,269.992 226.138,265.203 223.866 C 262.383 222.527,223.041 222.118,219.922 223.395 M73.438 262.306 C 68.341 264.853,67.410 271.172,71.559 275.070 L 73.563 276.953 129.945 277.145 C 173.895 277.295,186.759 277.121,188.281 276.358 C 193.761 273.610,193.761 265.043,188.281 262.306 C 184.076 260.205,77.642 260.205,73.438 262.306 M219.697 262.090 C 214.782 264.272,213.711 271.366,217.726 275.141 C 220.297 277.557,260.371 278.427,265.129 276.170 C 269.990 273.863,270.992 268.066,267.253 263.880 L 264.974 261.328 243.620 261.139 C 226.290 260.986,221.782 261.165,219.697 262.090 M249.824 323.874 C 246.285 325.795,246.094 326.952,246.094 346.389 C 246.094 364.678,246.102 364.766,247.979 366.949 L 249.864 369.141 306.374 369.351 C 347.902 369.506,363.464 369.321,365.073 368.655 C 369.148 366.967,369.531 365.028,369.531 346.094 C 369.531 326.865,369.148 325.055,364.751 323.522 C 360.552 322.058,252.561 322.389,249.824 323.874 M353.125 346.094 L 353.125 353.125 307.422 353.125 L 261.719 353.125 261.719 346.094 L 261.719 339.063 307.422 339.063 L 353.125 339.063 353.125 346.094 "
       stroke="none"
       fill="#000000"
       fill-rule="evenodd"
       style="fill:#dedede;fill-opacity:1" />
  </g>
</svg>
