<?xml version="1.0" encoding="UTF-8" standalone="no"?>
<svg
   id="svg"
   version="1.1"
   width="400"
   height="399.592252803262"
   viewBox="0, 0, 400,399.592252803262"
   sodipodi:docname="setup.svg"
   inkscape:version="1.4.2 (f4327f4, 2025-05-13)"
   xmlns:inkscape="http://www.inkscape.org/namespaces/inkscape"
   xmlns:sodipodi="http://sodipodi.sourceforge.net/DTD/sodipodi-0.dtd"
   xmlns="http://www.w3.org/2000/svg"
   xmlns:svg="http://www.w3.org/2000/svg">
  <defs
     id="defs1" />
  <sodipodi:namedview
     id="namedview1"
     pagecolor="#ffffff"
     bordercolor="#000000"
     borderopacity="0.25"
     inkscape:showpageshadow="2"
     inkscape:pageopacity="0.0"
     inkscape:pagecheckerboard="0"
     inkscape:deskcolor="#d1d1d1"
     inkscape:zoom="2.0395791"
     inkscape:cx="199.79613"
     inkscape:cy="199.79613"
     inkscape:window-width="1920"
     inkscape:window-height="1017"
     inkscape:window-x="1912"
     inkscape:window-y="-8"
     inkscape:window-maximized="1"
     inkscape:current-layer="svg" />
  <g
     id="svgg"
     style="fill:#dedede;fill-opacity:1">
    <path
       id="path0"
       d="M188.989 1.138 C 188.012 1.764,186.853 2.704,186.414 3.227 C 185.936 3.794,186.248 3.636,187.187 2.835 C 188.051 2.097,189.490 1.161,190.383 0.755 C 191.277 0.350,191.729 0.014,191.387 0.009 C 191.045 0.004,189.966 0.512,188.989 1.138 M116.284 2.597 C 117.029 3.367,117.729 3.996,117.839 3.996 C 117.949 3.996,117.429 3.367,116.683 2.597 C 115.938 1.828,115.238 1.199,115.128 1.199 C 115.018 1.199,115.538 1.828,116.284 2.597 M183.963 6.402 C 183.378 7.285,182.971 8.076,183.058 8.158 C 183.146 8.240,183.704 7.517,184.300 6.551 C 185.658 4.352,185.397 4.236,183.963 6.402 M219.580 7.865 C 220.660 8.867,223.052 10.447,223.226 10.274 C 223.334 10.166,222.918 9.723,222.301 9.291 C 220.981 8.366,219.003 7.329,219.580 7.865 M77.996 10.048 C 77.047 10.720,76.361 11.359,76.471 11.469 C 76.638 11.637,78.707 10.294,80.100 9.113 C 81.106 8.260,79.534 8.959,77.996 10.048 M181.406 11.614 C 180.886 12.726,180.262 13.760,180.020 13.911 C 179.257 14.388,177.723 16.817,178.006 17.100 C 178.155 17.249,178.602 16.939,179.000 16.412 C 180.052 15.016,182.731 9.970,182.527 9.766 C 182.431 9.671,181.927 10.503,181.406 11.614 M120.679 10.219 C 120.679 10.620,122.835 14.181,123.162 14.319 C 123.335 14.392,123.477 14.630,123.477 14.847 C 123.477 15.064,123.730 15.496,124.040 15.806 C 124.350 16.116,124.685 16.597,124.785 16.876 C 124.884 17.155,125.081 17.276,125.223 17.147 C 125.365 17.017,124.671 15.678,123.681 14.172 C 122.692 12.665,121.780 11.108,121.654 10.711 C 121.446 10.057,120.679 9.669,120.679 10.219 M225.764 12.977 C 226.953 14.180,228.015 15.075,228.124 14.966 C 228.386 14.704,224.525 10.789,224.005 10.789 C 223.784 10.789,224.576 11.774,225.764 12.977 M74.509 12.814 C 74.364 13.048,74.342 13.336,74.459 13.453 C 74.745 13.739,75.524 13.235,75.524 12.764 C 75.524 12.253,74.835 12.287,74.509 12.814 M72.319 15.862 C 71.664 16.894,71.129 17.919,71.129 18.138 C 71.129 18.470,72.137 17.021,73.671 14.486 C 74.558 13.019,73.327 14.273,72.319 15.862 M228.571 15.744 C 228.571 15.832,229.201 16.839,229.970 17.982 C 231.671 20.510,231.842 20.084,230.179 17.461 C 229.137 15.818,228.571 15.214,228.571 15.744 M125.874 17.891 C 125.874 18.454,128.254 21.098,129.974 22.446 C 131.419 23.579,131.261 23.318,128.904 20.678 C 126.111 17.551,125.874 17.333,125.874 17.891 M174.172 20.799 C 170.720 24.370,171.162 24.424,174.993 20.901 C 176.397 19.609,177.473 18.348,177.384 18.098 C 177.296 17.849,175.850 19.064,174.172 20.799 M72.820 35.964 C 72.820 36.733,72.902 37.048,73.003 36.663 C 73.103 36.279,73.103 35.649,73.003 35.265 C 72.902 34.880,72.820 35.195,72.820 35.964 M72.727 41.758 C 72.727 42.527,72.798 43.157,72.883 43.157 C 72.969 43.157,73.113 42.527,73.203 41.758 C 73.293 40.989,73.222 40.360,73.047 40.360 C 72.871 40.360,72.727 40.989,72.727 41.758 M228.985 54.114 C 228.965 54.624,231.458 59.983,231.634 59.808 C 231.712 59.730,231.152 58.334,230.388 56.706 C 229.624 55.078,228.993 53.912,228.985 54.114 M235.764 65.660 C 235.764 65.728,236.349 66.313,237.063 66.958 L 238.362 68.132 237.188 66.833 C 236.094 65.623,235.764 65.351,235.764 65.660 M57.542 69.760 C 56.334 70.511,55.503 71.126,55.696 71.127 C 56.120 71.129,60.340 68.744,60.340 68.502 C 60.340 68.139,59.660 68.445,57.542 69.760 M240.959 70.092 C 240.959 70.368,245.101 72.600,246.154 72.891 C 246.703 73.043,245.806 72.439,244.161 71.549 C 241.055 69.869,240.959 69.825,240.959 70.092 M281.419 70.216 C 282.023 70.308,283.012 70.308,283.616 70.216 C 284.221 70.125,283.726 70.050,282.517 70.050 C 281.309 70.050,280.814 70.125,281.419 70.216 M15.510 71.143 C 14.700 71.571,13.912 72.124,13.759 72.372 C 13.545 72.718,16.661 71.144,17.549 70.458 C 18.097 70.035,16.754 70.486,15.510 71.143 M276.523 71.329 C 274.165 72.591,274.674 72.594,277.383 71.333 C 278.559 70.785,279.251 70.344,278.921 70.352 C 278.591 70.359,277.512 70.799,276.523 71.329 M288.185 72.028 C 290.304 73.547,292.859 76.416,294.336 78.936 C 295.753 81.355,296.019 81.205,294.679 78.743 C 293.351 76.304,290.150 72.665,288.358 71.557 C 286.280 70.273,286.166 70.581,288.185 72.028 M39.461 74.215 C 40.175 74.304,41.344 74.304,42.058 74.215 C 42.772 74.127,42.188 74.054,40.759 74.054 C 39.331 74.054,38.746 74.127,39.461 74.215 M263.337 75.125 C 263.337 75.626,263.761 75.626,264.535 75.125 C 265.020 74.812,264.963 74.736,264.236 74.731 C 263.741 74.728,263.337 74.905,263.337 75.125 M8.824 77.862 C 8.171 79.081,8.306 79.421,9.032 78.385 C 9.384 77.882,9.578 77.377,9.464 77.263 C 9.349 77.148,9.061 77.418,8.824 77.862 M146.454 81.119 C 146.304 81.360,146.849 81.518,147.829 81.518 C 148.721 81.518,149.451 81.339,149.451 81.119 C 149.451 80.899,148.832 80.719,148.076 80.719 C 147.319 80.719,146.589 80.899,146.454 81.119 M153.047 81.119 C 153.047 81.339,153.766 81.518,154.645 81.518 C 155.524 81.518,156.244 81.339,156.244 81.119 C 156.244 80.899,155.524 80.719,154.645 80.719 C 153.766 80.719,153.047 80.899,153.047 81.119 M142.258 81.518 C 142.258 81.738,142.617 81.918,143.057 81.918 C 143.497 81.918,143.856 81.738,143.856 81.518 C 143.856 81.299,143.497 81.119,143.057 81.119 C 142.617 81.119,142.258 81.299,142.258 81.518 M159.241 81.518 C 159.105 81.738,159.375 81.918,159.840 81.918 C 160.306 81.918,160.575 81.738,160.440 81.518 C 160.304 81.299,160.034 81.119,159.840 81.119 C 159.646 81.119,159.377 81.299,159.241 81.518 M5.974 83.156 C 5.515 84.056,5.208 84.861,5.291 84.945 C 5.375 85.029,5.835 84.292,6.313 83.308 C 7.402 81.066,7.108 80.934,5.974 83.156 M162.238 81.918 C 162.238 82.138,162.507 82.318,162.837 82.318 C 163.167 82.318,163.437 82.138,163.437 81.918 C 163.437 81.698,163.167 81.518,162.837 81.518 C 162.507 81.518,162.238 81.698,162.238 81.918 M176.425 85.878 C 178.392 86.762,180.298 87.329,179.421 86.768 C 179.091 86.558,178.731 86.400,178.621 86.417 C 178.511 86.435,177.972 86.202,177.423 85.901 C 176.873 85.600,176.064 85.310,175.624 85.256 C 175.185 85.202,175.545 85.482,176.425 85.878 M122.677 87.113 C 121.908 87.534,121.459 87.879,121.678 87.879 C 121.898 87.879,122.707 87.534,123.477 87.113 C 124.246 86.692,124.695 86.347,124.476 86.347 C 124.256 86.347,123.447 86.692,122.677 87.113 M181.052 87.664 C 181.422 88.001,185.415 89.911,185.415 89.751 C 185.415 89.491,181.779 87.512,181.302 87.512 C 181.073 87.512,180.961 87.581,181.052 87.664 M118.581 88.940 C 117.088 89.750,117.178 90.088,118.681 89.311 C 119.341 88.970,119.880 88.605,119.880 88.501 C 119.880 88.244,119.837 88.259,118.581 88.940 M299.307 89.782 C 299.318 90.394,300.055 91.287,300.326 91.016 C 300.474 90.868,300.304 90.456,299.948 90.100 C 299.592 89.745,299.303 89.601,299.307 89.782 M113.986 91.554 C 112.624 92.427,112.183 93.013,113.387 92.351 C 114.303 91.847,115.740 90.736,115.485 90.729 C 115.375 90.725,114.700 91.097,113.986 91.554 M187.413 90.842 C 187.413 91.086,191.311 93.506,191.703 93.506 C 192.018 93.506,191.153 92.899,188.911 91.548 C 188.087 91.051,187.413 90.733,187.413 90.842 M300.348 92.607 C 300.652 93.874,300.812 94.126,301.118 93.820 C 301.445 93.493,300.870 91.508,300.449 91.508 C 300.248 91.508,300.203 92.003,300.348 92.607 M109.895 94.319 C 108.689 95.191,107.835 95.904,107.996 95.904 C 108.338 95.904,112.288 93.111,112.288 92.870 C 112.288 92.602,112.175 92.670,109.895 94.319 M192.428 94.226 C 194.592 96.049,196.683 97.556,196.836 97.403 C 197.044 97.195,192.820 93.906,192.345 93.906 C 192.182 93.906,192.219 94.050,192.428 94.226 M106.238 97.090 C 105.719 97.522,105.492 97.881,105.732 97.889 C 105.973 97.896,106.495 97.542,106.893 97.103 C 107.819 96.080,107.458 96.073,106.238 97.090 M200.999 101.698 C 204.829 105.544,204.995 105.692,204.995 105.243 C 204.995 104.806,198.076 97.902,197.638 97.902 C 197.407 97.902,198.920 99.610,200.999 101.698 M102.024 100.799 C 98.889 103.809,97.797 105.479,100.217 103.562 C 101.880 102.245,105.389 98.302,104.898 98.302 C 104.748 98.302,103.455 99.426,102.024 100.799 M96.631 106.782 C 95.461 108.341,95.001 109.091,95.214 109.091 C 95.528 109.091,97.977 105.836,97.798 105.657 C 97.697 105.556,97.172 106.062,96.631 106.782 M303.303 105.794 C 303.321 106.670,304.084 107.251,304.090 106.394 C 304.093 105.899,303.916 105.495,303.696 105.495 C 303.477 105.495,303.299 105.629,303.303 105.794 M205.395 106.093 C 205.395 106.357,209.073 111.089,209.279 111.089 C 209.514 111.089,209.023 110.332,207.270 107.992 C 205.793 106.021,205.395 105.617,205.395 106.093 M303.575 109.648 C 303.412 110.064,303.372 110.498,303.487 110.613 C 303.852 110.978,304.172 110.381,304.020 109.622 C 303.880 108.926,303.858 108.927,303.575 109.648 M93.670 110.818 C 93.216 111.516,92.523 112.582,92.130 113.187 C 91.738 113.791,91.502 114.286,91.606 114.286 C 91.874 114.286,94.792 109.843,94.630 109.681 C 94.556 109.608,94.124 110.119,93.670 110.818 M302.343 113.674 C 301.978 114.230,301.858 114.685,302.075 114.685 C 302.518 114.685,303.460 113.117,303.183 112.840 C 303.085 112.742,302.707 113.118,302.343 113.674 M300.070 116.538 C 299.205 117.478,299.190 117.544,299.933 117.159 C 300.927 116.643,301.954 115.485,301.417 115.485 C 301.209 115.485,300.602 115.958,300.070 116.538 M4.271 117.383 C 4.993 118.097,5.810 118.676,6.088 118.669 C 6.366 118.662,6.234 118.459,5.794 118.216 C 5.355 117.974,4.537 117.395,3.978 116.930 C 3.418 116.464,3.550 116.668,4.271 117.383 M8.393 119.780 C 8.394 119.945,9.601 120.704,11.076 121.467 C 14.916 123.452,20.975 128.106,24.175 131.526 C 25.687 133.143,26.538 133.926,26.065 133.267 C 24.379 130.915,19.575 126.267,17.185 124.675 C 16.691 124.346,16.051 123.851,15.764 123.576 C 15.477 123.302,15.049 123.077,14.814 123.077 C 14.578 123.077,14.386 122.935,14.386 122.761 C 14.386 122.461,9.170 119.481,8.644 119.481 C 8.505 119.481,8.392 119.615,8.393 119.780 M214.214 119.680 C 214.214 119.900,214.471 120.529,214.785 121.079 C 215.099 121.628,215.356 121.898,215.356 121.678 C 215.356 121.459,215.099 120.829,214.785 120.280 C 214.471 119.730,214.214 119.461,214.214 119.680 M293.407 119.968 C 292.630 120.343,292.154 121.079,292.688 121.079 C 293.198 121.079,294.905 120.106,294.905 119.816 C 294.905 119.388,294.531 119.426,293.407 119.968 M87.588 121.698 C 86.384 124.176,86.518 124.522,87.758 122.139 C 88.313 121.073,88.698 120.133,88.614 120.050 C 88.531 119.966,88.069 120.708,87.588 121.698 M291.080 121.250 C 290.657 121.560,290.414 121.916,290.539 122.041 C 290.665 122.167,291.114 122.016,291.537 121.707 C 291.960 121.397,292.204 121.042,292.078 120.916 C 291.953 120.790,291.504 120.941,291.080 121.250 M288.887 122.570 C 288.351 122.941,287.703 123.431,287.447 123.660 C 286.842 124.201,284.527 125.994,283.971 126.352 C 283.734 126.505,283.654 126.744,283.794 126.884 C 283.933 127.024,285.010 126.359,286.185 125.407 C 287.361 124.455,288.770 123.381,289.317 123.021 C 289.863 122.660,290.209 122.260,290.086 122.131 C 289.963 122.002,289.423 122.200,288.887 122.570 M215.385 122.459 C 215.385 123.061,216.356 124.616,216.627 124.449 C 217.013 124.210,216.206 122.278,215.720 122.278 C 215.536 122.278,215.385 122.359,215.385 122.459 M216.590 125.375 C 216.601 125.922,217.335 126.854,217.570 126.619 C 217.885 126.304,217.383 125.075,216.940 125.075 C 216.744 125.075,216.586 125.210,216.590 125.375 M85.121 127.173 C 85.126 127.900,85.201 127.957,85.514 127.473 C 86.015 126.698,86.015 126.274,85.514 126.274 C 85.295 126.274,85.118 126.678,85.121 127.173 M280.746 129.670 C 280.160 130.440,279.835 131.069,280.025 131.069 C 280.429 131.069,282.517 128.958,282.517 128.550 C 282.517 127.881,281.732 128.378,280.746 129.670 M81.697 139.895 C 81.549 140.134,81.628 140.529,81.873 140.774 C 82.200 141.101,82.318 140.985,82.318 140.340 C 82.318 139.375,82.110 139.226,81.697 139.895 M273.555 142.486 C 273.408 143.072,273.365 143.628,273.459 143.722 C 273.553 143.816,273.751 143.414,273.898 142.829 C 274.045 142.243,274.088 141.687,273.994 141.593 C 273.899 141.498,273.702 141.900,273.555 142.486 M81.119 143.457 C 81.119 143.896,81.299 144.256,81.518 144.256 C 81.738 144.256,81.918 143.896,81.918 143.457 C 81.918 143.017,81.738 142.657,81.518 142.657 C 81.299 142.657,81.119 143.017,81.119 143.457 M221.893 148.052 C 221.896 149.151,221.973 149.553,222.065 148.946 C 222.157 148.338,222.154 147.439,222.060 146.948 C 221.965 146.456,221.890 146.953,221.893 148.052 M80.719 151.249 C 80.719 153.780,80.878 155.445,81.119 155.445 C 81.360 155.445,81.518 153.780,81.518 151.249 C 81.518 148.718,81.360 147.053,81.119 147.053 C 80.878 147.053,80.719 148.718,80.719 151.249 M31.705 150.849 C 31.707 152.607,31.777 153.277,31.862 152.337 C 31.946 151.397,31.945 149.959,31.859 149.140 C 31.773 148.322,31.704 149.091,31.705 150.849 M221.893 154.446 C 221.896 155.544,221.973 155.947,222.065 155.339 C 222.157 154.732,222.154 153.833,222.060 153.341 C 221.965 152.850,221.890 153.347,221.893 154.446 M81.331 159.158 C 81.160 159.552,81.132 159.987,81.269 160.124 C 81.675 160.530,82.002 159.960,81.815 159.172 C 81.650 158.474,81.628 158.473,81.331 159.158 M81.918 164.835 C 81.918 165.165,82.098 165.435,82.318 165.435 C 82.537 165.435,82.717 165.165,82.717 164.835 C 82.717 164.505,82.537 164.236,82.318 164.236 C 82.098 164.236,81.918 164.505,81.918 164.835 M26.188 167.667 C 25.815 168.236,25.579 168.769,25.663 168.854 C 25.747 168.938,26.132 168.472,26.517 167.820 C 27.378 166.362,27.121 166.243,26.188 167.667 M276.241 167.632 C 276.951 169.010,279.720 172.947,279.720 172.579 C 279.720 172.339,276.248 167.029,275.833 166.633 C 275.717 166.523,275.901 166.973,276.241 167.632 M24.174 170.232 C 23.775 170.673,23.543 171.128,23.658 171.244 C 23.773 171.359,24.166 170.998,24.531 170.442 C 25.327 169.227,25.168 169.133,24.174 170.232 M280.435 173.227 C 280.849 174.032,282.292 175.464,283.217 175.988 C 284.105 176.491,283.754 176.027,281.870 174.209 C 280.855 173.229,280.209 172.787,280.435 173.227 M217.429 175.064 C 216.890 176.609,216.889 176.623,217.351 176.623 C 217.750 176.623,218.380 174.291,218.066 173.977 C 217.961 173.872,217.674 174.361,217.429 175.064 M16.783 176.911 C 15.574 177.917,14.525 178.893,14.452 179.080 C 14.178 179.782,15.051 179.380,16.319 178.222 C 17.041 177.562,17.773 177.023,17.945 177.023 C 18.313 177.023,19.580 175.683,19.580 175.293 C 19.580 174.749,18.929 175.125,16.783 176.911 M284.116 176.926 C 284.116 177.566,291.832 182.256,292.791 182.199 C 292.965 182.189,292.208 181.715,291.109 181.147 C 290.010 180.578,289.021 179.997,288.911 179.855 C 288.121 178.835,284.116 176.388,284.116 176.926 M216.248 178.041 C 215.655 179.341,215.630 180.135,216.198 179.566 C 216.596 179.168,217.150 177.023,216.855 177.023 C 216.776 177.023,216.503 177.481,216.248 178.041 M86.342 178.022 C 86.342 178.242,86.599 178.871,86.913 179.421 C 87.227 179.970,87.484 180.240,87.484 180.020 C 87.484 179.800,87.227 179.171,86.913 178.621 C 86.599 178.072,86.342 177.802,86.342 178.022 M13.187 179.777 C 13.187 179.972,12.029 180.733,10.614 181.466 C 9.199 182.200,8.109 182.868,8.192 182.950 C 8.422 183.181,13.986 180.095,13.986 179.736 C 13.986 179.563,13.806 179.421,13.586 179.421 C 13.367 179.421,13.187 179.581,13.187 179.777 M88.312 182.794 C 88.312 183.090,89.977 185.814,90.157 185.814 C 90.250 185.814,89.959 185.095,89.510 184.216 C 88.795 182.813,88.312 182.240,88.312 182.794 M212.378 186.314 L 211.749 187.612 212.568 186.669 C 213.018 186.150,213.387 185.566,213.387 185.370 C 213.387 184.672,212.997 185.036,212.378 186.314 M300.306 187.965 C 300.683 188.540,301.172 189.011,301.393 189.011 C 301.912 189.011,300.791 187.310,300.126 187.088 C 299.797 186.979,299.860 187.285,300.306 187.965 M209.691 190.541 C 208.690 192.047,207.029 194.313,206.001 195.575 C 204.972 196.838,204.218 197.957,204.324 198.064 C 204.430 198.170,205.581 196.851,206.880 195.133 C 210.080 190.902,211.902 188.192,211.689 187.979 C 211.592 187.882,210.693 189.035,209.691 190.541 M92.502 190.010 C 94.276 192.883,95.235 194.209,95.411 194.033 C 95.515 193.929,94.918 192.891,94.084 191.727 C 92.292 189.224,91.457 188.318,92.502 190.010 M97.502 196.864 C 97.502 197.083,97.952 197.686,98.501 198.202 C 99.051 198.718,99.500 198.960,99.500 198.741 C 99.500 198.521,99.051 197.919,98.501 197.403 C 97.952 196.886,97.502 196.644,97.502 196.864 M200.657 201.694 C 199.260 203.070,198.277 204.196,198.472 204.196 C 198.894 204.196,203.630 199.473,203.374 199.307 C 203.276 199.244,202.054 200.318,200.657 201.694 M302.676 200.634 C 302.528 200.873,302.607 201.269,302.852 201.513 C 303.179 201.840,303.297 201.724,303.297 201.079 C 303.297 200.114,303.089 199.965,302.676 200.634 M101.099 200.924 C 101.099 201.102,101.683 201.669,102.398 202.183 L 103.696 203.118 102.523 201.859 C 101.279 200.524,101.099 200.406,101.099 200.924 M302.098 203.596 C 302.098 203.926,302.278 204.196,302.498 204.196 C 302.717 204.196,302.897 203.926,302.897 203.596 C 302.897 203.267,302.717 202.997,302.498 202.997 C 302.278 202.997,302.098 203.267,302.098 203.596 M104.695 204.359 C 104.695 204.622,109.943 208.671,110.092 208.523 C 110.240 208.375,105.226 204.196,104.899 204.196 C 104.787 204.196,104.695 204.269,104.695 204.359 M195.405 206.210 C 194.416 207.079,193.786 207.785,194.006 207.779 C 194.226 207.773,195.215 207.060,196.204 206.194 C 197.193 205.328,197.822 204.622,197.602 204.624 C 197.383 204.627,196.394 205.341,195.405 206.210 M190.896 209.559 C 188.682 211.091,188.341 211.393,188.844 211.376 C 189.046 211.369,190.197 210.649,191.403 209.777 C 194.043 207.869,193.608 207.681,190.896 209.559 M299.543 212.420 C 299.168 213.398,299.250 213.495,299.900 212.844 C 300.579 212.165,300.666 211.788,300.143 211.788 C 299.946 211.788,299.677 212.073,299.543 212.420 M183.516 213.890 C 182.582 214.359,181.818 214.885,181.818 215.059 C 181.818 215.232,182.627 214.981,183.616 214.501 C 184.605 214.020,185.415 213.483,185.415 213.307 C 185.415 212.911,185.544 212.871,183.516 213.890 M119.880 214.585 C 119.880 214.953,120.446 215.148,121.179 215.032 C 121.344 215.006,121.479 215.175,121.479 215.408 C 121.479 215.641,121.658 215.720,121.878 215.584 C 122.098 215.449,122.278 215.538,122.278 215.784 C 122.278 216.030,122.458 216.120,122.677 215.984 C 122.897 215.848,123.077 215.889,123.077 216.075 C 123.077 216.261,123.482 216.439,123.976 216.470 C 124.546 216.506,124.069 216.104,122.677 215.375 C 120.248 214.102,119.880 213.998,119.880 214.585 M177.123 216.663 C 175.969 217.118,175.025 217.645,175.025 217.836 C 175.025 218.343,175.535 218.259,176.482 217.597 C 176.942 217.275,177.431 217.125,177.570 217.264 C 177.709 217.402,177.822 217.295,177.822 217.026 C 177.822 216.757,177.990 216.640,178.194 216.766 C 178.399 216.893,178.681 216.810,178.821 216.583 C 178.961 216.356,179.244 216.274,179.448 216.401 C 179.653 216.527,179.820 216.440,179.820 216.207 C 179.820 215.650,179.597 215.688,177.123 216.663 M126.274 217.340 C 126.274 217.783,127.503 218.284,127.818 217.970 C 127.945 217.843,127.784 217.571,127.461 217.367 C 126.714 216.894,126.274 216.884,126.274 217.340 M6.793 220.022 C 6.793 220.658,10.845 227.051,11.091 226.804 C 11.215 226.680,11.043 226.263,10.708 225.877 C 10.373 225.491,9.355 223.927,8.446 222.403 C 7.537 220.878,6.793 219.807,6.793 220.022 M295.583 220.953 C 294.609 222.602,294.758 223.028,295.761 221.462 C 296.224 220.738,296.526 220.069,296.432 219.976 C 296.339 219.882,295.956 220.322,295.583 220.953 M146.953 222.060 C 147.448 222.155,148.257 222.155,148.751 222.060 C 149.246 221.965,148.841 221.887,147.852 221.887 C 146.863 221.887,146.459 221.965,146.953 222.060 M153.746 222.060 C 154.241 222.155,155.050 222.155,155.544 222.060 C 156.039 221.965,155.634 221.887,154.645 221.887 C 153.656 221.887,153.252 221.965,153.746 222.060 M294.106 223.242 C 294.106 223.461,293.102 224.750,291.875 226.106 C 290.647 227.462,289.804 228.571,290.002 228.571 C 290.777 228.571,294.793 223.531,294.361 223.099 C 294.221 222.959,294.106 223.023,294.106 223.242 M11.588 227.641 C 11.588 228.151,13.122 229.568,13.387 229.303 C 13.495 229.195,13.134 228.686,12.586 228.170 C 12.037 227.655,11.588 227.417,11.588 227.641 M255.445 229.246 C 255.829 229.347,256.459 229.347,256.843 229.246 C 257.228 229.146,256.913 229.064,256.144 229.064 C 255.375 229.064,255.060 229.146,255.445 229.246 M287.324 229.990 C 286.561 230.528,286.090 230.969,286.278 230.969 C 286.681 230.969,289.311 229.381,289.311 229.138 C 289.311 228.772,288.645 229.057,287.324 229.990 M13.986 229.960 C 13.986 230.193,16.223 231.369,16.663 231.367 C 16.839 231.366,16.394 231.007,15.675 230.568 C 14.337 229.752,13.986 229.626,13.986 229.960 M242.657 232.151 C 241.284 232.801,240.160 233.434,240.160 233.558 C 240.160 233.681,240.914 233.398,241.836 232.927 C 242.758 232.457,244.152 231.836,244.933 231.549 C 245.714 231.261,246.084 231.013,245.754 230.998 C 245.425 230.982,244.031 231.501,242.657 232.151 M57.726 232.774 C 59.009 233.547,60.139 234.100,60.237 234.002 C 60.442 233.797,56.331 231.378,55.768 231.372 C 55.561 231.370,56.442 232.001,57.726 232.774 M21.684 232.455 C 22.291 232.546,23.190 232.544,23.682 232.449 C 24.173 232.354,23.676 232.279,22.577 232.282 C 21.479 232.285,21.076 232.363,21.684 232.455 M62.537 236.164 C 63.620 237.263,64.595 238.162,64.705 238.162 C 64.815 238.162,64.019 237.263,62.937 236.164 C 61.855 235.065,60.879 234.166,60.769 234.166 C 60.659 234.166,61.455 235.065,62.537 236.164 M233.830 239.680 C 232.527 241.325,229.379 246.903,229.387 247.552 C 229.389 247.772,230.066 246.693,230.891 245.155 C 231.715 243.616,233.060 241.414,233.880 240.260 C 235.611 237.823,235.581 237.469,233.830 239.680 M66.344 240.639 C 66.338 240.793,66.963 241.962,67.731 243.237 C 68.500 244.511,69.129 245.366,69.130 245.136 C 69.131 244.670,66.360 240.197,66.344 240.639 M339.253 245.165 C 338.481 246.095,339.032 246.270,339.858 245.357 C 340.257 244.916,340.398 244.555,340.171 244.555 C 339.944 244.555,339.531 244.830,339.253 245.165 M304.958 247.170 C 305.418 247.949,305.874 248.505,305.973 248.406 C 306.248 248.131,304.926 245.754,304.499 245.754 C 304.292 245.754,304.499 246.391,304.958 247.170 M353.680 246.303 C 354.091 246.671,356.444 247.752,356.444 247.573 C 356.444 247.343,354.228 246.154,353.799 246.154 C 353.642 246.154,353.588 246.221,353.680 246.303 M336.869 248.940 C 335.568 251.517,335.441 251.934,336.076 251.541 C 336.652 251.185,338.817 246.553,338.408 246.553 C 338.224 246.553,337.531 247.627,336.869 248.940 M358.042 248.677 C 358.042 248.776,358.727 249.553,359.565 250.403 C 360.402 251.253,361.387 252.387,361.753 252.923 C 362.631 254.209,363.096 253.713,362.239 252.405 C 361.620 251.460,358.042 248.283,358.042 248.677 M282.382 250.079 C 281.423 251.138,281.564 251.503,282.551 250.516 C 283.009 250.058,283.307 249.608,283.214 249.515 C 283.121 249.422,282.747 249.676,282.382 250.079 M306.519 249.950 C 306.519 250.170,306.783 250.699,307.106 251.125 C 307.428 251.552,307.692 251.721,307.692 251.501 C 307.692 251.282,307.428 250.753,307.106 250.326 C 306.783 249.900,306.519 249.730,306.519 249.950 M280.412 253.005 C 279.655 254.324,279.486 256.144,280.120 256.144 C 280.340 256.144,280.519 255.593,280.519 254.919 C 280.519 254.245,280.714 253.330,280.951 252.887 C 281.650 251.581,281.169 251.687,280.412 253.005 M308.092 252.450 C 308.092 252.669,308.362 253.073,308.691 253.347 C 309.026 253.624,309.291 253.667,309.291 253.445 C 309.291 253.225,309.021 252.821,308.691 252.547 C 308.357 252.270,308.092 252.227,308.092 252.450 M333.301 253.950 C 332.331 254.938,331.615 255.824,331.711 255.920 C 331.904 256.113,333.844 254.428,335.027 253.041 C 336.400 251.431,335.105 252.113,333.301 253.950 M362.810 254.246 C 362.522 255.313,362.540 256.943,362.841 256.943 C 363.058 256.943,363.237 256.314,363.237 255.544 C 363.237 254.449,362.973 253.644,362.810 254.246 M311.673 256.160 C 312.434 256.811,313.237 257.343,313.456 257.343 C 313.676 257.343,313.233 256.811,312.472 256.160 C 311.711 255.510,310.909 254.978,310.689 254.978 C 310.470 254.978,310.912 255.510,311.673 256.160 M329.842 256.715 C 329.418 257.024,329.175 257.380,329.301 257.506 C 329.426 257.631,329.875 257.481,330.298 257.171 C 330.721 256.862,330.965 256.506,330.839 256.380 C 330.714 256.255,330.265 256.405,329.842 256.715 M320.080 259.341 C 320.080 259.560,320.720 259.740,321.502 259.740 C 322.348 259.740,322.824 259.578,322.677 259.341 C 322.541 259.121,321.902 258.941,321.255 258.941 C 320.609 258.941,320.080 259.121,320.080 259.341 M360.839 261.538 C 360.839 261.868,361.019 262.138,361.239 262.138 C 361.459 262.138,361.638 261.868,361.638 261.538 C 361.638 261.209,361.459 260.939,361.239 260.939 C 361.019 260.939,360.839 261.209,360.839 261.538 M360.440 263.536 C 360.440 263.866,360.619 264.136,360.839 264.136 C 361.059 264.136,361.239 263.866,361.239 263.536 C 361.239 263.207,361.059 262.937,360.839 262.937 C 360.619 262.937,360.440 263.207,360.440 263.536 M360.440 268.332 C 360.440 268.661,360.619 268.931,360.839 268.931 C 361.059 268.931,361.239 268.661,361.239 268.332 C 361.239 268.002,361.059 267.732,360.839 267.732 C 360.619 267.732,360.440 268.002,360.440 268.332 M68.796 270.347 C 68.127 271.816,68.254 272.130,68.978 270.794 C 69.316 270.170,69.518 269.585,69.427 269.493 C 69.335 269.402,69.052 269.786,68.796 270.347 M279.753 271.668 C 279.228 272.647,279.211 272.927,279.674 272.927 C 280.037 272.927,280.606 271.282,280.336 271.012 C 280.253 270.929,279.990 271.224,279.753 271.668 M362.438 273.798 C 362.438 274.131,362.788 274.807,363.216 275.300 C 363.644 275.794,364.069 276.406,364.160 276.660 C 364.251 276.915,364.450 277.009,364.600 276.870 C 364.751 276.731,364.406 275.926,363.833 275.082 C 362.512 273.135,362.438 273.067,362.438 273.798 M277.141 275.999 C 276.272 277.014,274.969 278.195,274.244 278.622 C 272.797 279.477,272.396 280.432,273.801 279.680 C 274.282 279.423,274.866 279.060,275.100 278.873 C 275.333 278.686,276.064 278.100,276.723 277.569 C 277.954 276.580,279.620 274.116,279.044 274.139 C 278.866 274.146,278.010 274.983,277.141 275.999 M166.633 275.459 C 166.633 275.559,167.536 276.220,168.639 276.928 C 169.742 277.636,170.964 278.599,171.354 279.068 C 171.743 279.536,172.580 280.370,173.213 280.919 L 174.363 281.918 173.196 280.412 C 171.994 278.861,166.633 274.816,166.633 275.459 M366.436 278.821 C 366.440 279.207,368.790 280.801,369.830 281.122 C 370.270 281.258,370.090 281.061,369.431 280.683 C 368.771 280.305,367.997 279.665,367.710 279.259 C 367.186 278.519,366.431 278.260,366.436 278.821 M252.348 279.718 C 251.047 280.884,249.283 282.572,250.131 281.839 C 251.547 280.618,253.854 279.719,254.882 279.988 C 255.385 280.119,255.744 280.027,255.744 279.767 C 255.744 279.237,252.930 279.197,252.348 279.718 M387.213 279.720 C 387.213 279.940,387.842 280.120,388.611 280.120 C 389.381 280.120,390.010 279.940,390.010 279.720 C 390.010 279.500,389.381 279.321,388.611 279.321 C 387.842 279.321,387.213 279.500,387.213 279.720 M128.127 282.101 C 125.552 284.854,125.801 285.155,128.472 282.517 C 129.680 281.324,130.669 280.296,130.669 280.233 C 130.669 279.714,129.680 280.440,128.127 282.101 M391.409 280.567 C 391.848 280.799,392.905 281.737,393.758 282.652 C 395.018 284.005,395.146 284.077,394.442 283.034 C 393.476 281.604,391.736 280.113,391.055 280.132 C 390.810 280.139,390.969 280.334,391.409 280.567 M264.041 282.001 C 264.538 282.096,265.257 282.093,265.639 281.993 C 266.021 281.893,265.614 281.815,264.735 281.819 C 263.856 281.823,263.544 281.905,264.041 282.001 M175.425 283.123 C 175.425 283.441,179.095 287.895,179.482 288.046 C 179.671 288.120,179.757 288.300,179.674 288.446 C 179.591 288.592,179.881 289.071,180.319 289.510 C 181.382 290.577,180.375 288.488,179.067 286.913 C 177.871 285.474,177.694 285.236,176.911 284.016 C 176.293 283.054,175.425 282.532,175.425 283.123 M67.148 284.316 C 67.142 284.535,67.595 285.255,68.155 285.914 C 68.715 286.573,68.997 286.753,68.782 286.314 C 68.202 285.131,67.160 283.856,67.148 284.316 M230.415 285.956 C 230.001 286.961,228.779 288.666,227.699 289.745 C 226.619 290.825,225.887 291.708,226.072 291.708 C 227.209 291.708,231.656 285.563,231.292 284.493 C 231.224 284.293,230.830 284.952,230.415 285.956 M246.733 286.553 C 246.165 287.674,245.768 288.658,245.849 288.740 C 245.931 288.822,246.481 287.905,247.071 286.702 C 247.661 285.499,248.058 284.515,247.954 284.515 C 247.851 284.515,247.301 285.432,246.733 286.553 M124.820 285.834 C 123.703 287.119,123.373 287.712,123.777 287.712 C 124.195 287.712,126.016 285.323,125.779 285.086 C 125.688 284.995,125.256 285.332,124.820 285.834 M316.084 285.714 C 315.599 286.028,315.657 286.103,316.384 286.108 C 316.878 286.111,317.283 285.934,317.283 285.714 C 317.283 285.214,316.859 285.214,316.084 285.714 M122.796 288.602 C 122.026 289.597,121.837 290.110,122.240 290.110 C 122.691 290.110,123.646 288.548,123.366 288.268 C 123.270 288.171,123.013 288.322,122.796 288.602 M304.496 289.722 C 302.847 290.593,300.959 291.770,300.300 292.336 C 298.988 293.461,299.607 293.258,301.498 291.942 C 302.157 291.484,303.955 290.439,305.494 289.621 C 307.033 288.803,308.112 288.134,307.892 288.135 C 307.672 288.136,306.144 288.850,304.496 289.722 M338.028 289.719 C 339.218 290.374,340.269 290.833,340.365 290.737 C 340.553 290.550,336.696 288.507,336.177 288.519 C 336.005 288.523,336.838 289.063,338.028 289.719 M71.928 289.862 C 71.928 290.314,76.878 293.769,79.221 294.954 C 80.485 295.593,81.518 296.027,81.518 295.918 C 81.518 295.809,80.754 295.332,79.820 294.857 C 78.371 294.120,75.558 292.271,72.677 290.161 C 72.265 289.860,71.928 289.725,71.928 289.862 M121.093 291.282 C 120.337 292.694,119.896 294.106,120.210 294.106 C 120.381 294.106,120.913 293.297,121.394 292.308 C 122.227 290.593,121.956 289.669,121.093 291.282 M222.281 293.810 C 220.909 294.709,219.858 295.516,219.946 295.604 C 220.117 295.775,225.375 292.547,225.375 292.272 C 225.375 291.899,224.646 292.261,222.281 293.810 M296.092 296.004 L 293.506 298.701 296.204 296.115 C 298.709 293.714,299.084 293.307,298.790 293.307 C 298.728 293.307,297.515 294.520,296.092 296.004 M347.053 296.104 C 348.135 297.203,349.111 298.102,349.221 298.102 C 349.331 298.102,348.535 297.203,347.453 296.104 C 346.370 295.005,345.395 294.106,345.285 294.106 C 345.175 294.106,345.971 295.005,347.053 296.104 M399.709 299.301 C 399.709 300.290,399.787 300.694,399.882 300.200 C 399.978 299.705,399.978 298.896,399.882 298.402 C 399.787 297.907,399.709 298.312,399.709 299.301 M115.957 300.150 C 115.008 301.045,114.319 301.865,114.426 301.972 C 114.622 302.167,116.427 300.507,117.438 299.201 C 118.303 298.084,117.812 298.399,115.957 300.150 M349.889 299.500 C 350.880 301.137,352.048 302.666,352.048 302.325 C 352.048 301.789,351.131 300.338,350.151 299.323 L 349.163 298.302 349.889 299.500 M185.727 299.500 C 186.252 300.516,188.212 302.366,188.212 301.846 C 188.212 301.631,187.560 300.836,186.763 300.078 C 185.889 299.247,185.478 299.018,185.727 299.500 M210.601 299.685 C 210.278 299.889,210.117 300.160,210.244 300.287 C 210.559 300.602,211.788 300.101,211.788 299.658 C 211.788 299.202,211.348 299.212,210.601 299.685 M243.797 300.100 C 243.721 302.084,246.727 305.759,248.352 305.669 C 248.571 305.657,248.412 305.433,247.998 305.171 C 246.042 303.934,244.965 302.737,244.417 301.188 C 244.088 300.260,243.809 299.770,243.797 300.100 M290.607 303.008 C 289.915 304.156,289.230 305.455,289.085 305.894 C 288.939 306.334,289.564 305.453,290.472 303.938 C 291.381 302.422,292.066 301.123,291.994 301.052 C 291.922 300.980,291.298 301.860,290.607 303.008 M204.995 301.698 C 204.995 301.918,205.265 302.098,205.594 302.098 C 205.924 302.098,206.194 301.918,206.194 301.698 C 206.194 301.479,205.924 301.299,205.594 301.299 C 205.265 301.299,204.995 301.479,204.995 301.698 M398.486 302.803 C 397.983 303.570,397.649 304.275,397.743 304.370 C 397.996 304.623,399.686 302.145,399.532 301.747 C 399.460 301.560,398.989 302.035,398.486 302.803 M96.703 302.098 C 96.703 302.318,96.973 302.498,97.303 302.498 C 97.632 302.498,97.902 302.318,97.902 302.098 C 97.902 301.878,97.632 301.698,97.303 301.698 C 96.973 301.698,96.703 301.878,96.703 302.098 M203.397 302.098 C 203.397 302.318,203.666 302.498,203.996 302.498 C 204.326 302.498,204.595 302.318,204.595 302.098 C 204.595 301.878,204.326 301.698,203.996 301.698 C 203.666 301.698,203.397 301.878,203.397 302.098 M189.187 302.710 C 189.614 303.033,190.153 303.291,190.386 303.284 C 190.619 303.277,190.460 303.007,190.034 302.685 C 189.607 302.362,189.067 302.104,188.835 302.111 C 188.602 302.118,188.761 302.387,189.187 302.710 M196.404 303.297 C 196.268 303.516,196.527 303.696,196.979 303.696 C 197.432 303.696,197.802 303.516,197.802 303.297 C 197.802 303.077,197.543 302.897,197.226 302.897 C 196.910 302.897,196.539 303.077,196.404 303.297 M352.485 303.097 C 352.485 303.317,353.008 304.486,353.646 305.694 C 354.285 306.903,354.807 307.712,354.807 307.493 C 354.807 307.273,354.285 306.104,353.646 304.895 C 353.008 303.686,352.485 302.877,352.485 303.097 M249.970 306.416 C 251.368 307.601,253.432 308.939,253.601 308.770 C 253.817 308.554,250.413 306.094,249.898 306.094 C 249.729 306.094,249.761 306.239,249.970 306.416 M390.564 308.119 C 389.072 309.297,386.405 312.338,386.421 312.843 C 386.426 312.977,387.063 312.331,387.838 311.407 C 388.613 310.483,390.003 309.093,390.927 308.318 C 392.992 306.586,392.706 306.429,390.564 308.119 M254.146 309.407 C 254.146 309.480,254.697 310.069,255.370 310.714 C 256.089 311.402,256.488 311.608,256.336 311.212 C 256.116 310.639,254.146 309.015,254.146 309.407 M258.198 314.649 C 258.458 315.219,258.815 315.684,258.992 315.684 C 259.466 315.684,258.746 313.954,258.196 313.771 C 257.838 313.652,257.838 313.859,258.198 314.649 M285.622 318.064 C 285.346 319.048,285.511 319.617,285.946 319.182 C 286.074 319.054,286.115 318.530,286.038 318.016 L 285.898 317.083 285.622 318.064 M383.795 318.916 C 383.647 319.155,383.726 319.550,383.971 319.795 C 384.297 320.122,384.416 320.006,384.416 319.361 C 384.416 318.396,384.208 318.247,383.795 318.916 M259.740 321.279 C 259.740 322.540,259.893 323.229,260.140 323.077 C 260.360 322.941,260.539 322.132,260.539 321.279 C 260.539 320.426,260.360 319.616,260.140 319.481 C 259.893 319.328,259.740 320.017,259.740 321.279 M357.255 321.279 C 357.255 322.843,357.367 323.304,357.642 322.877 C 357.855 322.547,358.030 321.828,358.030 321.279 C 358.030 320.729,357.855 320.010,357.642 319.680 C 357.367 319.254,357.255 319.714,357.255 321.279 M285.343 323.976 C 285.453 325.148,286.060 325.801,286.086 324.775 C 286.101 324.171,285.934 323.676,285.714 323.676 C 285.495 323.676,285.327 323.811,285.343 323.976 M259.341 324.675 C 259.341 325.005,259.520 325.275,259.740 325.275 C 259.960 325.275,260.140 325.005,260.140 324.675 C 260.140 324.346,259.960 324.076,259.740 324.076 C 259.520 324.076,259.341 324.346,259.341 324.675 M385.369 329.171 C 386.987 332.271,390.933 336.158,393.307 336.992 C 394.682 337.475,393.973 336.645,392.213 335.711 C 390.117 334.599,387.109 331.517,386.143 329.491 C 385.771 328.711,385.315 328.072,385.131 328.072 C 384.946 328.072,385.053 328.566,385.369 329.171 M256.983 329.702 C 256.483 330.378,256.181 331.040,256.313 331.171 C 256.550 331.409,257.386 330.505,258.163 329.171 C 258.849 327.991,257.948 328.396,256.983 329.702 M251.578 335.050 C 250.936 335.576,249.722 336.316,248.881 336.695 C 247.219 337.444,246.744 338.273,248.320 337.674 C 249.300 337.302,253.347 334.527,253.347 334.228 C 253.347 333.844,252.667 334.160,251.578 335.050 M354.495 335.117 C 354.052 336.087,354.158 336.884,354.663 336.379 C 354.921 336.121,355.324 334.066,355.117 334.066 C 355.038 334.066,354.758 334.539,354.495 335.117 M288.548 335.465 C 288.548 335.684,288.981 336.673,289.510 337.662 C 290.040 338.651,290.473 339.281,290.473 339.061 C 290.473 338.841,290.040 337.852,289.510 336.863 C 288.981 335.874,288.548 335.245,288.548 335.465 M245.355 338.661 C 245.072 339.002,244.931 339.370,245.041 339.480 C 245.151 339.590,245.472 339.401,245.754 339.061 C 246.037 338.721,246.178 338.352,246.068 338.242 C 245.958 338.133,245.637 338.321,245.355 338.661 M352.681 338.719 C 352.346 339.590,352.790 339.996,353.262 339.249 C 353.735 338.502,353.745 338.062,353.290 338.062 C 353.093 338.062,352.819 338.357,352.681 338.719 M396.404 338.343 C 396.404 338.551,396.878 339.158,397.457 339.691 C 398.397 340.555,398.464 340.570,398.078 339.827 C 397.562 338.834,396.404 337.807,396.404 338.343 M399.325 344.655 C 399.327 345.974,399.401 346.465,399.490 345.747 C 399.579 345.029,399.578 343.950,399.486 343.349 C 399.395 342.749,399.322 343.337,399.325 344.655 M296.304 347.253 C 297.162 348.132,297.954 348.851,298.064 348.851 C 298.174 348.851,297.562 348.132,296.703 347.253 C 295.845 346.374,295.053 345.654,294.943 345.654 C 294.833 345.654,295.445 346.374,296.304 347.253 M302.498 352.070 C 303.501 352.754,306.042 354.046,306.378 354.042 C 306.551 354.040,305.756 353.501,304.610 352.843 C 302.638 351.713,301.205 351.188,302.498 352.070 M337.263 353.437 C 335.737 354.230,335.036 354.764,335.564 354.731 C 336.059 354.700,336.464 354.534,336.464 354.361 C 336.464 354.188,336.598 354.082,336.763 354.125 C 337.325 354.274,338.861 353.594,338.861 353.196 C 338.861 352.978,338.996 352.882,339.161 352.981 C 339.326 353.081,339.692 352.912,339.976 352.605 C 340.759 351.758,340.111 351.956,337.263 353.437 M245.783 353.447 C 245.783 353.666,246.040 354.296,246.354 354.845 C 246.668 355.395,246.925 355.664,246.925 355.445 C 246.925 355.225,246.668 354.595,246.354 354.046 C 246.040 353.497,245.783 353.227,245.783 353.447 M307.692 354.845 C 307.692 355.065,308.097 355.242,308.591 355.239 C 309.318 355.234,309.376 355.158,308.891 354.845 C 308.116 354.344,307.692 354.344,307.692 354.845 M325.275 357.243 C 325.275 357.463,325.544 357.642,325.874 357.642 C 326.204 357.642,326.474 357.463,326.474 357.243 C 326.474 357.023,326.204 356.843,325.874 356.843 C 325.544 356.843,325.275 357.023,325.275 357.243 M393.285 360.159 C 391.761 361.732,391.562 362.594,393.044 361.209 C 393.989 360.324,395.025 358.841,394.698 358.841 C 394.623 358.841,393.988 359.434,393.285 360.159 M249.351 360.344 C 249.351 360.787,251.764 362.837,252.285 362.837 C 252.430 362.837,252.547 362.657,252.547 362.438 C 252.547 362.218,252.333 362.038,252.070 362.038 C 251.807 362.038,251.088 361.555,250.471 360.964 C 249.855 360.374,249.351 360.095,249.351 360.344 M263.137 361.638 C 262.997 361.865,263.333 362.038,263.912 362.038 C 264.475 362.038,264.935 361.858,264.935 361.638 C 264.935 361.419,264.586 361.239,264.159 361.239 C 263.733 361.239,263.273 361.419,263.137 361.638 M266.533 361.638 C 266.533 361.858,266.893 362.038,267.333 362.038 C 267.772 362.038,268.132 361.858,268.132 361.638 C 268.132 361.419,267.772 361.239,267.333 361.239 C 266.893 361.239,266.533 361.419,266.533 361.638 M378.621 361.638 C 378.486 361.858,378.755 362.038,379.221 362.038 C 379.686 362.038,379.956 361.858,379.820 361.638 C 379.684 361.419,379.415 361.239,379.221 361.239 C 379.027 361.239,378.757 361.419,378.621 361.638 M386.014 363.237 C 386.014 363.457,386.564 363.636,387.236 363.636 C 387.950 363.636,388.356 363.470,388.212 363.237 C 388.076 363.017,387.526 362.837,386.989 362.837 C 386.453 362.837,386.014 363.017,386.014 363.237 M275.283 365.035 C 276.341 366.024,277.334 366.833,277.491 366.833 C 278.097 366.833,276.002 364.393,274.913 363.830 C 273.152 362.919,273.205 363.091,275.283 365.035 M365.382 365.063 C 364.244 366.270,363.698 367.233,364.153 367.233 C 364.217 367.233,365.063 366.424,366.034 365.435 C 367.005 364.446,367.558 363.636,367.263 363.636 C 366.969 363.636,366.122 364.279,365.382 365.063 M277.736 367.456 C 277.716 368.076,278.814 369.471,279.098 369.187 C 279.232 369.053,278.983 368.514,278.545 367.989 C 278.107 367.463,277.743 367.223,277.736 367.456 M362.575 368.649 C 362.204 369.617,362.722 369.792,363.218 368.865 C 363.528 368.287,363.534 368.032,363.238 368.032 C 363.004 368.032,362.706 368.309,362.575 368.649 M278.927 369.930 C 278.938 370.477,279.673 371.409,279.908 371.174 C 280.223 370.860,279.721 369.630,279.278 369.630 C 279.082 369.630,278.924 369.765,278.927 369.930 M361.472 370.687 C 361.137 371.558,361.582 371.964,362.054 371.217 C 362.526 370.470,362.536 370.030,362.081 370.030 C 361.884 370.030,361.610 370.325,361.472 370.687 M279.720 372.228 C 279.720 372.557,279.900 372.827,280.120 372.827 C 280.340 372.827,280.519 372.557,280.519 372.228 C 280.519 371.898,280.340 371.628,280.120 371.628 C 279.900 371.628,279.720 371.898,279.720 372.228 M280.639 376.024 C 280.639 377.233,280.714 377.727,280.806 377.123 C 280.897 376.518,280.897 375.529,280.806 374.925 C 280.714 374.321,280.639 374.815,280.639 376.024 M360.440 374.625 C 360.440 374.955,360.619 375.225,360.839 375.225 C 361.059 375.225,361.239 374.955,361.239 374.625 C 361.239 374.296,361.059 374.026,360.839 374.026 C 360.619 374.026,360.440 374.296,360.440 374.625 M280.012 379.063 C 279.851 379.223,279.720 379.630,279.720 379.967 C 279.720 380.416,279.838 380.461,280.165 380.135 C 280.409 379.890,280.540 379.484,280.456 379.231 C 280.372 378.978,280.172 378.902,280.012 379.063 M330.270 386.201 C 330.929 386.742,331.648 387.184,331.868 387.184 C 332.088 387.184,331.728 386.742,331.069 386.201 C 330.410 385.661,329.690 385.219,329.471 385.219 C 329.251 385.219,329.610 385.661,330.270 386.201 M309.741 388.602 C 307.436 391.103,307.678 391.386,310.090 389.011 C 311.189 387.929,312.088 386.991,312.088 386.928 C 312.088 386.415,311.122 387.105,309.741 388.602 M277.722 389.122 C 277.722 389.628,278.936 391.209,279.325 391.209 C 279.522 391.209,279.377 390.670,279.002 390.013 C 278.359 388.882,277.722 388.439,277.722 389.122 M334.066 389.390 C 334.066 389.515,334.581 390.328,335.210 391.196 C 335.838 392.064,336.580 393.321,336.856 393.990 C 337.382 395.258,338.225 395.727,337.785 394.505 C 337.203 392.893,334.066 388.578,334.066 389.390 M362.038 390.809 C 361.783 391.286,361.664 391.767,361.773 391.877 C 361.883 391.987,362.182 391.686,362.438 391.209 C 362.693 390.732,362.812 390.251,362.702 390.141 C 362.592 390.031,362.293 390.332,362.038 390.809 M338.062 396.404 C 338.297 396.843,338.665 397.203,338.879 397.203 C 339.094 397.203,339.045 396.846,338.768 396.404 C 338.494 395.964,338.126 395.604,337.952 395.604 C 337.777 395.604,337.827 395.964,338.062 396.404 M302.321 398.614 C 301.895 398.937,301.725 399.201,301.945 399.201 C 302.165 399.201,302.694 398.937,303.120 398.614 C 303.547 398.291,303.716 398.027,303.497 398.027 C 303.277 398.027,302.748 398.291,302.321 398.614 "
       stroke="none"
       fill="#d0d0d0"
       fill-rule="evenodd"
       style="fill:#dedede;fill-opacity:1" />
    <path
       id="path1"
       d="M101.698 1.204 C 91.091 3.412,79.836 8.767,75.062 13.878 C 71.542 17.646,70.790 20.660,72.143 25.574 C 72.476 26.783,72.821 28.894,72.911 30.265 C 73.001 31.637,73.152 32.896,73.246 33.063 C 73.511 33.532,73.463 44.503,73.194 44.955 C 73.064 45.174,73.003 45.804,73.059 46.353 C 73.408 49.767,69.808 59.599,66.829 63.368 C 63.033 68.170,51.306 74.838,48.530 73.773 C 48.212 73.651,47.952 73.739,47.952 73.969 C 47.952 74.198,47.458 74.347,46.853 74.298 C 46.249 74.250,45.424 74.352,45.020 74.524 C 43.764 75.060,34.382 74.423,31.369 73.597 C 28.771 72.885,23.761 71.352,22.378 70.845 C 11.384 66.819,-4.465 99.306,1.804 113.015 C 3.295 116.274,4.452 117.288,9.398 119.671 C 40.222 134.520,39.989 167.397,8.949 182.898 C 3.555 185.591,1.939 187.115,0.980 190.415 C -2.599 202.729,10.127 231.369,19.178 231.369 C 19.546 231.369,19.971 231.493,20.123 231.644 C 20.659 232.181,24.634 231.685,29.171 230.516 C 31.698 229.864,34.081 229.413,34.465 229.513 C 34.850 229.613,35.269 229.526,35.396 229.319 C 35.524 229.113,36.378 228.937,37.295 228.930 C 38.211 228.922,40.220 228.893,41.758 228.865 C 57.103 228.588,67.677 236.055,71.146 249.619 C 71.874 252.463,71.995 253.680,71.955 257.742 C 71.946 258.731,71.941 260.395,71.945 261.439 C 71.950 262.483,71.813 263.338,71.641 263.339 C 71.469 263.340,71.303 264.041,71.271 264.895 C 71.240 265.750,70.267 268.761,69.110 271.586 C 65.749 279.789,66.117 283.083,70.932 287.897 C 76.491 293.456,88.633 299.656,98.002 301.719 C 99.266 301.997,100.300 302.345,100.300 302.492 C 100.300 302.639,100.839 302.680,101.499 302.583 C 102.158 302.486,102.697 302.562,102.697 302.752 C 102.696 303.436,111.187 302.652,113.139 301.788 C 115.519 300.734,117.594 298.643,118.740 296.145 C 119.240 295.055,119.789 294.249,119.960 294.355 C 120.131 294.461,120.170 294.285,120.047 293.966 C 118.429 289.749,135.606 273.413,142.679 272.442 C 143.216 272.368,143.878 272.169,144.149 271.999 C 144.934 271.506,149.342 271.140,153.247 271.242 C 165.420 271.560,176.056 279.412,182.831 293.082 C 185.232 297.928,187.439 300.856,189.556 302.006 C 190.908 302.740,198.204 303.369,198.202 302.752 C 198.202 302.562,198.737 302.485,199.391 302.581 C 200.045 302.677,200.629 302.653,200.690 302.527 C 200.750 302.401,202.505 301.869,204.590 301.346 C 215.022 298.727,227.295 291.427,229.733 286.390 C 231.865 281.987,231.747 280.159,228.793 271.856 C 227.936 269.447,227.281 266.784,227.188 265.325 C 227.102 263.970,226.928 262.759,226.802 262.633 C 226.460 262.290,226.526 256.943,226.873 256.942 C 227.038 256.942,227.192 255.908,227.216 254.644 C 227.423 243.718,239.419 230.236,249.448 229.657 C 250.272 229.609,250.946 229.422,250.947 229.241 C 250.948 229.059,251.444 228.963,252.048 229.026 C 252.653 229.090,253.327 229.035,253.547 228.906 C 253.893 228.702,263.936 228.727,263.936 228.932 C 263.936 228.974,264.745 229.081,265.734 229.170 C 266.723 229.259,269.600 229.861,272.128 230.507 C 279.920 232.501,281.650 232.431,286.620 229.919 C 293.593 226.394,301.258 212.174,302.371 200.699 C 302.504 199.326,302.728 198.202,302.868 198.202 C 303.290 198.202,303.308 194.660,302.888 194.400 C 302.673 194.267,302.498 193.755,302.498 193.262 C 302.498 189.855,297.673 184.796,291.714 181.957 C 282.568 177.599,276.345 170.869,273.539 162.306 C 272.816 160.096,272.607 158.895,272.243 154.845 C 271.762 149.494,272.530 142.701,273.786 141.187 C 274.027 140.897,274.114 140.659,273.980 140.659 C 273.475 140.659,275.723 136.230,277.757 133.215 C 281.827 127.183,288.044 122.072,294.534 119.422 C 298.242 117.907,300.924 115.776,302.187 113.338 C 303.076 111.622,303.842 105.095,303.154 105.095 C 302.963 105.095,302.886 104.555,302.982 103.896 C 303.079 103.237,303.030 102.697,302.873 102.697 C 302.717 102.697,302.461 101.843,302.305 100.799 C 301.066 92.506,295.449 79.914,290.701 74.786 C 287.491 71.318,282.560 69.698,279.321 71.046 C 278.771 71.275,277.048 71.994,275.491 72.644 C 272.146 74.041,267.489 75.270,266.695 74.966 C 266.387 74.847,266.134 74.948,266.134 75.189 C 266.134 75.474,265.497 75.557,264.329 75.425 C 263.337 75.313,262.427 75.380,262.308 75.573 C 262.021 76.038,256.255 76.028,255.967 75.562 C 255.844 75.363,255.390 75.292,254.958 75.405 C 251.199 76.388,241.007 71.560,236.096 66.469 C 231.030 61.217,226.154 50.728,227.099 47.114 C 227.208 46.696,227.135 46.254,226.936 46.131 C 226.524 45.876,226.435 40.632,226.835 40.231 C 226.979 40.087,227.140 39.000,227.193 37.816 C 227.249 36.540,227.983 33.648,228.993 30.718 C 230.485 26.389,231.642 20.380,230.982 20.380 C 230.862 20.380,230.544 19.885,230.276 19.281 C 226.247 10.226,207.614 0.400,194.473 0.400 C 189.228 0.400,186.249 3.017,182.084 11.286 C 177.918 19.559,171.815 25.285,163.706 28.529 C 162.227 29.120,160.843 29.496,160.629 29.364 C 160.415 29.232,160.240 29.298,160.240 29.511 C 160.240 30.707,146.882 31.060,142.757 29.972 C 141.603 29.668,140.659 29.312,140.659 29.180 C 140.659 29.049,140.288 28.913,139.835 28.879 C 134.526 28.479,120.454 14.302,120.138 9.035 C 120.106 8.503,119.977 8.132,119.850 8.210 C 119.724 8.288,119.235 7.559,118.764 6.589 C 115.866 0.623,111.344 -0.803,101.698 1.204 M158.641 81.089 C 158.641 81.237,159.226 81.291,159.940 81.208 C 165.685 80.547,182.200 86.579,191.224 92.635 C 222.519 113.638,231.678 156.455,211.798 188.811 C 190.043 224.218,141.397 233.136,108.300 207.784 C 94.899 197.519,82.339 176.625,81.788 163.677 C 81.750 162.776,81.560 161.923,81.366 161.782 C 80.285 160.997,80.825 138.661,81.926 138.661 C 82.100 138.661,82.157 138.335,82.053 137.936 C 81.949 137.537,82.250 135.694,82.722 133.840 C 88.411 111.522,104.825 93.244,126.649 84.926 C 130.657 83.398,136.940 81.785,137.719 82.084 C 138.017 82.199,138.262 82.135,138.262 81.943 C 138.262 81.751,139.565 81.433,141.159 81.235 C 144.561 80.814,158.641 80.696,158.641 81.089 M295.804 244.732 C 294.650 245.012,293.706 245.182,293.706 245.111 C 293.706 245.040,292.265 245.590,290.504 246.332 C 282.589 249.671,279.844 252.639,280.878 256.744 C 284.962 272.964,274.474 285.483,260.127 281.513 C 252.265 279.338,250.917 279.908,247.360 286.913 C 242.611 296.268,243.209 301.975,249.287 305.295 C 254.656 308.227,259.314 313.038,259.481 315.822 C 259.514 316.363,259.700 316.708,259.895 316.587 C 260.094 316.464,260.143 317.052,260.005 317.924 C 259.833 319.013,259.868 319.240,260.121 318.681 C 260.376 318.120,260.490 318.832,260.505 321.079 C 260.521 323.363,260.411 324.105,260.122 323.676 C 259.820 323.231,259.781 323.357,259.969 324.168 C 260.738 327.481,254.927 334.631,249.131 337.505 C 246.826 338.647,245.781 339.423,245.199 340.424 C 242.070 345.807,248.789 362.438,254.093 362.438 C 254.562 362.438,254.945 362.617,254.945 362.837 C 254.945 363.342,256.031 363.365,256.210 362.864 C 256.284 362.659,257.063 362.434,257.942 362.365 C 258.821 362.295,259.658 362.075,259.802 361.877 C 260.377 361.082,269.163 361.213,271.895 362.057 C 275.691 363.229,280.779 368.934,279.952 371.090 C 279.830 371.409,279.885 371.574,280.076 371.456 C 280.541 371.168,280.919 373.215,280.919 376.024 C 280.919 378.981,280.538 380.878,280.009 380.551 C 279.776 380.407,279.717 380.490,279.872 380.742 C 280.183 381.245,278.538 386.451,277.922 386.913 C 277.660 387.110,277.673 387.316,277.960 387.512 C 278.201 387.677,278.515 388.287,278.657 388.868 C 279.674 393.029,293.184 399.641,299.584 399.111 C 302.484 398.870,303.504 397.998,305.527 394.033 C 308.344 388.511,315.533 382.562,318.463 383.328 C 318.913 383.445,319.281 383.379,319.281 383.179 C 319.281 382.624,323.619 382.758,325.980 383.387 C 330.824 384.676,334.923 388.340,337.771 393.925 C 341.006 400.270,345.538 400.822,354.809 395.998 C 362.194 392.156,363.493 389.730,361.403 383.677 C 360.835 382.029,360.444 380.172,360.535 379.551 C 360.626 378.930,360.552 378.422,360.370 378.422 C 360.189 378.422,360.040 377.882,360.040 377.223 C 360.040 376.563,360.175 376.024,360.340 376.024 C 360.504 376.024,360.652 375.140,360.668 374.059 C 360.744 368.826,366.626 361.969,371.128 361.868 C 371.841 361.851,372.426 361.680,372.426 361.486 C 372.427 361.293,373.046 361.235,373.803 361.357 C 374.592 361.485,375.236 361.405,375.315 361.169 C 375.481 360.670,380.819 361.158,380.819 361.672 C 380.819 361.860,381.079 361.913,381.397 361.791 C 381.715 361.669,383.009 361.870,384.272 362.237 C 390.673 364.098,395.866 359.351,398.443 349.287 C 400.181 342.498,399.147 340.198,392.960 337.085 C 387.876 334.527,383.906 329.169,383.843 324.781 C 383.828 323.734,383.681 322.878,383.516 322.877 C 383.140 322.877,383.121 321.108,383.493 320.736 C 383.646 320.584,383.786 319.699,383.805 318.771 C 383.900 314.169,388.457 308.359,394.401 305.263 C 400.460 302.108,400.938 299.028,396.933 288.956 C 393.898 281.325,390.603 279.032,385.559 281.042 C 374.085 285.614,360.888 279.350,360.679 269.233 C 360.657 268.191,360.504 267.336,360.340 267.335 C 360.175 267.334,360.040 266.703,360.040 265.934 C 360.040 265.165,360.189 264.535,360.370 264.535 C 360.552 264.535,360.633 264.041,360.549 263.437 C 360.466 262.832,360.857 261.002,361.418 259.371 C 363.252 254.035,361.328 250.651,354.480 247.161 C 345.540 242.604,341.028 243.185,337.694 249.323 C 334.790 254.669,331.022 257.828,325.934 259.183 C 323.620 259.799,318.482 259.934,318.482 259.378 C 318.482 259.179,318.117 259.111,317.671 259.228 C 314.831 259.971,308.517 254.643,305.496 248.953 C 302.884 244.036,301.381 243.381,295.804 244.732 M325.451 285.277 C 325.574 285.476,326.000 285.554,326.397 285.450 C 329.947 284.522,341.251 289.784,346.568 294.840 C 352.083 300.085,357.938 310.585,357.111 313.748 C 357.005 314.154,357.101 314.486,357.326 314.486 C 357.552 314.486,357.654 315.025,357.555 315.702 C 357.456 316.371,357.526 317.011,357.709 317.124 C 358.142 317.392,358.145 325.674,357.712 325.674 C 357.530 325.674,357.451 326.169,357.535 326.773 C 358.162 331.239,352.419 342.526,346.799 347.875 C 341.028 353.368,329.998 358.367,325.594 357.487 C 324.979 357.363,324.476 357.438,324.476 357.652 C 324.476 357.871,323.159 358.042,321.479 358.042 C 319.798 358.042,318.482 357.871,318.482 357.652 C 318.482 357.438,317.985 357.362,317.378 357.483 C 312.785 358.402,301.326 352.864,295.658 346.986 C 290.350 341.482,284.772 330.305,285.885 327.405 C 285.997 327.112,285.933 326.873,285.742 326.873 C 285.104 326.873,285.550 314.902,286.292 312.088 C 289.302 300.687,298.627 290.728,309.946 286.827 C 311.832 286.176,313.716 285.733,314.131 285.842 C 314.546 285.950,314.885 285.856,314.885 285.633 C 314.885 285.405,315.496 285.299,316.284 285.391 C 317.053 285.480,317.682 285.410,317.682 285.234 C 317.682 284.790,325.176 284.831,325.451 285.277 "
       stroke="none"
       fill="#040404"
       fill-rule="evenodd"
       style="fill:#dedede;fill-opacity:1" />
    <path
       id="path2"
       d="M108.591 0.282 C 109.086 0.377,109.895 0.377,110.390 0.282 C 110.884 0.187,110.480 0.109,109.491 0.109 C 108.501 0.109,108.097 0.187,108.591 0.282 M192.907 0.282 C 193.402 0.377,194.211 0.377,194.705 0.282 C 195.200 0.187,194.795 0.109,193.806 0.109 C 192.817 0.109,192.413 0.187,192.907 0.282 M185.989 4.496 L 184.815 5.794 186.114 4.621 C 186.828 3.975,187.413 3.391,187.413 3.322 C 187.413 3.013,187.083 3.285,185.989 4.496 M85.415 6.419 C 84.151 7.072,83.117 7.695,83.117 7.804 C 83.117 7.983,87.872 5.719,88.278 5.347 C 88.801 4.868,87.411 5.389,85.415 6.419 M76.124 12.297 C 75.904 12.461,75.276 13.132,74.729 13.790 C 73.836 14.862,73.887 14.844,75.229 13.608 C 76.582 12.361,76.914 11.976,76.623 11.994 C 76.568 11.997,76.344 12.134,76.124 12.297 M70.901 20.550 C 70.767 21.084,70.848 21.848,71.081 22.249 C 71.428 22.845,71.506 22.670,71.516 21.279 C 71.530 19.386,71.270 19.079,70.901 20.550 M128.272 21.379 C 129.017 22.148,129.717 22.777,129.827 22.777 C 129.937 22.777,129.417 22.148,128.671 21.379 C 127.926 20.609,127.226 19.980,127.116 19.980 C 127.006 19.980,127.526 20.609,128.272 21.379 M231.083 22.577 C 231.086 23.676,231.164 24.078,231.256 23.471 C 231.348 22.864,231.345 21.965,231.250 21.473 C 231.155 20.982,231.080 21.479,231.083 22.577 M136.297 27.322 C 136.708 27.690,139.061 28.771,139.061 28.592 C 139.061 28.362,136.846 27.173,136.417 27.173 C 136.259 27.173,136.205 27.240,136.297 27.322 M155.445 30.370 C 154.622 30.633,154.586 30.696,155.245 30.723 C 155.684 30.742,156.314 30.583,156.643 30.370 C 157.344 29.917,156.857 29.917,155.445 30.370 M150.155 30.652 C 150.652 30.748,151.371 30.744,151.753 30.644 C 152.135 30.544,151.728 30.466,150.849 30.470 C 149.970 30.475,149.657 30.557,150.155 30.652 M226.840 40.226 C 226.462 40.605,226.508 45.866,226.892 46.104 C 227.067 46.212,227.202 44.874,227.191 43.131 C 227.181 41.388,227.158 39.962,227.140 39.961 C 227.121 39.961,226.986 40.080,226.840 40.226 M69.311 58.778 C 68.960 59.458,68.743 60.085,68.830 60.172 C 68.917 60.259,69.287 59.703,69.652 58.936 C 70.474 57.213,70.189 57.081,69.311 58.778 M65.113 65.035 L 63.736 66.533 65.235 65.156 C 66.630 63.875,66.917 63.536,66.612 63.536 C 66.545 63.536,65.871 64.211,65.113 65.035 M236.364 66.733 C 237.669 68.052,238.826 69.131,238.936 69.131 C 239.046 69.131,238.068 68.052,236.763 66.733 C 235.458 65.415,234.301 64.336,234.191 64.336 C 234.081 64.336,235.059 65.415,236.364 66.733 M288.911 72.852 C 288.911 72.921,289.496 73.505,290.210 74.151 L 291.508 75.325 290.335 74.026 C 289.241 72.815,288.911 72.544,288.911 72.852 M36.164 74.326 C 36.300 74.545,36.681 74.725,37.010 74.725 C 37.340 74.725,37.498 74.545,37.363 74.326 C 37.227 74.106,36.846 73.926,36.516 73.926 C 36.187 73.926,36.028 74.106,36.164 74.326 M255.988 75.595 C 256.242 76.006,262.023 76.033,262.275 75.624 C 262.377 75.460,260.958 75.311,259.122 75.295 C 257.286 75.279,255.876 75.414,255.988 75.595 M199.001 98.826 C 199.001 98.895,199.585 99.480,200.300 100.125 L 201.598 101.299 200.425 100.000 C 199.331 98.789,199.001 98.518,199.001 98.826 M203.197 103.097 C 204.055 103.976,204.848 104.695,204.957 104.695 C 205.067 104.695,204.455 103.976,203.596 103.097 C 202.738 102.218,201.946 101.499,201.836 101.499 C 201.726 101.499,202.338 102.218,203.197 103.097 M282.091 127.777 L 280.719 129.269 282.116 128.071 C 282.884 127.412,283.588 126.828,283.681 126.773 C 283.774 126.718,283.762 126.586,283.656 126.480 C 283.549 126.373,282.845 126.957,282.091 127.777 M21.978 128.397 C 21.978 128.466,22.562 129.050,23.277 129.695 L 24.575 130.869 23.402 129.570 C 22.308 128.360,21.978 128.088,21.978 128.397 M275.196 137.281 C 274.258 139.250,274.390 139.585,275.371 137.725 C 275.817 136.880,276.111 136.118,276.025 136.031 C 275.938 135.945,275.566 136.507,275.196 137.281 M28.372 136.391 C 28.372 136.819,29.947 139.860,30.169 139.860 C 30.404 139.860,29.565 137.903,28.889 136.874 C 28.605 136.441,28.372 136.223,28.372 136.391 M272.766 144.207 C 272.415 145.749,272.143 147.335,272.162 147.731 C 272.180 148.127,272.537 146.936,272.955 145.083 C 273.373 143.230,273.645 141.644,273.559 141.558 C 273.474 141.472,273.117 142.664,272.766 144.207 M80.719 144.855 C 80.719 145.185,80.899 145.455,81.119 145.455 C 81.339 145.455,81.518 145.185,81.518 144.855 C 81.518 144.525,81.339 144.256,81.119 144.256 C 80.899 144.256,80.719 144.525,80.719 144.855 M31.581 146.254 C 31.581 146.583,31.755 147.123,31.968 147.453 C 32.312 147.985,32.355 147.985,32.355 147.453 C 32.355 147.123,32.181 146.583,31.968 146.254 C 31.624 145.721,31.581 145.721,31.581 146.254 M31.768 154.645 C 31.618 155.118,31.585 155.595,31.695 155.705 C 31.805 155.814,32.018 155.518,32.168 155.045 C 32.318 154.572,32.351 154.096,32.241 153.986 C 32.131 153.876,31.918 154.173,31.768 154.645 M80.719 157.619 C 80.719 157.935,80.899 158.306,81.119 158.442 C 81.339 158.577,81.518 158.318,81.518 157.866 C 81.518 157.413,81.339 157.043,81.119 157.043 C 80.899 157.043,80.719 157.302,80.719 157.619 M272.777 159.441 C 272.917 160.210,273.188 161.199,273.380 161.638 C 273.621 162.187,273.651 161.999,273.477 161.039 C 273.337 160.270,273.066 159.281,272.873 158.841 C 272.633 158.293,272.603 158.480,272.777 159.441 M273.955 163.437 C 274.102 163.986,274.389 164.705,274.593 165.035 C 274.850 165.452,274.882 165.330,274.696 164.635 C 274.549 164.086,274.262 163.367,274.058 163.037 C 273.801 162.620,273.770 162.742,273.955 163.437 M23.751 171.528 L 22.577 172.827 23.876 171.654 C 24.590 171.008,25.175 170.424,25.175 170.355 C 25.175 170.046,24.845 170.318,23.751 171.528 M298.501 186.414 C 299.247 187.183,299.947 187.812,300.057 187.812 C 300.167 187.812,299.647 187.183,298.901 186.414 C 298.156 185.644,297.456 185.015,297.346 185.015 C 297.236 185.015,297.756 185.644,298.501 186.414 M302.498 199.025 C 302.498 199.477,302.677 199.736,302.897 199.600 C 303.117 199.465,303.297 199.094,303.297 198.778 C 303.297 198.461,303.117 198.202,302.897 198.202 C 302.677 198.202,302.498 198.572,302.498 199.025 M200.599 202.398 C 199.629 203.387,198.925 204.196,199.034 204.196 C 199.144 204.196,200.028 203.387,200.999 202.398 C 201.970 201.409,202.674 200.599,202.564 200.599 C 202.454 200.599,201.570 201.409,200.599 202.398 M105.382 205.403 C 106.089 206.145,106.735 206.672,106.818 206.573 C 106.901 206.474,106.322 205.867,105.532 205.224 L 104.096 204.054 105.382 205.403 M193.606 208.427 L 192.408 209.457 193.706 208.597 C 194.421 208.125,195.005 207.660,195.005 207.565 C 195.005 207.266,194.836 207.370,193.606 208.427 M39.300 228.877 C 39.046 229.039,40.351 229.174,42.199 229.177 C 44.047 229.180,45.243 229.058,44.857 228.905 C 43.912 228.531,39.875 228.511,39.300 228.877 M262.737 228.971 C 263.837 229.444,264.228 229.444,263.936 228.971 C 263.800 228.751,263.295 228.584,262.814 228.600 C 261.969 228.627,261.967 228.640,262.737 228.971 M47.752 229.371 C 48.192 229.560,48.821 229.714,49.151 229.714 C 49.529 229.714,49.455 229.587,48.951 229.371 C 48.511 229.182,47.882 229.027,47.552 229.027 C 47.175 229.027,47.248 229.154,47.752 229.371 M29.698 230.309 C 28.779 230.562,27.907 230.893,27.759 231.044 C 27.611 231.195,28.426 231.071,29.570 230.769 C 30.715 230.467,31.752 230.119,31.876 229.995 C 32.180 229.691,31.678 229.763,29.698 230.309 M51.948 229.884 C 52.230 230.184,56.908 231.736,57.063 231.581 C 57.134 231.511,56.416 231.174,55.469 230.834 C 53.238 230.031,51.696 229.615,51.948 229.884 M269.376 229.932 C 269.510 230.076,271.200 230.628,273.130 231.159 C 275.060 231.690,276.479 231.981,276.282 231.806 C 276.085 231.631,274.755 231.179,273.327 230.802 C 271.898 230.425,270.370 230.016,269.930 229.893 C 269.491 229.771,269.241 229.788,269.376 229.932 M284.242 230.917 C 281.892 231.852,281.611 232.292,283.851 231.529 C 284.875 231.180,285.814 230.731,285.937 230.532 C 286.060 230.333,286.105 230.188,286.038 230.211 C 285.970 230.234,285.162 230.552,284.242 230.917 M17.029 230.958 C 17.452 231.361,20.595 232.250,20.201 231.856 C 20.050 231.705,19.196 231.366,18.302 231.102 C 17.408 230.838,16.835 230.773,17.029 230.958 M26.668 231.207 C 26.537 231.338,25.113 231.597,23.505 231.783 L 20.579 232.120 23.505 231.995 C 25.114 231.927,26.634 231.668,26.882 231.420 C 27.130 231.172,27.237 230.969,27.120 230.969 C 27.002 230.969,26.799 231.076,26.668 231.207 M240.659 232.613 C 239.297 233.486,238.857 234.071,240.060 233.410 C 240.977 232.906,242.413 231.795,242.158 231.788 C 242.048 231.784,241.374 232.156,240.659 232.613 M236.744 235.864 L 235.165 237.562 236.863 235.983 C 237.797 235.114,238.561 234.350,238.561 234.285 C 238.561 233.982,238.213 234.285,236.744 235.864 M66.611 240.590 C 67.008 241.266,67.588 242.031,67.900 242.288 C 68.212 242.546,67.964 241.993,67.348 241.059 C 66.054 239.098,65.544 238.773,66.611 240.590 M68.332 243.110 C 68.332 243.539,69.521 245.754,69.751 245.754 C 69.861 245.754,69.653 245.170,69.290 244.456 C 68.548 242.997,68.332 242.693,68.332 243.110 M299.401 244.032 C 299.785 244.132,300.415 244.132,300.799 244.032 C 301.184 243.931,300.869 243.849,300.100 243.849 C 299.331 243.849,299.016 243.931,299.401 244.032 M287.213 247.380 C 286.389 247.815,285.714 248.260,285.714 248.369 C 285.714 248.547,288.871 247.072,289.277 246.704 C 289.737 246.288,288.537 246.681,287.213 247.380 M282.496 250.849 L 281.119 252.348 282.617 250.971 C 284.012 249.689,284.300 249.351,283.994 249.351 C 283.928 249.351,283.253 250.025,282.496 250.849 M71.563 257.542 C 71.547 259.230,71.655 259.763,71.928 259.341 C 72.396 258.616,72.396 257.034,71.928 255.944 C 71.684 255.376,71.578 255.837,71.563 257.542 M226.573 259.717 C 226.573 261.242,226.708 262.574,226.873 262.676 C 227.038 262.777,227.173 261.530,227.173 259.902 C 227.173 258.275,227.038 256.944,226.873 256.944 C 226.708 256.943,226.573 258.191,226.573 259.717 M360.040 265.934 C 360.040 266.703,360.220 267.333,360.440 267.333 C 360.659 267.333,360.839 266.703,360.839 265.934 C 360.839 265.165,360.659 264.535,360.440 264.535 C 360.220 264.535,360.040 265.165,360.040 265.934 M149.251 271.319 C 148.768 271.520,149.402 271.566,150.849 271.435 C 152.168 271.316,153.322 271.153,153.413 271.074 C 153.754 270.778,150.020 270.998,149.251 271.319 M145.455 271.617 C 144.905 271.715,144.299 271.946,144.108 272.130 C 143.803 272.423,144.846 272.270,147.652 271.609 C 148.724 271.357,146.867 271.363,145.455 271.617 M158.294 271.914 C 158.603 272.223,163.590 273.706,163.758 273.538 C 163.843 273.453,162.708 273.010,161.235 272.555 C 158.477 271.704,157.974 271.594,158.294 271.914 M138.262 274.126 C 137.493 274.547,137.043 274.892,137.263 274.892 C 137.483 274.892,138.292 274.547,139.061 274.126 C 139.830 273.705,140.280 273.360,140.060 273.360 C 139.840 273.360,139.031 273.705,138.262 274.126 M66.602 277.679 C 66.454 278.417,66.353 279.403,66.377 279.870 C 66.402 280.337,66.580 279.910,66.775 278.921 C 66.970 277.932,67.071 276.946,67.000 276.730 C 66.929 276.513,66.750 276.940,66.602 277.679 M364.036 277.048 C 364.036 277.117,364.609 277.701,365.309 278.347 L 366.582 279.520 365.609 278.244 C 364.782 277.159,364.036 276.592,364.036 277.048 M231.141 280.185 C 231.150 281.358,231.020 282.857,230.851 283.516 C 230.643 284.331,230.669 284.529,230.931 284.135 C 231.521 283.246,231.858 280.032,231.471 278.985 C 231.205 278.267,231.129 278.545,231.141 280.185 M317.682 285.315 C 317.682 285.815,318.106 285.815,318.881 285.315 C 319.366 285.001,319.308 284.926,318.581 284.921 C 318.087 284.918,317.682 285.095,317.682 285.315 M324.076 285.315 C 324.863 285.823,325.789 285.823,325.475 285.315 C 325.339 285.095,324.834 284.918,324.352 284.921 C 323.640 284.926,323.589 285.000,324.076 285.315 M69.530 286.913 C 70.000 287.572,70.474 288.112,70.584 288.112 C 70.694 288.112,70.400 287.572,69.930 286.913 C 69.461 286.254,68.987 285.714,68.877 285.714 C 68.767 285.714,69.061 286.254,69.530 286.913 M227.148 289.810 L 225.974 291.109 227.273 289.935 C 228.483 288.841,228.755 288.511,228.446 288.511 C 228.378 288.511,227.793 289.096,227.148 289.810 M222.577 293.342 C 221.914 293.885,221.847 294.021,222.378 293.746 C 223.681 293.073,224.404 292.520,223.976 292.522 C 223.756 292.524,223.127 292.893,222.577 293.342 M105.894 303.297 C 106.676 303.802,107.780 303.802,108.092 303.297 C 108.240 303.057,107.731 302.900,106.817 302.903 C 105.687 302.908,105.449 303.009,105.894 303.297 M192.510 303.359 C 192.848 303.697,193.328 303.708,194.289 303.400 L 195.604 302.979 193.826 302.938 C 192.480 302.907,192.160 303.009,192.510 303.359 M288.992 305.104 C 288.513 306.088,288.206 306.893,288.309 306.893 C 288.579 306.893,290.194 303.647,290.013 303.467 C 289.930 303.383,289.470 304.119,288.992 305.104 M388.593 309.391 L 387.013 311.089 388.711 309.509 C 390.291 308.040,390.593 307.692,390.291 307.692 C 390.226 307.692,389.461 308.457,388.593 309.391 M255.328 309.790 C 256.308 310.834,257.162 311.688,257.226 311.688 C 257.526 311.688,257.209 311.330,255.445 309.674 L 253.546 307.892 255.328 309.790 M383.483 320.746 C 383.065 321.164,383.172 322.877,383.616 322.877 C 383.836 322.877,384.016 322.338,384.016 321.678 C 384.016 320.437,383.935 320.294,383.483 320.746 M347.042 347.353 L 344.256 350.250 347.153 347.463 C 349.844 344.875,350.232 344.456,349.939 344.456 C 349.878 344.456,348.575 345.759,347.042 347.353 M318.482 357.642 C 318.482 357.862,318.976 358.039,319.580 358.036 C 320.437 358.031,320.547 357.944,320.080 357.642 C 319.298 357.137,318.482 357.137,318.482 357.642 M322.877 357.642 C 322.410 357.944,322.520 358.031,323.377 358.036 C 323.981 358.039,324.476 357.862,324.476 357.642 C 324.476 357.137,323.659 357.137,322.877 357.642 M375.225 361.239 C 375.225 361.459,375.955 361.638,376.847 361.638 C 377.826 361.638,378.371 361.480,378.222 361.239 C 378.086 361.019,377.356 360.839,376.600 360.839 C 375.844 360.839,375.225 361.019,375.225 361.239 M360.040 377.223 C 360.040 377.882,360.220 378.422,360.440 378.422 C 360.659 378.422,360.839 377.882,360.839 377.223 C 360.839 376.563,360.659 376.024,360.440 376.024 C 360.220 376.024,360.040 376.563,360.040 377.223 M332.101 386.913 C 332.193 386.968,332.807 387.463,333.467 388.012 L 334.665 389.011 333.697 387.912 C 333.164 387.308,332.549 386.813,332.331 386.813 C 332.113 386.813,332.010 386.858,332.101 386.913 M307.293 390.809 C 306.823 391.469,306.529 392.008,306.639 392.008 C 306.749 392.008,307.223 391.469,307.692 390.809 C 308.162 390.150,308.456 389.610,308.346 389.610 C 308.236 389.610,307.762 390.150,307.293 390.809 M279.321 390.535 C 279.321 390.603,279.905 391.188,280.619 391.833 L 281.918 393.007 280.744 391.708 C 279.650 390.498,279.321 390.226,279.321 390.535 M360.215 392.507 L 359.041 393.806 360.340 392.633 C 361.054 391.987,361.638 391.403,361.638 391.334 C 361.638 391.025,361.309 391.297,360.215 392.507 "
       stroke="none"
       fill="#545454"
       fill-rule="evenodd"
       style="fill:#dedede;fill-opacity:1" />
    <path
       id="path3"
       d="M186.592 3.497 L 185.215 4.995 186.713 3.618 C 187.537 2.861,188.212 2.186,188.212 2.119 C 188.212 1.814,187.874 2.102,186.592 3.497 M73.421 14.888 L 72.716 16.184 73.521 15.240 C 74.206 14.438,74.572 13.580,74.226 13.589 C 74.171 13.590,73.809 14.175,73.421 14.888 M71.728 17.582 C 71.387 18.242,71.198 18.781,71.308 18.781 C 71.418 18.781,71.787 18.242,72.128 17.582 C 72.469 16.923,72.658 16.384,72.548 16.384 C 72.438 16.384,72.069 16.923,71.728 17.582 M71.434 25.393 C 71.538 25.939,71.756 26.467,71.918 26.567 C 72.080 26.667,72.127 26.302,72.022 25.756 C 71.918 25.210,71.700 24.682,71.538 24.582 C 71.377 24.482,71.330 24.847,71.434 25.393 M227.074 42.957 C 227.078 43.836,227.160 44.149,227.256 43.652 C 227.351 43.155,227.348 42.435,227.248 42.053 C 227.148 41.671,227.069 42.078,227.074 42.957 M64.735 64.935 C 63.765 65.924,63.060 66.733,63.170 66.733 C 63.280 66.733,64.164 65.924,65.135 64.935 C 66.106 63.946,66.810 63.137,66.700 63.137 C 66.590 63.137,65.706 63.946,64.735 64.935 M277.223 71.357 C 275.673 72.198,275.849 72.488,277.423 71.688 C 278.929 70.922,279.195 70.723,278.688 70.745 C 278.487 70.754,277.827 71.030,277.223 71.357 M25.574 71.359 C 25.574 71.629,27.650 72.383,27.848 72.185 C 27.939 72.095,27.464 71.829,26.794 71.595 C 26.123 71.362,25.574 71.255,25.574 71.359 M53.746 71.928 C 52.867 72.335,52.288 72.681,52.460 72.698 C 52.934 72.743,55.544 71.601,55.544 71.349 C 55.544 71.078,55.667 71.039,53.746 71.928 M29.171 72.558 C 29.171 72.828,31.247 73.582,31.444 73.384 C 31.535 73.293,31.061 73.028,30.390 72.794 C 29.719 72.561,29.171 72.454,29.171 72.558 M272.403 73.200 C 271.125 73.645,270.151 74.080,270.237 74.166 C 270.446 74.376,274.223 73.115,274.705 72.674 C 275.190 72.232,275.166 72.237,272.403 73.200 M246.953 73.357 C 246.953 73.627,249.029 74.381,249.227 74.183 C 249.317 74.093,248.843 73.827,248.172 73.593 C 247.502 73.360,246.953 73.253,246.953 73.357 M38.102 74.419 C 38.671 74.783,42.710 74.767,43.643 74.397 C 44.020 74.248,42.824 74.126,40.985 74.126 C 39.147 74.126,37.849 74.258,38.102 74.419 M126.883 84.954 C 126.009 85.273,125.125 85.704,124.918 85.911 C 124.711 86.118,125.373 85.972,126.389 85.586 C 127.404 85.201,128.363 84.757,128.520 84.600 C 128.885 84.235,128.788 84.256,126.883 84.954 M122.577 86.740 C 121.753 87.176,121.079 87.621,121.079 87.730 C 121.079 87.839,121.798 87.561,122.677 87.113 C 123.556 86.664,124.276 86.211,124.276 86.106 C 124.276 85.844,124.273 85.845,122.577 86.740 M303.309 108.092 C 303.309 109.528,303.418 109.921,303.696 109.491 C 303.909 109.161,304.084 108.531,304.084 108.092 C 304.084 107.652,303.909 107.023,303.696 106.693 C 303.418 106.263,303.309 106.656,303.309 108.092 M88.196 119.694 C 87.384 121.335,86.806 122.677,86.911 122.677 C 87.178 122.677,89.995 117.034,89.817 116.856 C 89.737 116.777,89.008 118.054,88.196 119.694 M32.092 150.849 C 32.094 152.168,32.169 152.659,32.258 151.941 C 32.347 151.223,32.345 150.144,32.254 149.543 C 32.162 148.943,32.090 149.530,32.092 150.849 M80.719 156.044 C 80.719 156.374,80.899 156.643,81.119 156.643 C 81.339 156.643,81.518 156.374,81.518 156.044 C 81.518 155.714,81.339 155.445,81.119 155.445 C 80.899 155.445,80.719 155.714,80.719 156.044 M20.779 174.262 C 20.010 174.930,19.742 175.301,20.184 175.088 C 20.913 174.735,22.725 173.012,22.340 173.038 C 22.251 173.044,21.548 173.595,20.779 174.262 M281.697 175.126 C 282.454 175.949,283.353 176.618,283.695 176.611 C 284.154 176.602,284.108 176.484,283.516 176.158 C 283.077 175.916,282.178 175.247,281.518 174.673 C 280.485 173.772,280.510 173.835,281.697 175.126 M213.851 184.033 C 213.182 185.503,213.309 185.816,214.033 184.480 C 214.371 183.856,214.573 183.271,214.482 183.180 C 214.390 183.088,214.107 183.472,213.851 184.033 M99.500 199.277 C 99.500 199.497,99.860 200.002,100.300 200.400 C 100.739 200.797,101.099 200.943,101.099 200.723 C 101.099 200.503,100.739 199.998,100.300 199.600 C 99.860 199.203,99.500 199.057,99.500 199.277 M102.493 202.561 C 103.250 203.428,104.695 204.410,104.695 204.057 C 104.695 203.966,104.021 203.387,103.197 202.771 C 101.970 201.853,101.842 201.815,102.493 202.561 M339.538 245.567 C 338.922 246.110,338.575 246.553,338.769 246.553 C 338.963 246.553,339.544 246.104,340.060 245.554 C 341.254 244.283,340.990 244.290,339.538 245.567 M358.442 249.476 C 358.442 249.544,359.026 250.129,359.740 250.774 L 361.039 251.948 359.865 250.649 C 358.771 249.439,358.442 249.167,358.442 249.476 M281.419 263.536 C 281.424 264.416,281.506 264.728,281.601 264.231 C 281.697 263.734,281.693 263.015,281.593 262.633 C 281.493 262.251,281.415 262.657,281.419 263.536 M150.954 271.611 C 151.451 271.707,152.170 271.703,152.552 271.603 C 152.934 271.503,152.527 271.425,151.648 271.429 C 150.769 271.434,150.457 271.516,150.954 271.611 M365.235 277.722 C 365.470 278.162,365.864 278.521,366.110 278.521 C 366.356 278.521,366.232 278.162,365.834 277.722 C 365.436 277.283,365.043 276.923,364.959 276.923 C 364.875 276.923,365.000 277.283,365.235 277.722 M173.874 281.319 C 174.581 282.198,175.345 282.917,175.573 282.917 C 175.800 282.917,175.284 282.198,174.426 281.319 C 173.567 280.440,172.803 279.720,172.727 279.720 C 172.652 279.720,173.168 280.440,173.874 281.319 M249.597 282.519 C 248.802 283.398,248.152 284.244,248.152 284.397 C 248.152 284.550,248.287 284.504,248.453 284.296 C 248.618 284.087,249.373 283.242,250.129 282.418 C 250.886 281.593,251.401 280.919,251.274 280.919 C 251.146 280.919,250.392 281.639,249.597 282.519 M319.680 285.276 C 319.051 285.453,319.717 285.558,321.479 285.558 C 323.240 285.558,323.906 285.453,323.277 285.276 C 322.727 285.121,321.918 284.995,321.479 284.995 C 321.039 284.995,320.230 285.121,319.680 285.276 M305.195 288.938 C 304.371 289.373,303.696 289.819,303.696 289.928 C 303.696 290.106,306.853 288.631,307.259 288.263 C 307.719 287.846,306.519 288.239,305.195 288.938 M295.683 296.004 L 294.306 297.502 295.804 296.125 C 297.199 294.844,297.486 294.505,297.181 294.505 C 297.115 294.505,296.440 295.180,295.683 296.004 M353.265 303.757 C 353.255 303.900,353.695 304.978,354.242 306.154 C 354.789 307.330,355.231 308.022,355.223 307.692 C 355.209 307.097,353.299 303.259,353.265 303.757 M288.316 306.886 C 287.893 307.570,286.505 311.813,286.656 311.964 C 286.735 312.043,287.250 310.844,287.800 309.301 C 288.737 306.673,288.890 305.958,288.316 306.886 M357.249 318.558 C 357.261 319.561,358.029 320.388,358.036 319.404 C 358.039 318.923,357.862 318.418,357.642 318.282 C 357.423 318.146,357.246 318.270,357.249 318.558 M357.531 323.010 C 357.085 324.142,357.158 324.720,357.680 324.198 C 357.920 323.958,358.050 323.427,357.968 323.019 C 357.824 322.304,357.808 322.304,357.531 323.010 M254.680 332.718 C 253.984 333.459,253.544 334.066,253.702 334.066 C 253.860 334.066,254.599 333.437,255.345 332.667 C 256.090 331.898,256.530 331.292,256.322 331.320 C 256.114 331.348,255.375 331.977,254.680 332.718 M289.111 337.662 C 289.452 338.322,289.821 338.861,289.931 338.861 C 290.041 338.861,289.851 338.322,289.510 337.662 C 289.170 337.003,288.801 336.464,288.691 336.464 C 288.581 336.464,288.770 337.003,289.111 337.662 M304.895 353.812 C 305.445 354.106,306.344 354.458,306.893 354.595 C 307.443 354.731,307.173 354.497,306.294 354.075 C 304.485 353.205,303.365 352.995,304.895 353.812 M272.128 362.598 C 272.128 362.687,272.712 362.954,273.427 363.192 C 274.615 363.589,274.659 363.575,273.950 363.031 C 273.235 362.484,272.128 362.221,272.128 362.598 M367.809 363.024 C 367.382 363.347,367.223 363.617,367.456 363.624 C 367.689 363.631,368.228 363.372,368.655 363.050 C 369.082 362.727,369.240 362.457,369.007 362.450 C 368.775 362.443,368.235 362.702,367.809 363.024 M320.321 383.150 C 320.208 383.333,320.908 383.483,321.878 383.483 C 322.848 383.483,323.549 383.333,323.435 383.150 C 323.322 382.967,322.621 382.817,321.878 382.817 C 321.135 382.817,320.434 382.967,320.321 383.150 M362.595 387.624 C 362.618 388.276,362.772 388.810,362.937 388.810 C 363.352 388.812,363.315 386.909,362.895 386.649 C 362.707 386.533,362.572 386.972,362.595 387.624 M332.835 388.156 C 333.367 388.734,333.880 389.130,333.974 389.036 C 334.261 388.749,333.672 388.043,332.745 387.560 C 331.909 387.126,331.913 387.153,332.835 388.156 M307.291 391.309 C 306.703 392.112,306.607 392.391,307.038 392.041 C 307.694 391.509,308.684 390.010,308.381 390.010 C 308.305 390.010,307.814 390.594,307.291 391.309 M360.642 392.405 C 360.243 392.846,360.102 393.207,360.329 393.207 C 360.831 393.207,361.828 392.065,361.560 391.796 C 361.454 391.690,361.041 391.964,360.642 392.405 "
       stroke="none"
       fill="#7c7c7c"
       fill-rule="evenodd"
       style="fill:#dedede;fill-opacity:1" />
    <path
       id="path4"
       d="M258.647 75.412 C 259.254 75.503,260.153 75.501,260.645 75.406 C 261.136 75.311,260.639 75.236,259.540 75.239 C 258.442 75.242,258.039 75.320,258.647 75.412 M40.460 229.246 C 40.844 229.347,41.474 229.347,41.858 229.246 C 42.243 229.146,41.928 229.064,41.159 229.064 C 40.390 229.064,40.075 229.146,40.460 229.246 M173.427 280.245 C 173.427 280.314,174.011 280.898,174.725 281.544 L 176.024 282.717 174.850 281.419 C 173.756 280.208,173.427 279.936,173.427 280.245 M295.305 346.579 C 295.305 346.647,295.889 347.232,296.603 347.877 L 297.902 349.051 296.728 347.752 C 295.634 346.542,295.305 346.270,295.305 346.579 M320.218 357.736 C 320.472 357.898,321.039 358.030,321.479 358.030 C 321.918 358.030,322.485 357.898,322.739 357.736 C 322.993 357.575,322.426 357.443,321.479 357.443 C 320.531 357.443,319.964 357.575,320.218 357.736 "
       stroke="none"
       fill="#747474"
       fill-rule="evenodd"
       style="fill:#dedede;fill-opacity:1" />
  </g>
</svg>
